%TF.GenerationSoftware,KiCad,Pcbnew,8.0.7*%
%TF.CreationDate,2025-01-12T01:40:56+08:00*%
%TF.ProjectId,power,706f7765-722e-46b6-9963-61645f706362,rev?*%
%TF.SameCoordinates,Original*%
%TF.FileFunction,Legend,Top*%
%TF.FilePolarity,Positive*%
%FSLAX46Y46*%
G04 Gerber Fmt 4.6, Leading zero omitted, Abs format (unit mm)*
G04 Created by KiCad (PCBNEW 8.0.7) date 2025-01-12 01:40:56*
%MOMM*%
%LPD*%
G01*
G04 APERTURE LIST*
%ADD10C,0.100000*%
%ADD11C,0.150000*%
%ADD12C,0.120000*%
G04 APERTURE END LIST*
D10*
X153872419Y-82338972D02*
X154872419Y-82005639D01*
X154872419Y-82005639D02*
X153872419Y-81672306D01*
X154872419Y-81338972D02*
X154205752Y-81338972D01*
X153872419Y-81338972D02*
X153920038Y-81386591D01*
X153920038Y-81386591D02*
X153967657Y-81338972D01*
X153967657Y-81338972D02*
X153920038Y-81291353D01*
X153920038Y-81291353D02*
X153872419Y-81338972D01*
X153872419Y-81338972D02*
X153967657Y-81338972D01*
X154205752Y-80862782D02*
X154872419Y-80862782D01*
X154300990Y-80862782D02*
X154253371Y-80815163D01*
X154253371Y-80815163D02*
X154205752Y-80719925D01*
X154205752Y-80719925D02*
X154205752Y-80577068D01*
X154205752Y-80577068D02*
X154253371Y-80481830D01*
X154253371Y-80481830D02*
X154348609Y-80434211D01*
X154348609Y-80434211D02*
X154872419Y-80434211D01*
X154491466Y-79958020D02*
X154491466Y-79196116D01*
X154872419Y-79577068D02*
X154110514Y-79577068D01*
D11*
X172859580Y-62666666D02*
X172907200Y-62714285D01*
X172907200Y-62714285D02*
X172954819Y-62857142D01*
X172954819Y-62857142D02*
X172954819Y-62952380D01*
X172954819Y-62952380D02*
X172907200Y-63095237D01*
X172907200Y-63095237D02*
X172811961Y-63190475D01*
X172811961Y-63190475D02*
X172716723Y-63238094D01*
X172716723Y-63238094D02*
X172526247Y-63285713D01*
X172526247Y-63285713D02*
X172383390Y-63285713D01*
X172383390Y-63285713D02*
X172192914Y-63238094D01*
X172192914Y-63238094D02*
X172097676Y-63190475D01*
X172097676Y-63190475D02*
X172002438Y-63095237D01*
X172002438Y-63095237D02*
X171954819Y-62952380D01*
X171954819Y-62952380D02*
X171954819Y-62857142D01*
X171954819Y-62857142D02*
X172002438Y-62714285D01*
X172002438Y-62714285D02*
X172050057Y-62666666D01*
X171954819Y-61761904D02*
X171954819Y-62238094D01*
X171954819Y-62238094D02*
X172431009Y-62285713D01*
X172431009Y-62285713D02*
X172383390Y-62238094D01*
X172383390Y-62238094D02*
X172335771Y-62142856D01*
X172335771Y-62142856D02*
X172335771Y-61904761D01*
X172335771Y-61904761D02*
X172383390Y-61809523D01*
X172383390Y-61809523D02*
X172431009Y-61761904D01*
X172431009Y-61761904D02*
X172526247Y-61714285D01*
X172526247Y-61714285D02*
X172764342Y-61714285D01*
X172764342Y-61714285D02*
X172859580Y-61761904D01*
X172859580Y-61761904D02*
X172907200Y-61809523D01*
X172907200Y-61809523D02*
X172954819Y-61904761D01*
X172954819Y-61904761D02*
X172954819Y-62142856D01*
X172954819Y-62142856D02*
X172907200Y-62238094D01*
X172907200Y-62238094D02*
X172859580Y-62285713D01*
X165359580Y-62666666D02*
X165407200Y-62714285D01*
X165407200Y-62714285D02*
X165454819Y-62857142D01*
X165454819Y-62857142D02*
X165454819Y-62952380D01*
X165454819Y-62952380D02*
X165407200Y-63095237D01*
X165407200Y-63095237D02*
X165311961Y-63190475D01*
X165311961Y-63190475D02*
X165216723Y-63238094D01*
X165216723Y-63238094D02*
X165026247Y-63285713D01*
X165026247Y-63285713D02*
X164883390Y-63285713D01*
X164883390Y-63285713D02*
X164692914Y-63238094D01*
X164692914Y-63238094D02*
X164597676Y-63190475D01*
X164597676Y-63190475D02*
X164502438Y-63095237D01*
X164502438Y-63095237D02*
X164454819Y-62952380D01*
X164454819Y-62952380D02*
X164454819Y-62857142D01*
X164454819Y-62857142D02*
X164502438Y-62714285D01*
X164502438Y-62714285D02*
X164550057Y-62666666D01*
X164788152Y-61809523D02*
X165454819Y-61809523D01*
X164407200Y-62047618D02*
X165121485Y-62285713D01*
X165121485Y-62285713D02*
X165121485Y-61666666D01*
D10*
X154457419Y-66642856D02*
X155457419Y-66309523D01*
X155457419Y-66309523D02*
X154457419Y-65976190D01*
X155457419Y-65642856D02*
X154790752Y-65642856D01*
X154457419Y-65642856D02*
X154505038Y-65690475D01*
X154505038Y-65690475D02*
X154552657Y-65642856D01*
X154552657Y-65642856D02*
X154505038Y-65595237D01*
X154505038Y-65595237D02*
X154457419Y-65642856D01*
X154457419Y-65642856D02*
X154552657Y-65642856D01*
X154790752Y-65166666D02*
X155457419Y-65166666D01*
X154885990Y-65166666D02*
X154838371Y-65119047D01*
X154838371Y-65119047D02*
X154790752Y-65023809D01*
X154790752Y-65023809D02*
X154790752Y-64880952D01*
X154790752Y-64880952D02*
X154838371Y-64785714D01*
X154838371Y-64785714D02*
X154933609Y-64738095D01*
X154933609Y-64738095D02*
X155457419Y-64738095D01*
X155076466Y-64261904D02*
X155076466Y-63500000D01*
X184457419Y-83444761D02*
X185457419Y-83111428D01*
X185457419Y-83111428D02*
X184457419Y-82778095D01*
X185457419Y-82301904D02*
X185409800Y-82397142D01*
X185409800Y-82397142D02*
X185362180Y-82444761D01*
X185362180Y-82444761D02*
X185266942Y-82492380D01*
X185266942Y-82492380D02*
X184981228Y-82492380D01*
X184981228Y-82492380D02*
X184885990Y-82444761D01*
X184885990Y-82444761D02*
X184838371Y-82397142D01*
X184838371Y-82397142D02*
X184790752Y-82301904D01*
X184790752Y-82301904D02*
X184790752Y-82159047D01*
X184790752Y-82159047D02*
X184838371Y-82063809D01*
X184838371Y-82063809D02*
X184885990Y-82016190D01*
X184885990Y-82016190D02*
X184981228Y-81968571D01*
X184981228Y-81968571D02*
X185266942Y-81968571D01*
X185266942Y-81968571D02*
X185362180Y-82016190D01*
X185362180Y-82016190D02*
X185409800Y-82063809D01*
X185409800Y-82063809D02*
X185457419Y-82159047D01*
X185457419Y-82159047D02*
X185457419Y-82301904D01*
X185076466Y-81539999D02*
X185076466Y-80778095D01*
X185457419Y-81159047D02*
X184695514Y-81159047D01*
X184457419Y-66404761D02*
X185457419Y-66071428D01*
X185457419Y-66071428D02*
X184457419Y-65738095D01*
X185457419Y-65261904D02*
X185409800Y-65357142D01*
X185409800Y-65357142D02*
X185362180Y-65404761D01*
X185362180Y-65404761D02*
X185266942Y-65452380D01*
X185266942Y-65452380D02*
X184981228Y-65452380D01*
X184981228Y-65452380D02*
X184885990Y-65404761D01*
X184885990Y-65404761D02*
X184838371Y-65357142D01*
X184838371Y-65357142D02*
X184790752Y-65261904D01*
X184790752Y-65261904D02*
X184790752Y-65119047D01*
X184790752Y-65119047D02*
X184838371Y-65023809D01*
X184838371Y-65023809D02*
X184885990Y-64976190D01*
X184885990Y-64976190D02*
X184981228Y-64928571D01*
X184981228Y-64928571D02*
X185266942Y-64928571D01*
X185266942Y-64928571D02*
X185362180Y-64976190D01*
X185362180Y-64976190D02*
X185409800Y-65023809D01*
X185409800Y-65023809D02*
X185457419Y-65119047D01*
X185457419Y-65119047D02*
X185457419Y-65261904D01*
X185076466Y-64499999D02*
X185076466Y-63738095D01*
D11*
X166079819Y-71899404D02*
X166889342Y-71899404D01*
X166889342Y-71899404D02*
X166984580Y-71851785D01*
X166984580Y-71851785D02*
X167032200Y-71804166D01*
X167032200Y-71804166D02*
X167079819Y-71708928D01*
X167079819Y-71708928D02*
X167079819Y-71518452D01*
X167079819Y-71518452D02*
X167032200Y-71423214D01*
X167032200Y-71423214D02*
X166984580Y-71375595D01*
X166984580Y-71375595D02*
X166889342Y-71327976D01*
X166889342Y-71327976D02*
X166079819Y-71327976D01*
X167079819Y-70327976D02*
X167079819Y-70899404D01*
X167079819Y-70613690D02*
X166079819Y-70613690D01*
X166079819Y-70613690D02*
X166222676Y-70708928D01*
X166222676Y-70708928D02*
X166317914Y-70804166D01*
X166317914Y-70804166D02*
X166365533Y-70899404D01*
X157954819Y-65166666D02*
X157478628Y-65499999D01*
X157954819Y-65738094D02*
X156954819Y-65738094D01*
X156954819Y-65738094D02*
X156954819Y-65357142D01*
X156954819Y-65357142D02*
X157002438Y-65261904D01*
X157002438Y-65261904D02*
X157050057Y-65214285D01*
X157050057Y-65214285D02*
X157145295Y-65166666D01*
X157145295Y-65166666D02*
X157288152Y-65166666D01*
X157288152Y-65166666D02*
X157383390Y-65214285D01*
X157383390Y-65214285D02*
X157431009Y-65261904D01*
X157431009Y-65261904D02*
X157478628Y-65357142D01*
X157478628Y-65357142D02*
X157478628Y-65738094D01*
X156954819Y-64261904D02*
X156954819Y-64738094D01*
X156954819Y-64738094D02*
X157431009Y-64785713D01*
X157431009Y-64785713D02*
X157383390Y-64738094D01*
X157383390Y-64738094D02*
X157335771Y-64642856D01*
X157335771Y-64642856D02*
X157335771Y-64404761D01*
X157335771Y-64404761D02*
X157383390Y-64309523D01*
X157383390Y-64309523D02*
X157431009Y-64261904D01*
X157431009Y-64261904D02*
X157526247Y-64214285D01*
X157526247Y-64214285D02*
X157764342Y-64214285D01*
X157764342Y-64214285D02*
X157859580Y-64261904D01*
X157859580Y-64261904D02*
X157907200Y-64309523D01*
X157907200Y-64309523D02*
X157954819Y-64404761D01*
X157954819Y-64404761D02*
X157954819Y-64642856D01*
X157954819Y-64642856D02*
X157907200Y-64738094D01*
X157907200Y-64738094D02*
X157859580Y-64785713D01*
X160454819Y-62666666D02*
X159978628Y-62999999D01*
X160454819Y-63238094D02*
X159454819Y-63238094D01*
X159454819Y-63238094D02*
X159454819Y-62857142D01*
X159454819Y-62857142D02*
X159502438Y-62761904D01*
X159502438Y-62761904D02*
X159550057Y-62714285D01*
X159550057Y-62714285D02*
X159645295Y-62666666D01*
X159645295Y-62666666D02*
X159788152Y-62666666D01*
X159788152Y-62666666D02*
X159883390Y-62714285D01*
X159883390Y-62714285D02*
X159931009Y-62761904D01*
X159931009Y-62761904D02*
X159978628Y-62857142D01*
X159978628Y-62857142D02*
X159978628Y-63238094D01*
X159788152Y-61809523D02*
X160454819Y-61809523D01*
X159407200Y-62047618D02*
X160121485Y-62285713D01*
X160121485Y-62285713D02*
X160121485Y-61666666D01*
X165454819Y-72666666D02*
X164978628Y-72999999D01*
X165454819Y-73238094D02*
X164454819Y-73238094D01*
X164454819Y-73238094D02*
X164454819Y-72857142D01*
X164454819Y-72857142D02*
X164502438Y-72761904D01*
X164502438Y-72761904D02*
X164550057Y-72714285D01*
X164550057Y-72714285D02*
X164645295Y-72666666D01*
X164645295Y-72666666D02*
X164788152Y-72666666D01*
X164788152Y-72666666D02*
X164883390Y-72714285D01*
X164883390Y-72714285D02*
X164931009Y-72761904D01*
X164931009Y-72761904D02*
X164978628Y-72857142D01*
X164978628Y-72857142D02*
X164978628Y-73238094D01*
X164454819Y-72333332D02*
X164454819Y-71714285D01*
X164454819Y-71714285D02*
X164835771Y-72047618D01*
X164835771Y-72047618D02*
X164835771Y-71904761D01*
X164835771Y-71904761D02*
X164883390Y-71809523D01*
X164883390Y-71809523D02*
X164931009Y-71761904D01*
X164931009Y-71761904D02*
X165026247Y-71714285D01*
X165026247Y-71714285D02*
X165264342Y-71714285D01*
X165264342Y-71714285D02*
X165359580Y-71761904D01*
X165359580Y-71761904D02*
X165407200Y-71809523D01*
X165407200Y-71809523D02*
X165454819Y-71904761D01*
X165454819Y-71904761D02*
X165454819Y-72190475D01*
X165454819Y-72190475D02*
X165407200Y-72285713D01*
X165407200Y-72285713D02*
X165359580Y-72333332D01*
X170454819Y-62666666D02*
X169978628Y-62999999D01*
X170454819Y-63238094D02*
X169454819Y-63238094D01*
X169454819Y-63238094D02*
X169454819Y-62857142D01*
X169454819Y-62857142D02*
X169502438Y-62761904D01*
X169502438Y-62761904D02*
X169550057Y-62714285D01*
X169550057Y-62714285D02*
X169645295Y-62666666D01*
X169645295Y-62666666D02*
X169788152Y-62666666D01*
X169788152Y-62666666D02*
X169883390Y-62714285D01*
X169883390Y-62714285D02*
X169931009Y-62761904D01*
X169931009Y-62761904D02*
X169978628Y-62857142D01*
X169978628Y-62857142D02*
X169978628Y-63238094D01*
X169550057Y-62285713D02*
X169502438Y-62238094D01*
X169502438Y-62238094D02*
X169454819Y-62142856D01*
X169454819Y-62142856D02*
X169454819Y-61904761D01*
X169454819Y-61904761D02*
X169502438Y-61809523D01*
X169502438Y-61809523D02*
X169550057Y-61761904D01*
X169550057Y-61761904D02*
X169645295Y-61714285D01*
X169645295Y-61714285D02*
X169740533Y-61714285D01*
X169740533Y-61714285D02*
X169883390Y-61761904D01*
X169883390Y-61761904D02*
X170454819Y-62333332D01*
X170454819Y-62333332D02*
X170454819Y-61714285D01*
X167954819Y-62666666D02*
X167478628Y-62999999D01*
X167954819Y-63238094D02*
X166954819Y-63238094D01*
X166954819Y-63238094D02*
X166954819Y-62857142D01*
X166954819Y-62857142D02*
X167002438Y-62761904D01*
X167002438Y-62761904D02*
X167050057Y-62714285D01*
X167050057Y-62714285D02*
X167145295Y-62666666D01*
X167145295Y-62666666D02*
X167288152Y-62666666D01*
X167288152Y-62666666D02*
X167383390Y-62714285D01*
X167383390Y-62714285D02*
X167431009Y-62761904D01*
X167431009Y-62761904D02*
X167478628Y-62857142D01*
X167478628Y-62857142D02*
X167478628Y-63238094D01*
X167954819Y-61714285D02*
X167954819Y-62285713D01*
X167954819Y-61999999D02*
X166954819Y-61999999D01*
X166954819Y-61999999D02*
X167097676Y-62095237D01*
X167097676Y-62095237D02*
X167192914Y-62190475D01*
X167192914Y-62190475D02*
X167240533Y-62285713D01*
X177333333Y-68654819D02*
X176857143Y-68654819D01*
X176857143Y-68654819D02*
X176857143Y-67654819D01*
X178190476Y-68654819D02*
X177619048Y-68654819D01*
X177904762Y-68654819D02*
X177904762Y-67654819D01*
X177904762Y-67654819D02*
X177809524Y-67797676D01*
X177809524Y-67797676D02*
X177714286Y-67892914D01*
X177714286Y-67892914D02*
X177619048Y-67940533D01*
X155454819Y-75738094D02*
X154454819Y-75738094D01*
X154454819Y-75738094D02*
X154454819Y-75499999D01*
X154454819Y-75499999D02*
X154502438Y-75357142D01*
X154502438Y-75357142D02*
X154597676Y-75261904D01*
X154597676Y-75261904D02*
X154692914Y-75214285D01*
X154692914Y-75214285D02*
X154883390Y-75166666D01*
X154883390Y-75166666D02*
X155026247Y-75166666D01*
X155026247Y-75166666D02*
X155216723Y-75214285D01*
X155216723Y-75214285D02*
X155311961Y-75261904D01*
X155311961Y-75261904D02*
X155407200Y-75357142D01*
X155407200Y-75357142D02*
X155454819Y-75499999D01*
X155454819Y-75499999D02*
X155454819Y-75738094D01*
X154550057Y-74785713D02*
X154502438Y-74738094D01*
X154502438Y-74738094D02*
X154454819Y-74642856D01*
X154454819Y-74642856D02*
X154454819Y-74404761D01*
X154454819Y-74404761D02*
X154502438Y-74309523D01*
X154502438Y-74309523D02*
X154550057Y-74261904D01*
X154550057Y-74261904D02*
X154645295Y-74214285D01*
X154645295Y-74214285D02*
X154740533Y-74214285D01*
X154740533Y-74214285D02*
X154883390Y-74261904D01*
X154883390Y-74261904D02*
X155454819Y-74833332D01*
X155454819Y-74833332D02*
X155454819Y-74214285D01*
X162859580Y-62666666D02*
X162907200Y-62714285D01*
X162907200Y-62714285D02*
X162954819Y-62857142D01*
X162954819Y-62857142D02*
X162954819Y-62952380D01*
X162954819Y-62952380D02*
X162907200Y-63095237D01*
X162907200Y-63095237D02*
X162811961Y-63190475D01*
X162811961Y-63190475D02*
X162716723Y-63238094D01*
X162716723Y-63238094D02*
X162526247Y-63285713D01*
X162526247Y-63285713D02*
X162383390Y-63285713D01*
X162383390Y-63285713D02*
X162192914Y-63238094D01*
X162192914Y-63238094D02*
X162097676Y-63190475D01*
X162097676Y-63190475D02*
X162002438Y-63095237D01*
X162002438Y-63095237D02*
X161954819Y-62952380D01*
X161954819Y-62952380D02*
X161954819Y-62857142D01*
X161954819Y-62857142D02*
X162002438Y-62714285D01*
X162002438Y-62714285D02*
X162050057Y-62666666D01*
X162954819Y-62190475D02*
X162954819Y-61999999D01*
X162954819Y-61999999D02*
X162907200Y-61904761D01*
X162907200Y-61904761D02*
X162859580Y-61857142D01*
X162859580Y-61857142D02*
X162716723Y-61761904D01*
X162716723Y-61761904D02*
X162526247Y-61714285D01*
X162526247Y-61714285D02*
X162145295Y-61714285D01*
X162145295Y-61714285D02*
X162050057Y-61761904D01*
X162050057Y-61761904D02*
X162002438Y-61809523D01*
X162002438Y-61809523D02*
X161954819Y-61904761D01*
X161954819Y-61904761D02*
X161954819Y-62095237D01*
X161954819Y-62095237D02*
X162002438Y-62190475D01*
X162002438Y-62190475D02*
X162050057Y-62238094D01*
X162050057Y-62238094D02*
X162145295Y-62285713D01*
X162145295Y-62285713D02*
X162383390Y-62285713D01*
X162383390Y-62285713D02*
X162478628Y-62238094D01*
X162478628Y-62238094D02*
X162526247Y-62190475D01*
X162526247Y-62190475D02*
X162573866Y-62095237D01*
X162573866Y-62095237D02*
X162573866Y-61904761D01*
X162573866Y-61904761D02*
X162526247Y-61809523D01*
X162526247Y-61809523D02*
X162478628Y-61761904D01*
X162478628Y-61761904D02*
X162383390Y-61714285D01*
X187209580Y-72666666D02*
X187257200Y-72714285D01*
X187257200Y-72714285D02*
X187304819Y-72857142D01*
X187304819Y-72857142D02*
X187304819Y-72952380D01*
X187304819Y-72952380D02*
X187257200Y-73095237D01*
X187257200Y-73095237D02*
X187161961Y-73190475D01*
X187161961Y-73190475D02*
X187066723Y-73238094D01*
X187066723Y-73238094D02*
X186876247Y-73285713D01*
X186876247Y-73285713D02*
X186733390Y-73285713D01*
X186733390Y-73285713D02*
X186542914Y-73238094D01*
X186542914Y-73238094D02*
X186447676Y-73190475D01*
X186447676Y-73190475D02*
X186352438Y-73095237D01*
X186352438Y-73095237D02*
X186304819Y-72952380D01*
X186304819Y-72952380D02*
X186304819Y-72857142D01*
X186304819Y-72857142D02*
X186352438Y-72714285D01*
X186352438Y-72714285D02*
X186400057Y-72666666D01*
X186733390Y-72095237D02*
X186685771Y-72190475D01*
X186685771Y-72190475D02*
X186638152Y-72238094D01*
X186638152Y-72238094D02*
X186542914Y-72285713D01*
X186542914Y-72285713D02*
X186495295Y-72285713D01*
X186495295Y-72285713D02*
X186400057Y-72238094D01*
X186400057Y-72238094D02*
X186352438Y-72190475D01*
X186352438Y-72190475D02*
X186304819Y-72095237D01*
X186304819Y-72095237D02*
X186304819Y-71904761D01*
X186304819Y-71904761D02*
X186352438Y-71809523D01*
X186352438Y-71809523D02*
X186400057Y-71761904D01*
X186400057Y-71761904D02*
X186495295Y-71714285D01*
X186495295Y-71714285D02*
X186542914Y-71714285D01*
X186542914Y-71714285D02*
X186638152Y-71761904D01*
X186638152Y-71761904D02*
X186685771Y-71809523D01*
X186685771Y-71809523D02*
X186733390Y-71904761D01*
X186733390Y-71904761D02*
X186733390Y-72095237D01*
X186733390Y-72095237D02*
X186781009Y-72190475D01*
X186781009Y-72190475D02*
X186828628Y-72238094D01*
X186828628Y-72238094D02*
X186923866Y-72285713D01*
X186923866Y-72285713D02*
X187114342Y-72285713D01*
X187114342Y-72285713D02*
X187209580Y-72238094D01*
X187209580Y-72238094D02*
X187257200Y-72190475D01*
X187257200Y-72190475D02*
X187304819Y-72095237D01*
X187304819Y-72095237D02*
X187304819Y-71904761D01*
X187304819Y-71904761D02*
X187257200Y-71809523D01*
X187257200Y-71809523D02*
X187209580Y-71761904D01*
X187209580Y-71761904D02*
X187114342Y-71714285D01*
X187114342Y-71714285D02*
X186923866Y-71714285D01*
X186923866Y-71714285D02*
X186828628Y-71761904D01*
X186828628Y-71761904D02*
X186781009Y-71809523D01*
X186781009Y-71809523D02*
X186733390Y-71904761D01*
X175783333Y-81094580D02*
X175735714Y-81142200D01*
X175735714Y-81142200D02*
X175592857Y-81189819D01*
X175592857Y-81189819D02*
X175497619Y-81189819D01*
X175497619Y-81189819D02*
X175354762Y-81142200D01*
X175354762Y-81142200D02*
X175259524Y-81046961D01*
X175259524Y-81046961D02*
X175211905Y-80951723D01*
X175211905Y-80951723D02*
X175164286Y-80761247D01*
X175164286Y-80761247D02*
X175164286Y-80618390D01*
X175164286Y-80618390D02*
X175211905Y-80427914D01*
X175211905Y-80427914D02*
X175259524Y-80332676D01*
X175259524Y-80332676D02*
X175354762Y-80237438D01*
X175354762Y-80237438D02*
X175497619Y-80189819D01*
X175497619Y-80189819D02*
X175592857Y-80189819D01*
X175592857Y-80189819D02*
X175735714Y-80237438D01*
X175735714Y-80237438D02*
X175783333Y-80285057D01*
X176116667Y-80189819D02*
X176783333Y-80189819D01*
X176783333Y-80189819D02*
X176354762Y-81189819D01*
X175783333Y-78594580D02*
X175735714Y-78642200D01*
X175735714Y-78642200D02*
X175592857Y-78689819D01*
X175592857Y-78689819D02*
X175497619Y-78689819D01*
X175497619Y-78689819D02*
X175354762Y-78642200D01*
X175354762Y-78642200D02*
X175259524Y-78546961D01*
X175259524Y-78546961D02*
X175211905Y-78451723D01*
X175211905Y-78451723D02*
X175164286Y-78261247D01*
X175164286Y-78261247D02*
X175164286Y-78118390D01*
X175164286Y-78118390D02*
X175211905Y-77927914D01*
X175211905Y-77927914D02*
X175259524Y-77832676D01*
X175259524Y-77832676D02*
X175354762Y-77737438D01*
X175354762Y-77737438D02*
X175497619Y-77689819D01*
X175497619Y-77689819D02*
X175592857Y-77689819D01*
X175592857Y-77689819D02*
X175735714Y-77737438D01*
X175735714Y-77737438D02*
X175783333Y-77785057D01*
X176640476Y-77689819D02*
X176450000Y-77689819D01*
X176450000Y-77689819D02*
X176354762Y-77737438D01*
X176354762Y-77737438D02*
X176307143Y-77785057D01*
X176307143Y-77785057D02*
X176211905Y-77927914D01*
X176211905Y-77927914D02*
X176164286Y-78118390D01*
X176164286Y-78118390D02*
X176164286Y-78499342D01*
X176164286Y-78499342D02*
X176211905Y-78594580D01*
X176211905Y-78594580D02*
X176259524Y-78642200D01*
X176259524Y-78642200D02*
X176354762Y-78689819D01*
X176354762Y-78689819D02*
X176545238Y-78689819D01*
X176545238Y-78689819D02*
X176640476Y-78642200D01*
X176640476Y-78642200D02*
X176688095Y-78594580D01*
X176688095Y-78594580D02*
X176735714Y-78499342D01*
X176735714Y-78499342D02*
X176735714Y-78261247D01*
X176735714Y-78261247D02*
X176688095Y-78166009D01*
X176688095Y-78166009D02*
X176640476Y-78118390D01*
X176640476Y-78118390D02*
X176545238Y-78070771D01*
X176545238Y-78070771D02*
X176354762Y-78070771D01*
X176354762Y-78070771D02*
X176259524Y-78118390D01*
X176259524Y-78118390D02*
X176211905Y-78166009D01*
X176211905Y-78166009D02*
X176164286Y-78261247D01*
X164833333Y-82659580D02*
X164785714Y-82707200D01*
X164785714Y-82707200D02*
X164642857Y-82754819D01*
X164642857Y-82754819D02*
X164547619Y-82754819D01*
X164547619Y-82754819D02*
X164404762Y-82707200D01*
X164404762Y-82707200D02*
X164309524Y-82611961D01*
X164309524Y-82611961D02*
X164261905Y-82516723D01*
X164261905Y-82516723D02*
X164214286Y-82326247D01*
X164214286Y-82326247D02*
X164214286Y-82183390D01*
X164214286Y-82183390D02*
X164261905Y-81992914D01*
X164261905Y-81992914D02*
X164309524Y-81897676D01*
X164309524Y-81897676D02*
X164404762Y-81802438D01*
X164404762Y-81802438D02*
X164547619Y-81754819D01*
X164547619Y-81754819D02*
X164642857Y-81754819D01*
X164642857Y-81754819D02*
X164785714Y-81802438D01*
X164785714Y-81802438D02*
X164833333Y-81850057D01*
X165166667Y-81754819D02*
X165785714Y-81754819D01*
X165785714Y-81754819D02*
X165452381Y-82135771D01*
X165452381Y-82135771D02*
X165595238Y-82135771D01*
X165595238Y-82135771D02*
X165690476Y-82183390D01*
X165690476Y-82183390D02*
X165738095Y-82231009D01*
X165738095Y-82231009D02*
X165785714Y-82326247D01*
X165785714Y-82326247D02*
X165785714Y-82564342D01*
X165785714Y-82564342D02*
X165738095Y-82659580D01*
X165738095Y-82659580D02*
X165690476Y-82707200D01*
X165690476Y-82707200D02*
X165595238Y-82754819D01*
X165595238Y-82754819D02*
X165309524Y-82754819D01*
X165309524Y-82754819D02*
X165214286Y-82707200D01*
X165214286Y-82707200D02*
X165166667Y-82659580D01*
X164833333Y-77859580D02*
X164785714Y-77907200D01*
X164785714Y-77907200D02*
X164642857Y-77954819D01*
X164642857Y-77954819D02*
X164547619Y-77954819D01*
X164547619Y-77954819D02*
X164404762Y-77907200D01*
X164404762Y-77907200D02*
X164309524Y-77811961D01*
X164309524Y-77811961D02*
X164261905Y-77716723D01*
X164261905Y-77716723D02*
X164214286Y-77526247D01*
X164214286Y-77526247D02*
X164214286Y-77383390D01*
X164214286Y-77383390D02*
X164261905Y-77192914D01*
X164261905Y-77192914D02*
X164309524Y-77097676D01*
X164309524Y-77097676D02*
X164404762Y-77002438D01*
X164404762Y-77002438D02*
X164547619Y-76954819D01*
X164547619Y-76954819D02*
X164642857Y-76954819D01*
X164642857Y-76954819D02*
X164785714Y-77002438D01*
X164785714Y-77002438D02*
X164833333Y-77050057D01*
X165214286Y-77050057D02*
X165261905Y-77002438D01*
X165261905Y-77002438D02*
X165357143Y-76954819D01*
X165357143Y-76954819D02*
X165595238Y-76954819D01*
X165595238Y-76954819D02*
X165690476Y-77002438D01*
X165690476Y-77002438D02*
X165738095Y-77050057D01*
X165738095Y-77050057D02*
X165785714Y-77145295D01*
X165785714Y-77145295D02*
X165785714Y-77240533D01*
X165785714Y-77240533D02*
X165738095Y-77383390D01*
X165738095Y-77383390D02*
X165166667Y-77954819D01*
X165166667Y-77954819D02*
X165785714Y-77954819D01*
X164833333Y-80359580D02*
X164785714Y-80407200D01*
X164785714Y-80407200D02*
X164642857Y-80454819D01*
X164642857Y-80454819D02*
X164547619Y-80454819D01*
X164547619Y-80454819D02*
X164404762Y-80407200D01*
X164404762Y-80407200D02*
X164309524Y-80311961D01*
X164309524Y-80311961D02*
X164261905Y-80216723D01*
X164261905Y-80216723D02*
X164214286Y-80026247D01*
X164214286Y-80026247D02*
X164214286Y-79883390D01*
X164214286Y-79883390D02*
X164261905Y-79692914D01*
X164261905Y-79692914D02*
X164309524Y-79597676D01*
X164309524Y-79597676D02*
X164404762Y-79502438D01*
X164404762Y-79502438D02*
X164547619Y-79454819D01*
X164547619Y-79454819D02*
X164642857Y-79454819D01*
X164642857Y-79454819D02*
X164785714Y-79502438D01*
X164785714Y-79502438D02*
X164833333Y-79550057D01*
X165785714Y-80454819D02*
X165214286Y-80454819D01*
X165500000Y-80454819D02*
X165500000Y-79454819D01*
X165500000Y-79454819D02*
X165404762Y-79597676D01*
X165404762Y-79597676D02*
X165309524Y-79692914D01*
X165309524Y-79692914D02*
X165214286Y-79740533D01*
D12*
%TO.C,C5*%
X171765000Y-65261252D02*
X171765000Y-64738748D01*
X173235000Y-65261252D02*
X173235000Y-64738748D01*
%TO.C,C4*%
X164295000Y-65261252D02*
X164295000Y-64738748D01*
X165765000Y-65261252D02*
X165765000Y-64738748D01*
%TO.C,U1*%
X167465000Y-71137500D02*
X167465000Y-71937500D01*
X167465000Y-71137500D02*
X167465000Y-70337500D01*
X170585000Y-71137500D02*
X170585000Y-71937500D01*
X170585000Y-71137500D02*
X170585000Y-70337500D01*
X167540000Y-72437500D02*
X167210000Y-72677500D01*
X167210000Y-72197500D01*
X167540000Y-72437500D01*
G36*
X167540000Y-72437500D02*
G01*
X167210000Y-72677500D01*
X167210000Y-72197500D01*
X167540000Y-72437500D01*
G37*
%TO.C,R5*%
X162530000Y-67575000D02*
X157460000Y-67575000D01*
X162530000Y-67575000D02*
X162530000Y-77345000D01*
X157460000Y-67575000D02*
X157460000Y-77345000D01*
X162530000Y-77345000D02*
X157460000Y-77345000D01*
%TO.C,R4*%
X159265000Y-65227064D02*
X159265000Y-64772936D01*
X160735000Y-65227064D02*
X160735000Y-64772936D01*
%TO.C,R3*%
X164265000Y-70227064D02*
X164265000Y-69772936D01*
X165735000Y-70227064D02*
X165735000Y-69772936D01*
%TO.C,R2*%
X169265000Y-65227064D02*
X169265000Y-64772936D01*
X170735000Y-65227064D02*
X170735000Y-64772936D01*
%TO.C,R1*%
X168265000Y-64772936D02*
X168265000Y-65227064D01*
X166795000Y-64772936D02*
X166795000Y-65227064D01*
%TO.C,L1*%
X174015000Y-68940000D02*
X174015000Y-70490000D01*
X174015000Y-68940000D02*
X180985000Y-68940000D01*
X174015000Y-76060000D02*
X174015000Y-74510000D01*
X174015000Y-76060000D02*
X180985000Y-76060000D01*
X180985000Y-68940000D02*
X180985000Y-70490000D01*
X180985000Y-76060000D02*
X180985000Y-74510000D01*
%TO.C,D2*%
X150850000Y-78510000D02*
X154150000Y-78510000D01*
X150850000Y-78510000D02*
X150850000Y-73000000D01*
X154150000Y-78510000D02*
X154150000Y-73000000D01*
%TO.C,C9*%
X163235000Y-64738748D02*
X163235000Y-65261252D01*
X161765000Y-64738748D02*
X161765000Y-65261252D01*
%TO.C,C8*%
X185910000Y-71788748D02*
X185910000Y-73211252D01*
X184090000Y-71788748D02*
X184090000Y-73211252D01*
%TO.C,C7*%
X173188748Y-80000000D02*
X173711252Y-80000000D01*
X173188748Y-81470000D02*
X173711252Y-81470000D01*
%TO.C,C6*%
X173188748Y-76990000D02*
X173711252Y-76990000D01*
X173188748Y-78460000D02*
X173711252Y-78460000D01*
%TO.C,C3*%
X169686252Y-83210000D02*
X168263748Y-83210000D01*
X169686252Y-81390000D02*
X168263748Y-81390000D01*
%TO.C,C2*%
X169686252Y-77360000D02*
X168263748Y-77360000D01*
X169686252Y-75540000D02*
X168263748Y-75540000D01*
%TO.C,C1*%
X169686252Y-80710000D02*
X168263748Y-80710000D01*
X169686252Y-78890000D02*
X168263748Y-78890000D01*
%TD*%
M02*
