%TF.GenerationSoftware,KiCad,Pcbnew,8.0.7*%
%TF.CreationDate,2025-01-12T01:40:59+08:00*%
%TF.ProjectId,power,706f7765-722e-46b6-9963-61645f706362,rev?*%
%TF.SameCoordinates,Original*%
%TF.FileFunction,Drillmap*%
%TF.FilePolarity,Positive*%
%FSLAX45Y45*%
G04 Gerber Fmt 4.5, Leading zero omitted, Abs format (unit mm)*
G04 Created by KiCad (PCBNEW 8.0.7) date 2025-01-12 01:40:59*
%MOMM*%
%LPD*%
G01*
G04 APERTURE LIST*
%ADD10C,0.050000*%
%ADD11C,0.200000*%
G04 APERTURE END LIST*
D10*
X15000000Y-6150000D02*
X19000000Y-6150000D01*
X19000000Y-8550000D01*
X15000000Y-8550000D01*
X15000000Y-6150000D01*
D11*
X15258277Y-8863984D02*
X15258277Y-8663984D01*
X15258277Y-8663984D02*
X15305896Y-8663984D01*
X15305896Y-8663984D02*
X15334467Y-8673508D01*
X15334467Y-8673508D02*
X15353515Y-8692555D01*
X15353515Y-8692555D02*
X15363039Y-8711603D01*
X15363039Y-8711603D02*
X15372562Y-8749698D01*
X15372562Y-8749698D02*
X15372562Y-8778270D01*
X15372562Y-8778270D02*
X15363039Y-8816365D01*
X15363039Y-8816365D02*
X15353515Y-8835412D01*
X15353515Y-8835412D02*
X15334467Y-8854460D01*
X15334467Y-8854460D02*
X15305896Y-8863984D01*
X15305896Y-8863984D02*
X15258277Y-8863984D01*
X15458277Y-8863984D02*
X15458277Y-8730650D01*
X15458277Y-8768746D02*
X15467801Y-8749698D01*
X15467801Y-8749698D02*
X15477324Y-8740174D01*
X15477324Y-8740174D02*
X15496372Y-8730650D01*
X15496372Y-8730650D02*
X15515420Y-8730650D01*
X15582086Y-8863984D02*
X15582086Y-8730650D01*
X15582086Y-8663984D02*
X15572562Y-8673508D01*
X15572562Y-8673508D02*
X15582086Y-8683031D01*
X15582086Y-8683031D02*
X15591610Y-8673508D01*
X15591610Y-8673508D02*
X15582086Y-8663984D01*
X15582086Y-8663984D02*
X15582086Y-8683031D01*
X15705896Y-8863984D02*
X15686848Y-8854460D01*
X15686848Y-8854460D02*
X15677324Y-8835412D01*
X15677324Y-8835412D02*
X15677324Y-8663984D01*
X15810658Y-8863984D02*
X15791610Y-8854460D01*
X15791610Y-8854460D02*
X15782086Y-8835412D01*
X15782086Y-8835412D02*
X15782086Y-8663984D01*
X16039229Y-8863984D02*
X16039229Y-8663984D01*
X16039229Y-8663984D02*
X16105896Y-8806841D01*
X16105896Y-8806841D02*
X16172562Y-8663984D01*
X16172562Y-8663984D02*
X16172562Y-8863984D01*
X16353515Y-8863984D02*
X16353515Y-8759222D01*
X16353515Y-8759222D02*
X16343991Y-8740174D01*
X16343991Y-8740174D02*
X16324943Y-8730650D01*
X16324943Y-8730650D02*
X16286848Y-8730650D01*
X16286848Y-8730650D02*
X16267801Y-8740174D01*
X16353515Y-8854460D02*
X16334467Y-8863984D01*
X16334467Y-8863984D02*
X16286848Y-8863984D01*
X16286848Y-8863984D02*
X16267801Y-8854460D01*
X16267801Y-8854460D02*
X16258277Y-8835412D01*
X16258277Y-8835412D02*
X16258277Y-8816365D01*
X16258277Y-8816365D02*
X16267801Y-8797317D01*
X16267801Y-8797317D02*
X16286848Y-8787793D01*
X16286848Y-8787793D02*
X16334467Y-8787793D01*
X16334467Y-8787793D02*
X16353515Y-8778270D01*
X16448753Y-8730650D02*
X16448753Y-8930650D01*
X16448753Y-8740174D02*
X16467801Y-8730650D01*
X16467801Y-8730650D02*
X16505896Y-8730650D01*
X16505896Y-8730650D02*
X16524943Y-8740174D01*
X16524943Y-8740174D02*
X16534467Y-8749698D01*
X16534467Y-8749698D02*
X16543991Y-8768746D01*
X16543991Y-8768746D02*
X16543991Y-8825889D01*
X16543991Y-8825889D02*
X16534467Y-8844936D01*
X16534467Y-8844936D02*
X16524943Y-8854460D01*
X16524943Y-8854460D02*
X16505896Y-8863984D01*
X16505896Y-8863984D02*
X16467801Y-8863984D01*
X16467801Y-8863984D02*
X16448753Y-8854460D01*
X16629705Y-8844936D02*
X16639229Y-8854460D01*
X16639229Y-8854460D02*
X16629705Y-8863984D01*
X16629705Y-8863984D02*
X16620182Y-8854460D01*
X16620182Y-8854460D02*
X16629705Y-8844936D01*
X16629705Y-8844936D02*
X16629705Y-8863984D01*
X16629705Y-8740174D02*
X16639229Y-8749698D01*
X16639229Y-8749698D02*
X16629705Y-8759222D01*
X16629705Y-8759222D02*
X16620182Y-8749698D01*
X16620182Y-8749698D02*
X16629705Y-8740174D01*
X16629705Y-8740174D02*
X16629705Y-8759222D01*
M02*
