%TF.GenerationSoftware,KiCad,Pcbnew,8.0.7*%
%TF.CreationDate,2025-01-12T01:40:55+08:00*%
%TF.ProjectId,power,706f7765-722e-46b6-9963-61645f706362,rev?*%
%TF.SameCoordinates,Original*%
%TF.FileFunction,Copper,L2,Bot*%
%TF.FilePolarity,Positive*%
%FSLAX46Y46*%
G04 Gerber Fmt 4.6, Leading zero omitted, Abs format (unit mm)*
G04 Created by KiCad (PCBNEW 8.0.7) date 2025-01-12 01:40:55*
%MOMM*%
%LPD*%
G01*
G04 APERTURE LIST*
G04 Aperture macros list*
%AMRoundRect*
0 Rectangle with rounded corners*
0 $1 Rounding radius*
0 $2 $3 $4 $5 $6 $7 $8 $9 X,Y pos of 4 corners*
0 Add a 4 corners polygon primitive as box body*
4,1,4,$2,$3,$4,$5,$6,$7,$8,$9,$2,$3,0*
0 Add four circle primitives for the rounded corners*
1,1,$1+$1,$2,$3*
1,1,$1+$1,$4,$5*
1,1,$1+$1,$6,$7*
1,1,$1+$1,$8,$9*
0 Add four rect primitives between the rounded corners*
20,1,$1+$1,$2,$3,$4,$5,0*
20,1,$1+$1,$4,$5,$6,$7,0*
20,1,$1+$1,$6,$7,$8,$9,0*
20,1,$1+$1,$8,$9,$2,$3,0*%
G04 Aperture macros list end*
%TA.AperFunction,ComponentPad*%
%ADD10RoundRect,0.500000X0.500000X-0.500000X0.500000X0.500000X-0.500000X0.500000X-0.500000X-0.500000X0*%
%TD*%
%TA.AperFunction,ComponentPad*%
%ADD11C,2.000000*%
%TD*%
%TA.AperFunction,ComponentPad*%
%ADD12C,1.440000*%
%TD*%
%TA.AperFunction,ViaPad*%
%ADD13C,0.600000*%
%TD*%
%TA.AperFunction,Conductor*%
%ADD14C,0.200000*%
%TD*%
G04 APERTURE END LIST*
D10*
%TO.P,Vin-,1,GND*%
%TO.N,GND*%
X152500000Y-67500000D03*
%TO.P,Vin-,2,GND*%
X152500000Y-64960000D03*
%TD*%
D11*
%TO.P,Vo+,1,Vin*%
%TO.N,Net-(C6-Pad2)*%
X187500000Y-82540000D03*
%TO.P,Vo+,2,Vin*%
X187500000Y-80000000D03*
%TD*%
%TO.P,U3,1,Vin*%
%TO.N,+12V*%
X152500000Y-82540000D03*
%TO.P,U3,2,Vin*%
X152500000Y-80000000D03*
%TD*%
D10*
%TO.P,Vo-,1,GND*%
%TO.N,GND*%
X187500000Y-67500000D03*
%TO.P,Vo-,2,GND*%
X187500000Y-64960000D03*
%TD*%
D12*
%TO.P,R5,1,1*%
%TO.N,Net-(C9-Pad2)*%
X160000000Y-75000000D03*
%TO.P,R5,2,2*%
X160000000Y-72460000D03*
%TO.P,R5,3,3*%
%TO.N,GND*%
X160000000Y-69920000D03*
%TD*%
D13*
%TO.N,GND*%
X170137500Y-72362500D03*
X165000000Y-72500000D03*
%TO.N,+12V*%
X162924264Y-79575736D03*
X167530000Y-63000000D03*
%TO.N,Net-(C6-Pad2)*%
X187500000Y-75000000D03*
X162500000Y-62500000D03*
%TD*%
D14*
%TO.N,+12V*%
X167500000Y-75000000D02*
X162924264Y-79575736D01*
X167500000Y-67500000D02*
X167500000Y-75000000D01*
X167500000Y-63030000D02*
X167500000Y-67500000D01*
X167530000Y-63000000D02*
X167500000Y-63030000D01*
%TO.N,Net-(C6-Pad2)*%
X167500000Y-62500000D02*
X187178642Y-62500000D01*
X188800000Y-64121358D02*
X188800000Y-73700000D01*
X187178642Y-62500000D02*
X188800000Y-64121358D01*
X188800000Y-73700000D02*
X187500000Y-75000000D01*
X162500000Y-62500000D02*
X167500000Y-62500000D01*
%TD*%
%TA.AperFunction,Conductor*%
%TO.N,Net-(C6-Pad2)*%
G36*
X187567809Y-81396873D02*
G01*
X187598523Y-81429020D01*
X187598907Y-81428703D01*
X187603349Y-81434071D01*
X187604231Y-81434995D01*
X187604559Y-81435532D01*
X187604561Y-81435536D01*
X187604563Y-81435538D01*
X187604564Y-81435540D01*
X187639628Y-81477921D01*
X187662861Y-81506001D01*
X187718261Y-81548572D01*
X187769239Y-81577248D01*
X187869720Y-81616175D01*
X187869722Y-81616175D01*
X187934696Y-81641345D01*
X187955168Y-81651538D01*
X188092424Y-81736524D01*
X188110681Y-81750312D01*
X188229969Y-81859057D01*
X188245385Y-81875967D01*
X188342665Y-82004786D01*
X188354711Y-82024241D01*
X188426663Y-82168739D01*
X188426664Y-82168740D01*
X188434930Y-82190078D01*
X188479104Y-82345333D01*
X188483309Y-82367826D01*
X188498202Y-82528558D01*
X188498202Y-82551440D01*
X188483309Y-82712170D01*
X188479104Y-82734664D01*
X188434929Y-82889920D01*
X188426663Y-82911257D01*
X188354710Y-83055758D01*
X188342664Y-83075213D01*
X188245388Y-83204027D01*
X188229972Y-83220937D01*
X188110677Y-83329689D01*
X188092416Y-83343479D01*
X187955176Y-83428454D01*
X187934693Y-83438653D01*
X187784181Y-83496962D01*
X187762173Y-83503224D01*
X187603492Y-83532888D01*
X187580706Y-83535000D01*
X187419294Y-83535000D01*
X187396508Y-83532889D01*
X187237830Y-83503226D01*
X187215822Y-83496964D01*
X187065304Y-83438653D01*
X187044820Y-83428453D01*
X187016678Y-83411028D01*
X186907575Y-83343474D01*
X186889316Y-83329685D01*
X186770028Y-83220940D01*
X186754612Y-83204030D01*
X186657332Y-83075211D01*
X186645286Y-83055756D01*
X186573331Y-82911250D01*
X186565073Y-82889937D01*
X186520891Y-82734653D01*
X186516689Y-82712169D01*
X186501796Y-82551440D01*
X186501796Y-82528558D01*
X186516689Y-82367828D01*
X186520890Y-82345346D01*
X186565075Y-82190056D01*
X186573329Y-82168750D01*
X186645289Y-82024235D01*
X186657328Y-82004792D01*
X186754615Y-81875962D01*
X186770024Y-81859060D01*
X186889323Y-81750306D01*
X186907567Y-81736528D01*
X187044823Y-81651543D01*
X187065294Y-81641349D01*
X187082724Y-81634598D01*
X187082723Y-81634597D01*
X187145308Y-81610354D01*
X187145374Y-81610325D01*
X187230768Y-81577245D01*
X187241904Y-81572550D01*
X187255151Y-81566500D01*
X187313248Y-81526702D01*
X187363272Y-81477923D01*
X187380162Y-81459306D01*
X187386819Y-81445567D01*
X187433765Y-81393819D01*
X187501235Y-81375666D01*
X187567809Y-81396873D01*
G37*
%TD.AperFunction*%
%TA.AperFunction,Conductor*%
G36*
X187603492Y-79007110D02*
G01*
X187762174Y-79036773D01*
X187784178Y-79043035D01*
X187878866Y-79079718D01*
X187934699Y-79101348D01*
X187955177Y-79111544D01*
X188092424Y-79196524D01*
X188110681Y-79210312D01*
X188229969Y-79319057D01*
X188245385Y-79335967D01*
X188342665Y-79464786D01*
X188354711Y-79484241D01*
X188426663Y-79628739D01*
X188426664Y-79628740D01*
X188434929Y-79650076D01*
X188452749Y-79712707D01*
X188479104Y-79805333D01*
X188483309Y-79827826D01*
X188498202Y-79988558D01*
X188498202Y-80011440D01*
X188483309Y-80172170D01*
X188479104Y-80194664D01*
X188434929Y-80349920D01*
X188426663Y-80371257D01*
X188354710Y-80515758D01*
X188342664Y-80535213D01*
X188245388Y-80664027D01*
X188229973Y-80680937D01*
X188110678Y-80789690D01*
X188092416Y-80803480D01*
X187955179Y-80888452D01*
X187934697Y-80898651D01*
X187769245Y-80962748D01*
X187758082Y-80967455D01*
X187744832Y-80973508D01*
X187686758Y-81013292D01*
X187686751Y-81013297D01*
X187636738Y-81062066D01*
X187636727Y-81062077D01*
X187628199Y-81071477D01*
X187619836Y-81080695D01*
X187619835Y-81080698D01*
X187613178Y-81094437D01*
X187566230Y-81146184D01*
X187498759Y-81164334D01*
X187432186Y-81143125D01*
X187401478Y-81110981D01*
X187401094Y-81111300D01*
X187396640Y-81105917D01*
X187395768Y-81105004D01*
X187395438Y-81104463D01*
X187337138Y-81033999D01*
X187337137Y-81033998D01*
X187281739Y-80991428D01*
X187281735Y-80991425D01*
X187230765Y-80962753D01*
X187230748Y-80962745D01*
X187065304Y-80898652D01*
X187044820Y-80888453D01*
X186907576Y-80803475D01*
X186889316Y-80789685D01*
X186770028Y-80680940D01*
X186754612Y-80664030D01*
X186657332Y-80535211D01*
X186645286Y-80515756D01*
X186573331Y-80371250D01*
X186565073Y-80349937D01*
X186520891Y-80194653D01*
X186516689Y-80172169D01*
X186501796Y-80011440D01*
X186501796Y-79988558D01*
X186516689Y-79827828D01*
X186520890Y-79805346D01*
X186565075Y-79650056D01*
X186573329Y-79628750D01*
X186645289Y-79484235D01*
X186657328Y-79464792D01*
X186754615Y-79335962D01*
X186770024Y-79319060D01*
X186889323Y-79210306D01*
X186907567Y-79196528D01*
X187044828Y-79111539D01*
X187065295Y-79101348D01*
X187121136Y-79079717D01*
X187215829Y-79043032D01*
X187237821Y-79036774D01*
X187396507Y-79007110D01*
X187419292Y-79005000D01*
X187580708Y-79005000D01*
X187603492Y-79007110D01*
G37*
%TD.AperFunction*%
%TA.AperFunction,Conductor*%
G36*
X187942833Y-74543447D02*
G01*
X187981012Y-74601963D01*
X187981494Y-74671831D01*
X187974717Y-74690002D01*
X187911848Y-74825192D01*
X187897946Y-74855086D01*
X187792942Y-75080876D01*
X187784883Y-75095357D01*
X187784903Y-75095369D01*
X187784896Y-75095380D01*
X187784930Y-75095401D01*
X187784241Y-75096509D01*
X187784206Y-75096574D01*
X187784128Y-75096692D01*
X187784112Y-75096718D01*
X187771386Y-75118434D01*
X187771375Y-75118454D01*
X187761763Y-75136950D01*
X187761751Y-75136974D01*
X187758126Y-75144913D01*
X187739044Y-75174604D01*
X187706843Y-75211765D01*
X187680172Y-75234876D01*
X187638803Y-75261463D01*
X187606697Y-75276125D01*
X187583109Y-75283051D01*
X187559520Y-75289977D01*
X187524587Y-75295000D01*
X187475412Y-75295000D01*
X187440479Y-75289977D01*
X187393299Y-75276124D01*
X187361196Y-75261463D01*
X187319825Y-75234875D01*
X187293153Y-75211764D01*
X187260953Y-75174604D01*
X187241870Y-75144909D01*
X187238246Y-75136974D01*
X187224082Y-75105957D01*
X187221443Y-75100178D01*
X187211501Y-75066320D01*
X187204502Y-75017638D01*
X187204502Y-74982360D01*
X187211501Y-74933672D01*
X187221442Y-74899820D01*
X187241873Y-74855081D01*
X187260948Y-74825400D01*
X187293159Y-74788227D01*
X187319827Y-74765118D01*
X187379654Y-74726671D01*
X187394386Y-74718560D01*
X187809992Y-74525281D01*
X187879078Y-74514861D01*
X187942833Y-74543447D01*
G37*
%TD.AperFunction*%
%TD*%
%TA.AperFunction,Conductor*%
%TO.N,GND*%
G36*
X162066080Y-62020185D02*
G01*
X162111835Y-62072989D01*
X162121779Y-62142147D01*
X162092754Y-62205702D01*
X162074623Y-62226627D01*
X162074622Y-62226628D01*
X162014834Y-62357543D01*
X161994353Y-62500000D01*
X162014834Y-62642456D01*
X162074622Y-62773371D01*
X162074623Y-62773373D01*
X162168872Y-62882143D01*
X162289947Y-62959953D01*
X162289950Y-62959954D01*
X162289949Y-62959954D01*
X162397107Y-62991417D01*
X162426336Y-63000000D01*
X162428036Y-63000499D01*
X162428038Y-63000500D01*
X162428039Y-63000500D01*
X162571961Y-63000500D01*
X162671906Y-62971153D01*
X162687846Y-62967595D01*
X162689605Y-62967322D01*
X162695790Y-62966364D01*
X163050570Y-62836819D01*
X163129436Y-62808022D01*
X163171967Y-62800500D01*
X166909933Y-62800500D01*
X166976972Y-62820185D01*
X167022727Y-62872989D01*
X167032671Y-62942147D01*
X167024353Y-63000000D01*
X167044834Y-63142456D01*
X167044835Y-63142457D01*
X167049702Y-63153115D01*
X167058439Y-63180010D01*
X167059504Y-63185271D01*
X167157727Y-63505130D01*
X167157728Y-63505133D01*
X167194037Y-63623369D01*
X167199500Y-63659770D01*
X167199500Y-74824166D01*
X167179815Y-74891205D01*
X167163181Y-74911847D01*
X163186933Y-78888094D01*
X163151541Y-78912849D01*
X162727735Y-79109942D01*
X162727462Y-79109355D01*
X162722079Y-79111672D01*
X162722275Y-79112100D01*
X162714205Y-79115785D01*
X162593140Y-79193589D01*
X162593138Y-79193591D01*
X162498887Y-79302362D01*
X162498886Y-79302364D01*
X162439098Y-79433279D01*
X162418617Y-79575736D01*
X162439098Y-79718192D01*
X162461417Y-79767062D01*
X162498887Y-79849109D01*
X162593136Y-79957879D01*
X162714211Y-80035689D01*
X162714214Y-80035690D01*
X162714213Y-80035690D01*
X162852300Y-80076235D01*
X162852302Y-80076236D01*
X162852303Y-80076236D01*
X162996226Y-80076236D01*
X162996226Y-80076235D01*
X163134317Y-80035689D01*
X163189852Y-79999999D01*
X186294357Y-79999999D01*
X186294357Y-80000000D01*
X186314884Y-80221535D01*
X186314885Y-80221537D01*
X186375769Y-80435523D01*
X186375775Y-80435538D01*
X186474938Y-80634683D01*
X186474943Y-80634691D01*
X186609020Y-80812238D01*
X186773437Y-80962123D01*
X186773439Y-80962125D01*
X186962595Y-81079245D01*
X186962596Y-81079245D01*
X186962599Y-81079247D01*
X187156524Y-81154374D01*
X187211924Y-81196946D01*
X187235515Y-81262713D01*
X187219804Y-81330793D01*
X187169780Y-81379572D01*
X187156533Y-81385622D01*
X187008488Y-81442975D01*
X186962601Y-81460752D01*
X186962595Y-81460754D01*
X186773439Y-81577874D01*
X186773437Y-81577876D01*
X186609020Y-81727761D01*
X186474943Y-81905308D01*
X186474938Y-81905316D01*
X186375775Y-82104461D01*
X186375769Y-82104476D01*
X186314885Y-82318462D01*
X186314884Y-82318464D01*
X186294357Y-82539999D01*
X186294357Y-82540000D01*
X186314884Y-82761535D01*
X186314885Y-82761537D01*
X186375769Y-82975523D01*
X186375775Y-82975538D01*
X186474938Y-83174683D01*
X186474943Y-83174691D01*
X186609020Y-83352238D01*
X186773437Y-83502123D01*
X186773439Y-83502125D01*
X186962595Y-83619245D01*
X186962596Y-83619245D01*
X186962599Y-83619247D01*
X187170060Y-83699618D01*
X187388757Y-83740500D01*
X187388759Y-83740500D01*
X187611241Y-83740500D01*
X187611243Y-83740500D01*
X187829940Y-83699618D01*
X188037401Y-83619247D01*
X188226562Y-83502124D01*
X188390981Y-83352236D01*
X188525058Y-83174689D01*
X188624229Y-82975528D01*
X188685115Y-82761536D01*
X188705643Y-82540000D01*
X188685115Y-82318464D01*
X188624229Y-82104472D01*
X188624224Y-82104461D01*
X188525061Y-81905316D01*
X188525056Y-81905308D01*
X188390979Y-81727761D01*
X188226562Y-81577876D01*
X188226560Y-81577874D01*
X188037404Y-81460754D01*
X188037395Y-81460750D01*
X187943956Y-81424552D01*
X187843475Y-81385625D01*
X187788075Y-81343054D01*
X187764484Y-81277288D01*
X187780195Y-81209207D01*
X187830219Y-81160428D01*
X187843466Y-81154377D01*
X188037401Y-81079247D01*
X188226562Y-80962124D01*
X188390981Y-80812236D01*
X188525058Y-80634689D01*
X188624229Y-80435528D01*
X188685115Y-80221536D01*
X188705643Y-80000000D01*
X188685115Y-79778464D01*
X188624229Y-79564472D01*
X188624224Y-79564461D01*
X188525061Y-79365316D01*
X188525056Y-79365308D01*
X188390979Y-79187761D01*
X188226562Y-79037876D01*
X188226560Y-79037874D01*
X188037404Y-78920754D01*
X188037398Y-78920752D01*
X188016998Y-78912849D01*
X187829940Y-78840382D01*
X187611243Y-78799500D01*
X187388757Y-78799500D01*
X187170060Y-78840382D01*
X187046901Y-78888094D01*
X186962601Y-78920752D01*
X186962595Y-78920754D01*
X186773439Y-79037874D01*
X186773437Y-79037876D01*
X186609020Y-79187761D01*
X186474943Y-79365308D01*
X186474938Y-79365316D01*
X186375775Y-79564461D01*
X186375769Y-79564476D01*
X186314885Y-79778462D01*
X186314884Y-79778464D01*
X186294357Y-79999999D01*
X163189852Y-79999999D01*
X163255392Y-79957879D01*
X163349641Y-79849109D01*
X163372948Y-79798071D01*
X163385668Y-79776366D01*
X163392477Y-79767062D01*
X163415204Y-79718193D01*
X163579310Y-79365311D01*
X163587147Y-79348458D01*
X163611898Y-79313071D01*
X167740460Y-75184511D01*
X167761348Y-75148332D01*
X167780021Y-75115989D01*
X167800500Y-75039562D01*
X167800500Y-67460438D01*
X167800500Y-63673767D01*
X167810680Y-63624564D01*
X167991018Y-63207395D01*
X167991026Y-63207375D01*
X167991094Y-63207219D01*
X167991644Y-63205935D01*
X167991700Y-63205803D01*
X167993319Y-63197900D01*
X168001998Y-63171286D01*
X168015165Y-63142457D01*
X168035647Y-63000000D01*
X168027329Y-62942146D01*
X168037273Y-62872988D01*
X168083028Y-62820184D01*
X168150067Y-62800500D01*
X187002809Y-62800500D01*
X187069848Y-62820185D01*
X187090490Y-62836819D01*
X188463181Y-64209510D01*
X188496666Y-64270833D01*
X188499500Y-64297191D01*
X188499500Y-73524166D01*
X188479815Y-73591205D01*
X188463181Y-73611847D01*
X187762669Y-74312358D01*
X187727277Y-74337113D01*
X187303471Y-74534206D01*
X187303198Y-74533619D01*
X187297815Y-74535936D01*
X187298011Y-74536364D01*
X187289941Y-74540049D01*
X187168876Y-74617853D01*
X187168874Y-74617855D01*
X187074623Y-74726626D01*
X187074622Y-74726628D01*
X187014834Y-74857543D01*
X186994353Y-75000000D01*
X187014834Y-75142456D01*
X187037153Y-75191326D01*
X187074623Y-75273373D01*
X187168872Y-75382143D01*
X187289947Y-75459953D01*
X187289950Y-75459954D01*
X187289949Y-75459954D01*
X187428036Y-75500499D01*
X187428038Y-75500500D01*
X187428039Y-75500500D01*
X187571962Y-75500500D01*
X187571962Y-75500499D01*
X187710053Y-75459953D01*
X187831128Y-75382143D01*
X187925377Y-75273373D01*
X187948684Y-75222335D01*
X187961404Y-75200630D01*
X187968213Y-75191326D01*
X187971382Y-75184513D01*
X188098184Y-74911847D01*
X188162883Y-74772722D01*
X188187634Y-74737335D01*
X189040460Y-73884511D01*
X189080022Y-73815988D01*
X189100500Y-73739562D01*
X189100500Y-73660438D01*
X189100500Y-64081796D01*
X189080021Y-64005369D01*
X189080017Y-64005362D01*
X189040464Y-63936853D01*
X189040458Y-63936845D01*
X187363154Y-62259541D01*
X187363149Y-62259537D01*
X187349877Y-62251875D01*
X187349875Y-62251874D01*
X187315255Y-62231886D01*
X187267041Y-62181321D01*
X187253817Y-62112714D01*
X187279785Y-62047849D01*
X187336699Y-62007320D01*
X187377256Y-62000500D01*
X189375500Y-62000500D01*
X189442539Y-62020185D01*
X189488294Y-62072989D01*
X189499500Y-62124500D01*
X189499500Y-84875500D01*
X189479815Y-84942539D01*
X189427011Y-84988294D01*
X189375500Y-84999500D01*
X150624500Y-84999500D01*
X150557461Y-84979815D01*
X150511706Y-84927011D01*
X150500500Y-84875500D01*
X150500500Y-79999999D01*
X151294357Y-79999999D01*
X151294357Y-80000000D01*
X151314884Y-80221535D01*
X151314885Y-80221537D01*
X151375769Y-80435523D01*
X151375775Y-80435538D01*
X151474938Y-80634683D01*
X151474943Y-80634691D01*
X151609020Y-80812238D01*
X151773437Y-80962123D01*
X151773439Y-80962125D01*
X151962595Y-81079245D01*
X151962596Y-81079245D01*
X151962599Y-81079247D01*
X152156524Y-81154374D01*
X152211924Y-81196946D01*
X152235515Y-81262713D01*
X152219804Y-81330793D01*
X152169780Y-81379572D01*
X152156533Y-81385622D01*
X152008488Y-81442975D01*
X151962601Y-81460752D01*
X151962595Y-81460754D01*
X151773439Y-81577874D01*
X151773437Y-81577876D01*
X151609020Y-81727761D01*
X151474943Y-81905308D01*
X151474938Y-81905316D01*
X151375775Y-82104461D01*
X151375769Y-82104476D01*
X151314885Y-82318462D01*
X151314884Y-82318464D01*
X151294357Y-82539999D01*
X151294357Y-82540000D01*
X151314884Y-82761535D01*
X151314885Y-82761537D01*
X151375769Y-82975523D01*
X151375775Y-82975538D01*
X151474938Y-83174683D01*
X151474943Y-83174691D01*
X151609020Y-83352238D01*
X151773437Y-83502123D01*
X151773439Y-83502125D01*
X151962595Y-83619245D01*
X151962596Y-83619245D01*
X151962599Y-83619247D01*
X152170060Y-83699618D01*
X152388757Y-83740500D01*
X152388759Y-83740500D01*
X152611241Y-83740500D01*
X152611243Y-83740500D01*
X152829940Y-83699618D01*
X153037401Y-83619247D01*
X153226562Y-83502124D01*
X153390981Y-83352236D01*
X153525058Y-83174689D01*
X153624229Y-82975528D01*
X153685115Y-82761536D01*
X153705643Y-82540000D01*
X153685115Y-82318464D01*
X153624229Y-82104472D01*
X153624224Y-82104461D01*
X153525061Y-81905316D01*
X153525056Y-81905308D01*
X153390979Y-81727761D01*
X153226562Y-81577876D01*
X153226560Y-81577874D01*
X153037404Y-81460754D01*
X153037395Y-81460750D01*
X152943956Y-81424552D01*
X152843475Y-81385625D01*
X152788075Y-81343054D01*
X152764484Y-81277288D01*
X152780195Y-81209207D01*
X152830219Y-81160428D01*
X152843466Y-81154377D01*
X153037401Y-81079247D01*
X153226562Y-80962124D01*
X153390981Y-80812236D01*
X153525058Y-80634689D01*
X153624229Y-80435528D01*
X153685115Y-80221536D01*
X153705643Y-80000000D01*
X153685115Y-79778464D01*
X153624229Y-79564472D01*
X153624224Y-79564461D01*
X153525061Y-79365316D01*
X153525056Y-79365308D01*
X153390979Y-79187761D01*
X153226562Y-79037876D01*
X153226560Y-79037874D01*
X153037404Y-78920754D01*
X153037398Y-78920752D01*
X153016998Y-78912849D01*
X152829940Y-78840382D01*
X152611243Y-78799500D01*
X152388757Y-78799500D01*
X152170060Y-78840382D01*
X152046901Y-78888094D01*
X151962601Y-78920752D01*
X151962595Y-78920754D01*
X151773439Y-79037874D01*
X151773437Y-79037876D01*
X151609020Y-79187761D01*
X151474943Y-79365308D01*
X151474938Y-79365316D01*
X151375775Y-79564461D01*
X151375769Y-79564476D01*
X151314885Y-79778462D01*
X151314884Y-79778464D01*
X151294357Y-79999999D01*
X150500500Y-79999999D01*
X150500500Y-75000000D01*
X159074430Y-75000000D01*
X159094656Y-75192439D01*
X159094657Y-75192441D01*
X159154447Y-75376456D01*
X159154450Y-75376463D01*
X159251197Y-75544035D01*
X159380667Y-75687828D01*
X159380674Y-75687834D01*
X159537210Y-75801564D01*
X159537211Y-75801564D01*
X159537215Y-75801567D01*
X159681377Y-75865752D01*
X159713978Y-75880267D01*
X159713983Y-75880269D01*
X159903252Y-75920500D01*
X160096748Y-75920500D01*
X160286017Y-75880269D01*
X160462785Y-75801567D01*
X160619327Y-75687833D01*
X160748802Y-75544036D01*
X160845550Y-75376463D01*
X160905344Y-75192437D01*
X160925570Y-75000000D01*
X160905344Y-74807563D01*
X160845550Y-74623537D01*
X160748802Y-74455964D01*
X160619332Y-74312171D01*
X160619325Y-74312165D01*
X160462789Y-74198435D01*
X160462786Y-74198433D01*
X160462785Y-74198433D01*
X160398598Y-74169855D01*
X160286021Y-74119732D01*
X160286016Y-74119730D01*
X160096748Y-74079500D01*
X159903252Y-74079500D01*
X159713983Y-74119730D01*
X159713978Y-74119732D01*
X159537215Y-74198433D01*
X159537210Y-74198435D01*
X159380674Y-74312165D01*
X159380667Y-74312171D01*
X159251197Y-74455964D01*
X159154450Y-74623536D01*
X159154447Y-74623543D01*
X159094657Y-74807558D01*
X159094656Y-74807560D01*
X159074430Y-75000000D01*
X150500500Y-75000000D01*
X150500500Y-72460000D01*
X159074430Y-72460000D01*
X159094656Y-72652439D01*
X159094657Y-72652441D01*
X159154447Y-72836456D01*
X159154450Y-72836463D01*
X159251197Y-73004035D01*
X159380667Y-73147828D01*
X159380674Y-73147834D01*
X159537210Y-73261564D01*
X159537211Y-73261564D01*
X159537215Y-73261567D01*
X159681377Y-73325752D01*
X159713978Y-73340267D01*
X159713983Y-73340269D01*
X159903252Y-73380500D01*
X160096748Y-73380500D01*
X160286017Y-73340269D01*
X160462785Y-73261567D01*
X160619327Y-73147833D01*
X160748802Y-73004036D01*
X160845550Y-72836463D01*
X160905344Y-72652437D01*
X160925570Y-72460000D01*
X160905344Y-72267563D01*
X160845550Y-72083537D01*
X160748802Y-71915964D01*
X160619332Y-71772171D01*
X160619325Y-71772165D01*
X160462789Y-71658435D01*
X160462786Y-71658433D01*
X160462785Y-71658433D01*
X160398598Y-71629855D01*
X160286021Y-71579732D01*
X160286016Y-71579730D01*
X160096748Y-71539500D01*
X159903252Y-71539500D01*
X159713983Y-71579730D01*
X159713978Y-71579732D01*
X159537215Y-71658433D01*
X159537210Y-71658435D01*
X159380674Y-71772165D01*
X159380667Y-71772171D01*
X159251197Y-71915964D01*
X159154450Y-72083536D01*
X159154447Y-72083543D01*
X159094657Y-72267558D01*
X159094656Y-72267560D01*
X159074430Y-72460000D01*
X150500500Y-72460000D01*
X150500500Y-62124500D01*
X150520185Y-62057461D01*
X150572989Y-62011706D01*
X150624500Y-62000500D01*
X161999041Y-62000500D01*
X162066080Y-62020185D01*
G37*
%TD.AperFunction*%
%TD*%
%TA.AperFunction,Conductor*%
%TO.N,+12V*%
G36*
X163283603Y-79086548D02*
G01*
X163413451Y-79216396D01*
X163416878Y-79224669D01*
X163415787Y-79229603D01*
X163206141Y-79680406D01*
X163199545Y-79686462D01*
X163191088Y-79686295D01*
X162928079Y-79578299D01*
X162921727Y-79571987D01*
X162921700Y-79571920D01*
X162813704Y-79308911D01*
X162813731Y-79299956D01*
X162819590Y-79293860D01*
X163270398Y-79084211D01*
X163279343Y-79083831D01*
X163283603Y-79086548D01*
G37*
%TD.AperFunction*%
%TD*%
%TA.AperFunction,Conductor*%
%TO.N,+12V*%
G36*
X167796236Y-63110239D02*
G01*
X167802547Y-63116590D01*
X167802520Y-63125545D01*
X167802464Y-63125677D01*
X167603049Y-63586978D01*
X167596623Y-63593210D01*
X167592312Y-63594033D01*
X167408647Y-63594033D01*
X167400374Y-63590606D01*
X167397462Y-63585768D01*
X167356890Y-63453651D01*
X167255950Y-63124945D01*
X167256798Y-63116031D01*
X167262623Y-63110715D01*
X167525490Y-63000883D01*
X167534444Y-63000857D01*
X167796236Y-63110239D01*
G37*
%TD.AperFunction*%
%TD*%
%TA.AperFunction,Conductor*%
%TO.N,Net-(C6-Pad2)*%
G36*
X187859339Y-74510812D02*
G01*
X187989187Y-74640660D01*
X187992614Y-74648933D01*
X187991523Y-74653867D01*
X187781877Y-75104670D01*
X187775281Y-75110726D01*
X187766824Y-75110559D01*
X187503815Y-75002563D01*
X187497463Y-74996251D01*
X187497436Y-74996184D01*
X187389440Y-74733175D01*
X187389467Y-74724220D01*
X187395326Y-74718124D01*
X187846134Y-74508475D01*
X187855079Y-74508095D01*
X187859339Y-74510812D01*
G37*
%TD.AperFunction*%
%TD*%
%TA.AperFunction,Conductor*%
%TO.N,Net-(C6-Pad2)*%
G36*
X163092313Y-62397193D02*
G01*
X163098909Y-62403249D01*
X163100000Y-62408183D01*
X163100000Y-62591816D01*
X163096573Y-62600089D01*
X163092313Y-62602806D01*
X162625305Y-62773330D01*
X162616358Y-62772949D01*
X162610496Y-62766851D01*
X162500883Y-62504509D01*
X162500857Y-62495556D01*
X162500862Y-62495542D01*
X162610496Y-62233147D01*
X162616848Y-62226836D01*
X162625302Y-62226669D01*
X163092313Y-62397193D01*
G37*
%TD.AperFunction*%
%TD*%
M02*
