%TF.GenerationSoftware,KiCad,Pcbnew,8.0.7*%
%TF.CreationDate,2025-01-12T01:40:55+08:00*%
%TF.ProjectId,power,706f7765-722e-46b6-9963-61645f706362,rev?*%
%TF.SameCoordinates,Original*%
%TF.FileFunction,Copper,L1,Top*%
%TF.FilePolarity,Positive*%
%FSLAX46Y46*%
G04 Gerber Fmt 4.6, Leading zero omitted, Abs format (unit mm)*
G04 Created by KiCad (PCBNEW 8.0.7) date 2025-01-12 01:40:55*
%MOMM*%
%LPD*%
G01*
G04 APERTURE LIST*
G04 Aperture macros list*
%AMRoundRect*
0 Rectangle with rounded corners*
0 $1 Rounding radius*
0 $2 $3 $4 $5 $6 $7 $8 $9 X,Y pos of 4 corners*
0 Add a 4 corners polygon primitive as box body*
4,1,4,$2,$3,$4,$5,$6,$7,$8,$9,$2,$3,0*
0 Add four circle primitives for the rounded corners*
1,1,$1+$1,$2,$3*
1,1,$1+$1,$4,$5*
1,1,$1+$1,$6,$7*
1,1,$1+$1,$8,$9*
0 Add four rect primitives between the rounded corners*
20,1,$1+$1,$2,$3,$4,$5,0*
20,1,$1+$1,$4,$5,$6,$7,0*
20,1,$1+$1,$6,$7,$8,$9,0*
20,1,$1+$1,$8,$9,$2,$3,0*%
G04 Aperture macros list end*
%TA.AperFunction,SMDPad,CuDef*%
%ADD10RoundRect,0.250000X0.475000X-0.250000X0.475000X0.250000X-0.475000X0.250000X-0.475000X-0.250000X0*%
%TD*%
%TA.AperFunction,ComponentPad*%
%ADD11RoundRect,0.500000X0.500000X-0.500000X0.500000X0.500000X-0.500000X0.500000X-0.500000X-0.500000X0*%
%TD*%
%TA.AperFunction,ComponentPad*%
%ADD12C,2.000000*%
%TD*%
%TA.AperFunction,SMDPad,CuDef*%
%ADD13RoundRect,0.125000X0.125000X-0.537500X0.125000X0.537500X-0.125000X0.537500X-0.125000X-0.537500X0*%
%TD*%
%TA.AperFunction,ComponentPad*%
%ADD14C,1.440000*%
%TD*%
%TA.AperFunction,SMDPad,CuDef*%
%ADD15RoundRect,0.250000X0.450000X-0.262500X0.450000X0.262500X-0.450000X0.262500X-0.450000X-0.262500X0*%
%TD*%
%TA.AperFunction,SMDPad,CuDef*%
%ADD16RoundRect,0.250000X-0.450000X0.262500X-0.450000X-0.262500X0.450000X-0.262500X0.450000X0.262500X0*%
%TD*%
%TA.AperFunction,SMDPad,CuDef*%
%ADD17RoundRect,0.587500X-0.587500X-1.162500X0.587500X-1.162500X0.587500X1.162500X-0.587500X1.162500X0*%
%TD*%
%TA.AperFunction,SMDPad,CuDef*%
%ADD18RoundRect,0.250000X0.650000X-1.000000X0.650000X1.000000X-0.650000X1.000000X-0.650000X-1.000000X0*%
%TD*%
%TA.AperFunction,SMDPad,CuDef*%
%ADD19RoundRect,0.250000X-0.475000X0.250000X-0.475000X-0.250000X0.475000X-0.250000X0.475000X0.250000X0*%
%TD*%
%TA.AperFunction,SMDPad,CuDef*%
%ADD20RoundRect,0.250000X-0.650000X0.325000X-0.650000X-0.325000X0.650000X-0.325000X0.650000X0.325000X0*%
%TD*%
%TA.AperFunction,SMDPad,CuDef*%
%ADD21RoundRect,0.250000X-0.250000X-0.475000X0.250000X-0.475000X0.250000X0.475000X-0.250000X0.475000X0*%
%TD*%
%TA.AperFunction,SMDPad,CuDef*%
%ADD22RoundRect,0.250000X0.325000X0.650000X-0.325000X0.650000X-0.325000X-0.650000X0.325000X-0.650000X0*%
%TD*%
%TA.AperFunction,ViaPad*%
%ADD23C,0.600000*%
%TD*%
%TA.AperFunction,Conductor*%
%ADD24C,0.500000*%
%TD*%
%TA.AperFunction,Conductor*%
%ADD25C,0.300000*%
%TD*%
%TA.AperFunction,Conductor*%
%ADD26C,2.000000*%
%TD*%
%TA.AperFunction,Conductor*%
%ADD27C,0.200000*%
%TD*%
%TA.AperFunction,Conductor*%
%ADD28C,1.500000*%
%TD*%
G04 APERTURE END LIST*
D10*
%TO.P,C5,1*%
%TO.N,Net-(U1-SW)*%
X172500000Y-65950000D03*
%TO.P,C5,2*%
%TO.N,Net-(C5-Pad2)*%
X172500000Y-64050000D03*
%TD*%
%TO.P,C4,1*%
%TO.N,Net-(U1-VCC)*%
X165030000Y-65950000D03*
%TO.P,C4,2*%
%TO.N,GND*%
X165030000Y-64050000D03*
%TD*%
D11*
%TO.P,Vin-,1,GND*%
%TO.N,GND*%
X152500000Y-67500000D03*
%TO.P,Vin-,2,GND*%
X152500000Y-64960000D03*
%TD*%
D12*
%TO.P,Vo+,1,Vin*%
%TO.N,Net-(C6-Pad2)*%
X187500000Y-82540000D03*
%TO.P,Vo+,2,Vin*%
X187500000Y-80000000D03*
%TD*%
%TO.P,U3,1,Vin*%
%TO.N,+12V*%
X152500000Y-82540000D03*
%TO.P,U3,2,Vin*%
X152500000Y-80000000D03*
%TD*%
D11*
%TO.P,Vo-,1,GND*%
%TO.N,GND*%
X187500000Y-67500000D03*
%TO.P,Vo-,2,GND*%
X187500000Y-64960000D03*
%TD*%
D13*
%TO.P,U1,1,AGND*%
%TO.N,GND*%
X168050000Y-72275000D03*
%TO.P,U1,2,IN*%
%TO.N,+12V*%
X168700000Y-72275000D03*
%TO.P,U1,3,SW*%
%TO.N,Net-(U1-SW)*%
X169350000Y-72275000D03*
%TO.P,U1,4,GND*%
%TO.N,GND*%
X170000000Y-72275000D03*
%TO.P,U1,5,BST*%
%TO.N,Net-(U1-BST)*%
X170000000Y-70000000D03*
%TO.P,U1,6,EN*%
%TO.N,Net-(U1-EN)*%
X169350000Y-70000000D03*
%TO.P,U1,7,VCC*%
%TO.N,Net-(U1-VCC)*%
X168700000Y-70000000D03*
%TO.P,U1,8,FB*%
%TO.N,Net-(U1-FB)*%
X168050000Y-70000000D03*
%TD*%
D14*
%TO.P,R5,1,1*%
%TO.N,Net-(C9-Pad2)*%
X160000000Y-75000000D03*
%TO.P,R5,2,2*%
X160000000Y-72460000D03*
%TO.P,R5,3,3*%
%TO.N,GND*%
X160000000Y-69920000D03*
%TD*%
D15*
%TO.P,R4,1*%
%TO.N,Net-(C9-Pad2)*%
X160000000Y-65912500D03*
%TO.P,R4,2*%
%TO.N,Net-(C6-Pad2)*%
X160000000Y-64087500D03*
%TD*%
%TO.P,R3,1*%
%TO.N,Net-(U1-FB)*%
X165000000Y-70912500D03*
%TO.P,R3,2*%
%TO.N,Net-(C9-Pad2)*%
X165000000Y-69087500D03*
%TD*%
%TO.P,R2,1*%
%TO.N,Net-(U1-BST)*%
X170000000Y-65912500D03*
%TO.P,R2,2*%
%TO.N,Net-(C5-Pad2)*%
X170000000Y-64087500D03*
%TD*%
D16*
%TO.P,R1,1*%
%TO.N,+12V*%
X167530000Y-64087500D03*
%TO.P,R1,2*%
%TO.N,Net-(U1-EN)*%
X167530000Y-65912500D03*
%TD*%
D17*
%TO.P,L1,1,1*%
%TO.N,Net-(U1-SW)*%
X174475000Y-72500000D03*
%TO.P,L1,2,2*%
%TO.N,Net-(C6-Pad2)*%
X180525000Y-72500000D03*
%TD*%
D18*
%TO.P,D2,1,A1*%
%TO.N,+12V*%
X152500000Y-77000000D03*
%TO.P,D2,2,A2*%
%TO.N,GND*%
X152500000Y-73000000D03*
%TD*%
D19*
%TO.P,C9,1*%
%TO.N,Net-(C6-Pad2)*%
X162500000Y-64050000D03*
%TO.P,C9,2*%
%TO.N,Net-(C9-Pad2)*%
X162500000Y-65950000D03*
%TD*%
D20*
%TO.P,C8,1*%
%TO.N,GND*%
X185000000Y-71025000D03*
%TO.P,C8,2*%
%TO.N,Net-(C6-Pad2)*%
X185000000Y-73975000D03*
%TD*%
D21*
%TO.P,C7,1*%
%TO.N,GND*%
X172500000Y-80735000D03*
%TO.P,C7,2*%
%TO.N,Net-(C6-Pad2)*%
X174400000Y-80735000D03*
%TD*%
%TO.P,C6,1*%
%TO.N,GND*%
X172500000Y-77725000D03*
%TO.P,C6,2*%
%TO.N,Net-(C6-Pad2)*%
X174400000Y-77725000D03*
%TD*%
D22*
%TO.P,C3,1*%
%TO.N,GND*%
X170450000Y-82300000D03*
%TO.P,C3,2*%
%TO.N,+12V*%
X167500000Y-82300000D03*
%TD*%
%TO.P,C2,1*%
%TO.N,GND*%
X170450000Y-76450000D03*
%TO.P,C2,2*%
%TO.N,+12V*%
X167500000Y-76450000D03*
%TD*%
%TO.P,C1,1*%
%TO.N,GND*%
X170450000Y-79800000D03*
%TO.P,C1,2*%
%TO.N,+12V*%
X167500000Y-79800000D03*
%TD*%
D23*
%TO.N,GND*%
X170137500Y-72362500D03*
X165000000Y-72500000D03*
%TO.N,+12V*%
X162924264Y-79575736D03*
X167530000Y-63000000D03*
%TO.N,Net-(C6-Pad2)*%
X187500000Y-75000000D03*
X162500000Y-62500000D03*
%TD*%
D24*
%TO.N,GND*%
X170137500Y-72362500D02*
X170050000Y-72275000D01*
D25*
X165225000Y-72275000D02*
X168050000Y-72275000D01*
X165000000Y-72500000D02*
X165225000Y-72275000D01*
D24*
X170450000Y-72675000D02*
X170137500Y-72362500D01*
X170450000Y-76450000D02*
X170450000Y-72675000D01*
D25*
X165000000Y-72500000D02*
X162500000Y-72500000D01*
D26*
%TO.N,Net-(C5-Pad2)*%
X170087500Y-64000000D02*
X172500000Y-64000000D01*
X170000000Y-64087500D02*
X170087500Y-64000000D01*
D27*
%TO.N,Net-(U1-SW)*%
X169350000Y-71445862D02*
X169633362Y-71162500D01*
X169350000Y-72275000D02*
X169350000Y-71445862D01*
D24*
X172500000Y-70525000D02*
X171862500Y-71162500D01*
X171862500Y-71162500D02*
X169633362Y-71162500D01*
D26*
%TO.N,GND*%
X170450000Y-76450000D02*
X170800000Y-76100000D01*
D28*
X165030000Y-62780000D02*
X165000000Y-62750000D01*
X165030000Y-64050000D02*
X165030000Y-62780000D01*
D27*
%TO.N,+12V*%
X168700000Y-72275000D02*
X168700000Y-73811244D01*
X168700000Y-73811244D02*
X168623744Y-73887500D01*
D28*
X167500000Y-75011244D02*
X168623744Y-73887500D01*
X167500000Y-76450000D02*
X167500000Y-75011244D01*
D27*
%TO.N,Net-(C9-Pad2)*%
X161627500Y-72460000D02*
X165000000Y-69087500D01*
X160000000Y-72460000D02*
X161627500Y-72460000D01*
X160000000Y-75000000D02*
X160000000Y-72460000D01*
%TO.N,+12V*%
X167530000Y-64087500D02*
X167530000Y-63000000D01*
D28*
%TO.N,Net-(U1-SW)*%
X172500000Y-70525000D02*
X174475000Y-72500000D01*
X172500000Y-65950000D02*
X172500000Y-70525000D01*
D27*
%TO.N,Net-(U1-BST)*%
X170000000Y-65912500D02*
X170000000Y-70000000D01*
%TO.N,Net-(U1-EN)*%
X167530000Y-65912500D02*
X169350000Y-67732500D01*
X169350000Y-67732500D02*
X169350000Y-70000000D01*
%TO.N,Net-(U1-VCC)*%
X168700000Y-68895000D02*
X168700000Y-70000000D01*
X165755000Y-65950000D02*
X168700000Y-68895000D01*
X165030000Y-65950000D02*
X165755000Y-65950000D01*
%TO.N,Net-(U1-FB)*%
X167137500Y-70912500D02*
X168050000Y-70000000D01*
X165000000Y-70912500D02*
X167137500Y-70912500D01*
%TO.N,Net-(C9-Pad2)*%
X165000000Y-68450000D02*
X165000000Y-69087500D01*
X162500000Y-65950000D02*
X165000000Y-68450000D01*
X162462500Y-65912500D02*
X162500000Y-65950000D01*
X160000000Y-65912500D02*
X162462500Y-65912500D01*
%TO.N,Net-(C6-Pad2)*%
X186025000Y-75000000D02*
X185000000Y-73975000D01*
X187500000Y-75000000D02*
X186025000Y-75000000D01*
X162500000Y-64050000D02*
X162500000Y-62500000D01*
X162462500Y-64087500D02*
X162500000Y-64050000D01*
X160000000Y-64087500D02*
X162462500Y-64087500D01*
%TD*%
%TA.AperFunction,Conductor*%
%TO.N,GND*%
G36*
X162066080Y-62020185D02*
G01*
X162111835Y-62072989D01*
X162121779Y-62142147D01*
X162092754Y-62205703D01*
X162074623Y-62226627D01*
X162074622Y-62226628D01*
X162014834Y-62357543D01*
X162009644Y-62393647D01*
X161980619Y-62457203D01*
X161921841Y-62494977D01*
X161886906Y-62500000D01*
X159999999Y-62500000D01*
X157500000Y-65000000D01*
X162993583Y-70493583D01*
X163027068Y-70554906D01*
X163022084Y-70624598D01*
X162993583Y-70668945D01*
X161563650Y-72098878D01*
X161502327Y-72132363D01*
X161432635Y-72127379D01*
X161421831Y-72122754D01*
X160376408Y-71615342D01*
X160375693Y-71615007D01*
X160371021Y-71612823D01*
X160371015Y-71612820D01*
X160370993Y-71612810D01*
X160370384Y-71612536D01*
X160370382Y-71612535D01*
X160362278Y-71610791D01*
X160337941Y-71602848D01*
X160286017Y-71579731D01*
X160286015Y-71579730D01*
X160286014Y-71579730D01*
X160096748Y-71539500D01*
X159903252Y-71539500D01*
X159713983Y-71579730D01*
X159713978Y-71579732D01*
X159537215Y-71658433D01*
X159537210Y-71658435D01*
X159380674Y-71772165D01*
X159380667Y-71772171D01*
X159251197Y-71915964D01*
X159154450Y-72083536D01*
X159154447Y-72083543D01*
X159094657Y-72267558D01*
X159094656Y-72267560D01*
X159074430Y-72460000D01*
X159094656Y-72652439D01*
X159094657Y-72652441D01*
X159154448Y-72836459D01*
X159157993Y-72842599D01*
X159162159Y-72850453D01*
X159562779Y-73675853D01*
X159574343Y-73744760D01*
X159562779Y-73784142D01*
X159162156Y-74609549D01*
X159157995Y-74617396D01*
X159154450Y-74623536D01*
X159154449Y-74623539D01*
X159094657Y-74807558D01*
X159094656Y-74807560D01*
X159086101Y-74888962D01*
X159059516Y-74953577D01*
X159002219Y-74993561D01*
X158962780Y-75000000D01*
X157841982Y-75000000D01*
X157774943Y-74980315D01*
X157754305Y-74963685D01*
X157681629Y-74891009D01*
X157681628Y-74891008D01*
X157681624Y-74891004D01*
X157665283Y-74876325D01*
X157665269Y-74876313D01*
X157644620Y-74859672D01*
X157573575Y-74822509D01*
X157506543Y-74802826D01*
X157505894Y-74802732D01*
X157448638Y-74794500D01*
X150624500Y-74794500D01*
X150557461Y-74774815D01*
X150511706Y-74722011D01*
X150500500Y-74670500D01*
X150500500Y-62124500D01*
X150520185Y-62057461D01*
X150572989Y-62011706D01*
X150624500Y-62000500D01*
X161999041Y-62000500D01*
X162066080Y-62020185D01*
G37*
%TD.AperFunction*%
%TA.AperFunction,Conductor*%
G36*
X163549569Y-71065415D02*
G01*
X163593916Y-71093916D01*
X164878348Y-72378348D01*
X164911833Y-72439671D01*
X164906849Y-72509363D01*
X164864977Y-72565296D01*
X164846121Y-72576938D01*
X160938943Y-74530527D01*
X160870178Y-74542902D01*
X160805639Y-74516134D01*
X160771936Y-74473765D01*
X160437217Y-73784143D01*
X160425654Y-73715237D01*
X160437218Y-73675854D01*
X160672890Y-73190297D01*
X160719871Y-73138583D01*
X160730300Y-73132889D01*
X160732629Y-73131759D01*
X161471895Y-72772945D01*
X161526039Y-72760500D01*
X161667060Y-72760500D01*
X161667062Y-72760500D01*
X161743489Y-72740021D01*
X161812011Y-72700460D01*
X161867960Y-72644511D01*
X163418554Y-71093915D01*
X163479877Y-71060431D01*
X163549569Y-71065415D01*
G37*
%TD.AperFunction*%
%TA.AperFunction,Conductor*%
G36*
X189442539Y-62020185D02*
G01*
X189488294Y-62072989D01*
X189499500Y-62124500D01*
X189499500Y-72170500D01*
X189479815Y-72237539D01*
X189427011Y-72283294D01*
X189375500Y-72294500D01*
X182829500Y-72294500D01*
X182762461Y-72274815D01*
X182716706Y-72222011D01*
X182705500Y-72170500D01*
X182705500Y-70124008D01*
X182705499Y-70123992D01*
X182700803Y-70080316D01*
X182695556Y-70056198D01*
X182689602Y-70028825D01*
X182689348Y-70027789D01*
X182687110Y-70018627D01*
X182644100Y-69937915D01*
X182598345Y-69885111D01*
X182598339Y-69885104D01*
X182580757Y-69867160D01*
X182580756Y-69867159D01*
X182580754Y-69867157D01*
X182563462Y-69857484D01*
X182514566Y-69807577D01*
X182500000Y-69749266D01*
X182500000Y-67500000D01*
X177624000Y-67500000D01*
X177556961Y-67480315D01*
X177511206Y-67427511D01*
X177500000Y-67376000D01*
X177500000Y-62500000D01*
X167614307Y-62500000D01*
X167607316Y-62499500D01*
X167601961Y-62499500D01*
X167458039Y-62499500D01*
X167452684Y-62499500D01*
X167445693Y-62500000D01*
X163113094Y-62500000D01*
X163046055Y-62480315D01*
X163000300Y-62427511D01*
X162990356Y-62393647D01*
X162985165Y-62357543D01*
X162925377Y-62226628D01*
X162925377Y-62226627D01*
X162907245Y-62205702D01*
X162878221Y-62142147D01*
X162888165Y-62072989D01*
X162933919Y-62020185D01*
X163000959Y-62000500D01*
X189375500Y-62000500D01*
X189442539Y-62020185D01*
G37*
%TD.AperFunction*%
%TD*%
%TA.AperFunction,Conductor*%
%TO.N,+12V*%
G36*
X157515677Y-75019685D02*
G01*
X157536319Y-75036319D01*
X159999999Y-77499999D01*
X160000000Y-77500000D01*
X161050042Y-77149986D01*
X166425001Y-77149986D01*
X166435494Y-77252697D01*
X166490641Y-77419119D01*
X166490643Y-77419124D01*
X166582684Y-77568345D01*
X166706654Y-77692315D01*
X166855875Y-77784356D01*
X166855880Y-77784358D01*
X167022302Y-77839505D01*
X167022309Y-77839506D01*
X167125019Y-77849999D01*
X167249999Y-77849999D01*
X167250000Y-77849998D01*
X167250000Y-76700000D01*
X166425001Y-76700000D01*
X166425001Y-77149986D01*
X161050042Y-77149986D01*
X166309693Y-75396768D01*
X166379513Y-75394244D01*
X166439618Y-75429869D01*
X166470921Y-75492334D01*
X166466607Y-75553409D01*
X166435495Y-75647299D01*
X166435493Y-75647309D01*
X166425000Y-75750013D01*
X166425000Y-76200000D01*
X167376000Y-76200000D01*
X167443039Y-76219685D01*
X167488794Y-76272489D01*
X167500000Y-76324000D01*
X167500000Y-76450000D01*
X167626000Y-76450000D01*
X167693039Y-76469685D01*
X167738794Y-76522489D01*
X167750000Y-76574000D01*
X167750000Y-77849999D01*
X167874972Y-77849999D01*
X167874986Y-77849998D01*
X167977697Y-77839505D01*
X168144119Y-77784358D01*
X168144124Y-77784356D01*
X168293345Y-77692315D01*
X168417315Y-77568345D01*
X168509356Y-77419124D01*
X168509358Y-77419119D01*
X168527794Y-77363484D01*
X168567566Y-77306039D01*
X168632082Y-77279216D01*
X168700858Y-77291531D01*
X168752058Y-77339074D01*
X168769500Y-77402488D01*
X168769500Y-78847510D01*
X168749815Y-78914549D01*
X168697011Y-78960304D01*
X168627853Y-78970248D01*
X168564297Y-78941223D01*
X168527794Y-78886515D01*
X168509357Y-78830878D01*
X168509356Y-78830875D01*
X168417315Y-78681654D01*
X168293345Y-78557684D01*
X168144124Y-78465643D01*
X168144119Y-78465641D01*
X167977697Y-78410494D01*
X167977690Y-78410493D01*
X167874986Y-78400000D01*
X167750000Y-78400000D01*
X167750000Y-83699999D01*
X167874972Y-83699999D01*
X167874986Y-83699998D01*
X167977696Y-83689505D01*
X167983050Y-83688360D01*
X168052725Y-83693576D01*
X168108519Y-83735632D01*
X168132719Y-83801177D01*
X168117827Y-83869061D01*
X167535537Y-84934948D01*
X167486122Y-84984344D01*
X167426716Y-84999500D01*
X150624500Y-84999500D01*
X150557461Y-84979815D01*
X150511706Y-84927011D01*
X150500500Y-84875500D01*
X150500500Y-79999994D01*
X150994859Y-79999994D01*
X150994859Y-80000005D01*
X151015385Y-80247729D01*
X151015387Y-80247738D01*
X151076412Y-80488717D01*
X151176267Y-80716367D01*
X151276562Y-80869881D01*
X151935387Y-80211058D01*
X151940889Y-80231591D01*
X152019881Y-80368408D01*
X152131592Y-80480119D01*
X152268409Y-80559111D01*
X152288940Y-80564612D01*
X151629943Y-81223609D01*
X151632346Y-81262315D01*
X151632346Y-81277681D01*
X151629943Y-81316389D01*
X152288941Y-81975387D01*
X152268409Y-81980889D01*
X152131592Y-82059881D01*
X152019881Y-82171592D01*
X151940889Y-82308409D01*
X151935387Y-82328941D01*
X151276563Y-81670117D01*
X151176267Y-81823633D01*
X151176265Y-81823637D01*
X151076412Y-82051282D01*
X151015387Y-82292261D01*
X151015385Y-82292270D01*
X150994859Y-82539994D01*
X150994859Y-82540005D01*
X151015385Y-82787729D01*
X151015387Y-82787738D01*
X151076412Y-83028717D01*
X151176267Y-83256367D01*
X151276562Y-83409881D01*
X151935387Y-82751058D01*
X151940889Y-82771591D01*
X152019881Y-82908408D01*
X152131592Y-83020119D01*
X152268409Y-83099111D01*
X152288940Y-83104612D01*
X151629943Y-83763609D01*
X151676768Y-83800055D01*
X151676771Y-83800057D01*
X151895385Y-83918364D01*
X151895396Y-83918369D01*
X152130506Y-83999083D01*
X152375707Y-84040000D01*
X152624293Y-84040000D01*
X152869493Y-83999083D01*
X153104603Y-83918369D01*
X153104614Y-83918364D01*
X153323230Y-83800056D01*
X153323236Y-83800051D01*
X153370055Y-83763610D01*
X153370056Y-83763609D01*
X152711058Y-83104612D01*
X152731591Y-83099111D01*
X152868408Y-83020119D01*
X152980119Y-82908408D01*
X153059111Y-82771591D01*
X153064612Y-82751059D01*
X153723435Y-83409882D01*
X153823733Y-83256364D01*
X153923587Y-83028717D01*
X153930863Y-82999986D01*
X166425001Y-82999986D01*
X166435494Y-83102697D01*
X166490641Y-83269119D01*
X166490643Y-83269124D01*
X166582684Y-83418345D01*
X166706654Y-83542315D01*
X166855875Y-83634356D01*
X166855880Y-83634358D01*
X167022302Y-83689505D01*
X167022309Y-83689506D01*
X167125019Y-83699999D01*
X167249999Y-83699999D01*
X167250000Y-83699998D01*
X167250000Y-82550000D01*
X166425001Y-82550000D01*
X166425001Y-82999986D01*
X153930863Y-82999986D01*
X153984612Y-82787738D01*
X153984614Y-82787729D01*
X154005141Y-82540005D01*
X154005141Y-82539994D01*
X153984614Y-82292270D01*
X153984612Y-82292261D01*
X153923587Y-82051282D01*
X153823732Y-81823632D01*
X153723435Y-81670116D01*
X153064612Y-82328940D01*
X153059111Y-82308409D01*
X152980119Y-82171592D01*
X152868408Y-82059881D01*
X152731591Y-81980889D01*
X152711058Y-81975387D01*
X153086431Y-81600013D01*
X166425000Y-81600013D01*
X166425000Y-82050000D01*
X167250000Y-82050000D01*
X167250000Y-80050000D01*
X166425001Y-80050000D01*
X166425001Y-80499986D01*
X166435494Y-80602697D01*
X166490641Y-80769119D01*
X166490643Y-80769124D01*
X166582684Y-80918345D01*
X166626658Y-80962319D01*
X166660143Y-81023642D01*
X166655159Y-81093334D01*
X166626658Y-81137681D01*
X166582684Y-81181654D01*
X166490643Y-81330875D01*
X166490641Y-81330880D01*
X166435494Y-81497302D01*
X166435493Y-81497309D01*
X166425000Y-81600013D01*
X153086431Y-81600013D01*
X153370055Y-81316389D01*
X153367653Y-81277683D01*
X153367653Y-81262317D01*
X153370055Y-81223608D01*
X152711058Y-80564612D01*
X152731591Y-80559111D01*
X152868408Y-80480119D01*
X152980119Y-80368408D01*
X153059111Y-80231591D01*
X153064612Y-80211059D01*
X153723435Y-80869882D01*
X153823733Y-80716364D01*
X153923587Y-80488717D01*
X153984612Y-80247738D01*
X153984614Y-80247729D01*
X154005141Y-80000005D01*
X154005141Y-79999994D01*
X153984614Y-79752270D01*
X153984612Y-79752261D01*
X153923587Y-79511282D01*
X153823732Y-79283632D01*
X153723435Y-79130116D01*
X153064612Y-79788940D01*
X153059111Y-79768409D01*
X152980119Y-79631592D01*
X152868408Y-79519881D01*
X152731591Y-79440889D01*
X152711058Y-79435387D01*
X153046432Y-79100013D01*
X166425000Y-79100013D01*
X166425000Y-79550000D01*
X167250000Y-79550000D01*
X167250000Y-78400000D01*
X167125027Y-78400000D01*
X167125012Y-78400001D01*
X167022302Y-78410494D01*
X166855880Y-78465641D01*
X166855875Y-78465643D01*
X166706654Y-78557684D01*
X166582684Y-78681654D01*
X166490643Y-78830875D01*
X166490641Y-78830880D01*
X166435494Y-78997302D01*
X166435493Y-78997309D01*
X166425000Y-79100013D01*
X153046432Y-79100013D01*
X153384041Y-78762403D01*
X153387865Y-78745590D01*
X153437732Y-78696651D01*
X153457128Y-78688331D01*
X153463679Y-78686160D01*
X153466698Y-78685851D01*
X153618342Y-78592318D01*
X153742315Y-78468345D01*
X153834356Y-78319124D01*
X153834358Y-78319119D01*
X153889505Y-78152697D01*
X153889506Y-78152690D01*
X153899999Y-78049986D01*
X153900000Y-78049973D01*
X153900000Y-77250000D01*
X151100001Y-77250000D01*
X151100001Y-78049986D01*
X151110494Y-78152697D01*
X151165641Y-78319119D01*
X151165643Y-78319124D01*
X151257684Y-78468345D01*
X151381653Y-78592314D01*
X151533301Y-78685850D01*
X151536316Y-78686159D01*
X151542870Y-78688331D01*
X151600314Y-78728105D01*
X151613587Y-78760033D01*
X152288941Y-79435387D01*
X152268409Y-79440889D01*
X152131592Y-79519881D01*
X152019881Y-79631592D01*
X151940889Y-79768409D01*
X151935387Y-79788941D01*
X151276563Y-79130117D01*
X151176267Y-79283633D01*
X151176265Y-79283637D01*
X151076412Y-79511282D01*
X151015387Y-79752261D01*
X151015385Y-79752270D01*
X150994859Y-79999994D01*
X150500500Y-79999994D01*
X150500500Y-75950013D01*
X151100000Y-75950013D01*
X151100000Y-76750000D01*
X152250000Y-76750000D01*
X152750000Y-76750000D01*
X153899999Y-76750000D01*
X153899999Y-75950028D01*
X153899998Y-75950013D01*
X153889505Y-75847302D01*
X153834358Y-75680880D01*
X153834356Y-75680875D01*
X153742315Y-75531654D01*
X153618345Y-75407684D01*
X153469124Y-75315643D01*
X153469119Y-75315641D01*
X153302697Y-75260494D01*
X153302690Y-75260493D01*
X153199986Y-75250000D01*
X152750000Y-75250000D01*
X152750000Y-76750000D01*
X152250000Y-76750000D01*
X152250000Y-75250000D01*
X151800028Y-75250000D01*
X151800012Y-75250001D01*
X151697302Y-75260494D01*
X151530880Y-75315641D01*
X151530875Y-75315643D01*
X151381654Y-75407684D01*
X151257684Y-75531654D01*
X151165643Y-75680875D01*
X151165641Y-75680880D01*
X151110494Y-75847302D01*
X151110493Y-75847309D01*
X151100000Y-75950013D01*
X150500500Y-75950013D01*
X150500500Y-75124000D01*
X150520185Y-75056961D01*
X150572989Y-75011206D01*
X150624500Y-75000000D01*
X157448638Y-75000000D01*
X157515677Y-75019685D01*
G37*
%TD.AperFunction*%
%TD*%
%TA.AperFunction,Conductor*%
%TO.N,GND*%
G36*
X170205203Y-72819125D02*
G01*
X170227475Y-72844510D01*
X170228327Y-72845799D01*
X173285665Y-77476116D01*
X173306178Y-77542907D01*
X173293821Y-77598422D01*
X173272509Y-77642494D01*
X173272509Y-77642495D01*
X173252826Y-77709524D01*
X173244500Y-77767433D01*
X173244500Y-80713180D01*
X173247614Y-80748809D01*
X173255070Y-80791150D01*
X173255075Y-80791173D01*
X173264316Y-80825712D01*
X174720710Y-84833146D01*
X174725108Y-84902877D01*
X174691108Y-84963916D01*
X174629505Y-84996884D01*
X174604168Y-84999500D01*
X170085370Y-84999500D01*
X170018331Y-84979815D01*
X169972576Y-84927011D01*
X169969443Y-84919509D01*
X168983073Y-82321265D01*
X168975000Y-82277256D01*
X168975000Y-76489402D01*
X168994685Y-76422363D01*
X168997744Y-76417825D01*
X170000000Y-75000000D01*
X170000000Y-72912838D01*
X170019685Y-72845799D01*
X170072489Y-72800044D01*
X170141647Y-72790100D01*
X170205203Y-72819125D01*
G37*
%TD.AperFunction*%
%TD*%
%TA.AperFunction,Conductor*%
%TO.N,Net-(C6-Pad2)*%
G36*
X182443039Y-70019685D02*
G01*
X182488794Y-70072489D01*
X182500000Y-70124000D01*
X182500000Y-72500000D01*
X189375500Y-72500000D01*
X189442539Y-72519685D01*
X189488294Y-72572489D01*
X189499500Y-72624000D01*
X189499500Y-84875500D01*
X189479815Y-84942539D01*
X189427011Y-84988294D01*
X189375500Y-84999500D01*
X175086688Y-84999500D01*
X175019649Y-84979815D01*
X174973894Y-84927011D01*
X174970146Y-84917854D01*
X173457458Y-80755521D01*
X173450000Y-80713167D01*
X173450000Y-77767430D01*
X173469685Y-77700391D01*
X173475994Y-77691464D01*
X177500000Y-72500000D01*
X177500000Y-70124000D01*
X177519685Y-70056961D01*
X177572489Y-70011206D01*
X177624000Y-70000000D01*
X182376000Y-70000000D01*
X182443039Y-70019685D01*
G37*
%TD.AperFunction*%
%TD*%
%TA.AperFunction,Conductor*%
%TO.N,GND*%
G36*
X167801805Y-72027968D02*
G01*
X167805453Y-72030432D01*
X168042676Y-72266710D01*
X168046119Y-72274977D01*
X168042709Y-72283257D01*
X168042676Y-72283290D01*
X167805453Y-72519567D01*
X167797173Y-72522977D01*
X167792851Y-72522140D01*
X167557355Y-72427942D01*
X167550946Y-72421688D01*
X167550000Y-72417079D01*
X167550000Y-72132921D01*
X167553427Y-72124648D01*
X167557355Y-72122058D01*
X167792852Y-72027859D01*
X167801805Y-72027968D01*
G37*
%TD.AperFunction*%
%TD*%
%TA.AperFunction,Conductor*%
%TO.N,GND*%
G36*
X165502075Y-72129163D02*
G01*
X165506676Y-72136845D01*
X165506802Y-72138558D01*
X165506802Y-72420064D01*
X165503375Y-72428337D01*
X165503267Y-72428444D01*
X165220384Y-72704090D01*
X165212067Y-72707409D01*
X165203965Y-72704003D01*
X165141001Y-72641335D01*
X165002460Y-72503443D01*
X164999016Y-72495182D01*
X164999966Y-72210060D01*
X165003420Y-72201800D01*
X165009952Y-72198527D01*
X165493391Y-72126984D01*
X165502075Y-72129163D01*
G37*
%TD.AperFunction*%
%TD*%
%TA.AperFunction,Conductor*%
%TO.N,GND*%
G36*
X170413466Y-72251890D02*
G01*
X170419472Y-72257559D01*
X170691798Y-72816232D01*
X170692343Y-72825171D01*
X170686408Y-72831876D01*
X170681281Y-72833059D01*
X170200000Y-72833059D01*
X169934130Y-72582877D01*
X169930454Y-72574712D01*
X169933628Y-72566339D01*
X169933823Y-72566136D01*
X170135838Y-72363169D01*
X170139681Y-72360604D01*
X170404513Y-72251863D01*
X170413466Y-72251890D01*
G37*
%TD.AperFunction*%
%TD*%
%TA.AperFunction,Conductor*%
%TO.N,GND*%
G36*
X164884225Y-72226632D02*
G01*
X164889116Y-72232221D01*
X164999115Y-72495489D01*
X164999142Y-72504444D01*
X164999115Y-72504511D01*
X164889116Y-72767777D01*
X164882764Y-72774089D01*
X164875354Y-72774584D01*
X164655040Y-72716843D01*
X164596827Y-72701586D01*
X164400000Y-72650000D01*
X164400000Y-72350000D01*
X164875357Y-72225414D01*
X164884225Y-72226632D01*
G37*
%TD.AperFunction*%
%TD*%
%TA.AperFunction,Conductor*%
%TO.N,Net-(U1-SW)*%
G36*
X169346580Y-71325050D02*
G01*
X169348850Y-71326820D01*
X169478235Y-71456205D01*
X169480520Y-71459435D01*
X169561626Y-71629246D01*
X169562099Y-71638189D01*
X169561672Y-71639233D01*
X169555742Y-71651951D01*
X169555740Y-71651957D01*
X169549500Y-71699361D01*
X169549500Y-71786934D01*
X169548620Y-71791387D01*
X169361305Y-72246519D01*
X169354987Y-72252865D01*
X169346032Y-72252886D01*
X169339686Y-72246568D01*
X169339377Y-72245742D01*
X169189027Y-71791387D01*
X169145509Y-71659878D01*
X169145020Y-71657738D01*
X169144259Y-71651955D01*
X169143934Y-71651257D01*
X169143544Y-71642310D01*
X169144486Y-71640326D01*
X169330534Y-71329089D01*
X169337721Y-71323747D01*
X169346580Y-71325050D01*
G37*
%TD.AperFunction*%
%TD*%
%TA.AperFunction,Conductor*%
%TO.N,+12V*%
G36*
X168710793Y-72300317D02*
G01*
X168710824Y-72300392D01*
X168898625Y-72758276D01*
X168899500Y-72762716D01*
X168899500Y-72850637D01*
X168905740Y-72898042D01*
X168905742Y-72898047D01*
X168913184Y-72914008D01*
X168913574Y-72922954D01*
X168913331Y-72923568D01*
X168803042Y-73180416D01*
X168796629Y-73186666D01*
X168792291Y-73187500D01*
X168607709Y-73187500D01*
X168599436Y-73184073D01*
X168596958Y-73180416D01*
X168486666Y-72923567D01*
X168486552Y-72914615D01*
X168486797Y-72914045D01*
X168494259Y-72898045D01*
X168500500Y-72850639D01*
X168500499Y-72762709D01*
X168501374Y-72758276D01*
X168689176Y-72300389D01*
X168695484Y-72294038D01*
X168704439Y-72294007D01*
X168710793Y-72300317D01*
G37*
%TD.AperFunction*%
%TD*%
%TA.AperFunction,Conductor*%
%TO.N,Net-(C9-Pad2)*%
G36*
X164993169Y-69086533D02*
G01*
X165001317Y-69090242D01*
X165003582Y-69093767D01*
X165207854Y-69589255D01*
X165207839Y-69598209D01*
X165201569Y-69604501D01*
X164213434Y-70019688D01*
X164204480Y-70019733D01*
X164200629Y-70017174D01*
X164069643Y-69886188D01*
X164066216Y-69877915D01*
X164066670Y-69874688D01*
X164297478Y-69071489D01*
X164303057Y-69064485D01*
X164309122Y-69063028D01*
X164993169Y-69086533D01*
G37*
%TD.AperFunction*%
%TD*%
%TA.AperFunction,Conductor*%
%TO.N,Net-(C9-Pad2)*%
G36*
X160286067Y-71799942D02*
G01*
X160286676Y-71800216D01*
X161433410Y-72356801D01*
X161439355Y-72363496D01*
X161440000Y-72367326D01*
X161440000Y-72552673D01*
X161436573Y-72560946D01*
X161433409Y-72563199D01*
X160286685Y-73119779D01*
X160277746Y-73120308D01*
X160271050Y-73114362D01*
X160270772Y-73113744D01*
X160000865Y-72464488D01*
X160000855Y-72455537D01*
X160270773Y-71806253D01*
X160277112Y-71799931D01*
X160286067Y-71799942D01*
G37*
%TD.AperFunction*%
%TD*%
%TA.AperFunction,Conductor*%
%TO.N,Net-(C9-Pad2)*%
G36*
X160653744Y-72730772D02*
G01*
X160660068Y-72737112D01*
X160660057Y-72746067D01*
X160659779Y-72746685D01*
X160103199Y-73893409D01*
X160096503Y-73899355D01*
X160092673Y-73900000D01*
X159907327Y-73900000D01*
X159899054Y-73896573D01*
X159896801Y-73893409D01*
X159340220Y-72746685D01*
X159339691Y-72737746D01*
X159345637Y-72731050D01*
X159346229Y-72730783D01*
X159995511Y-72460865D01*
X160004462Y-72460855D01*
X160653744Y-72730772D01*
G37*
%TD.AperFunction*%
%TD*%
%TA.AperFunction,Conductor*%
%TO.N,Net-(C9-Pad2)*%
G36*
X160100946Y-73563427D02*
G01*
X160103199Y-73566591D01*
X160659779Y-74713314D01*
X160660308Y-74722253D01*
X160654362Y-74728949D01*
X160653744Y-74729227D01*
X160004491Y-74999133D01*
X159995536Y-74999144D01*
X159995509Y-74999133D01*
X159346255Y-74729227D01*
X159339931Y-74722887D01*
X159339942Y-74713932D01*
X159340210Y-74713335D01*
X159896801Y-73566591D01*
X159903497Y-73560645D01*
X159907327Y-73560000D01*
X160092673Y-73560000D01*
X160100946Y-73563427D01*
G37*
%TD.AperFunction*%
%TD*%
%TA.AperFunction,Conductor*%
%TO.N,+12V*%
G36*
X167632587Y-63065927D02*
G01*
X167633513Y-63066971D01*
X168036012Y-63579175D01*
X168038430Y-63587797D01*
X168034992Y-63594770D01*
X167538179Y-64080503D01*
X167529868Y-64083836D01*
X167521821Y-64080503D01*
X167025007Y-63594770D01*
X167021487Y-63586536D01*
X167023986Y-63579176D01*
X167426487Y-63066971D01*
X167434293Y-63062583D01*
X167435686Y-63062500D01*
X167624314Y-63062500D01*
X167632587Y-63065927D01*
G37*
%TD.AperFunction*%
%TD*%
%TA.AperFunction,Conductor*%
%TO.N,+12V*%
G36*
X167796851Y-63110496D02*
G01*
X167803163Y-63116848D01*
X167803330Y-63125305D01*
X167632807Y-63592313D01*
X167626751Y-63598909D01*
X167621817Y-63600000D01*
X167438183Y-63600000D01*
X167429910Y-63596573D01*
X167427193Y-63592313D01*
X167256669Y-63125302D01*
X167257050Y-63116358D01*
X167263147Y-63110496D01*
X167525490Y-63000883D01*
X167534444Y-63000857D01*
X167796851Y-63110496D01*
G37*
%TD.AperFunction*%
%TD*%
%TA.AperFunction,Conductor*%
%TO.N,Net-(U1-SW)*%
G36*
X173133246Y-70094814D02*
G01*
X174135047Y-70747286D01*
X174140110Y-70754673D01*
X174140152Y-70754882D01*
X174473521Y-72489335D01*
X174471717Y-72498106D01*
X174464357Y-72503009D01*
X173307110Y-72737770D01*
X173298321Y-72736057D01*
X173295547Y-72733485D01*
X172070976Y-71158449D01*
X172068604Y-71149815D01*
X172071939Y-71142996D01*
X173118590Y-70096345D01*
X173126862Y-70092919D01*
X173133246Y-70094814D01*
G37*
%TD.AperFunction*%
%TD*%
%TA.AperFunction,Conductor*%
%TO.N,Net-(U1-BST)*%
G36*
X170100564Y-69090927D02*
G01*
X170103042Y-69094584D01*
X170238547Y-69410152D01*
X170238662Y-69419106D01*
X170238621Y-69419208D01*
X170010825Y-69974607D01*
X170004515Y-69980961D01*
X169995560Y-69980992D01*
X169989206Y-69974682D01*
X169989175Y-69974607D01*
X169801374Y-69516722D01*
X169800499Y-69512282D01*
X169800499Y-69424362D01*
X169794259Y-69376957D01*
X169794259Y-69376955D01*
X169786813Y-69360989D01*
X169786424Y-69352043D01*
X169786648Y-69351476D01*
X169896958Y-69094583D01*
X169903371Y-69088334D01*
X169907709Y-69087500D01*
X170092291Y-69087500D01*
X170100564Y-69090927D01*
G37*
%TD.AperFunction*%
%TD*%
%TA.AperFunction,Conductor*%
%TO.N,Net-(U1-BST)*%
G36*
X170008178Y-65919495D02*
G01*
X170264045Y-66169655D01*
X170504992Y-66405228D01*
X170508512Y-66413462D01*
X170506012Y-66420823D01*
X170103513Y-66933029D01*
X170095707Y-66937417D01*
X170094314Y-66937500D01*
X169905686Y-66937500D01*
X169897413Y-66934073D01*
X169896487Y-66933029D01*
X169493987Y-66420823D01*
X169491569Y-66412201D01*
X169495007Y-66405228D01*
X169991821Y-65919495D01*
X170000132Y-65916163D01*
X170008178Y-65919495D01*
G37*
%TD.AperFunction*%
%TD*%
%TA.AperFunction,Conductor*%
%TO.N,Net-(U1-EN)*%
G36*
X168229260Y-65891170D02*
G01*
X168232521Y-65896491D01*
X168463328Y-66699684D01*
X168462319Y-66708581D01*
X168460356Y-66711188D01*
X168329370Y-66842174D01*
X168321097Y-66845601D01*
X168316565Y-66844688D01*
X167328430Y-66429501D01*
X167322130Y-66423136D01*
X167322144Y-66414256D01*
X167526418Y-65918765D01*
X167532739Y-65912424D01*
X167536826Y-65911534D01*
X168220875Y-65888029D01*
X168229260Y-65891170D01*
G37*
%TD.AperFunction*%
%TD*%
%TA.AperFunction,Conductor*%
%TO.N,Net-(U1-EN)*%
G36*
X169450564Y-69090927D02*
G01*
X169453042Y-69094584D01*
X169563331Y-69351430D01*
X169563446Y-69360384D01*
X169563184Y-69360990D01*
X169555742Y-69376951D01*
X169555740Y-69376957D01*
X169549500Y-69424361D01*
X169549500Y-69512284D01*
X169548625Y-69516724D01*
X169360824Y-69974607D01*
X169354514Y-69980961D01*
X169345559Y-69980992D01*
X169339206Y-69974683D01*
X169205432Y-69648525D01*
X169151374Y-69516722D01*
X169150499Y-69512282D01*
X169150499Y-69424362D01*
X169144259Y-69376957D01*
X169144259Y-69376955D01*
X169136813Y-69360989D01*
X169136424Y-69352043D01*
X169136648Y-69351476D01*
X169246958Y-69094583D01*
X169253371Y-69088334D01*
X169257709Y-69087500D01*
X169442291Y-69087500D01*
X169450564Y-69090927D01*
G37*
%TD.AperFunction*%
%TD*%
%TA.AperFunction,Conductor*%
%TO.N,Net-(U1-VCC)*%
G36*
X168800564Y-69090927D02*
G01*
X168803042Y-69094584D01*
X168913331Y-69351430D01*
X168913446Y-69360384D01*
X168913184Y-69360990D01*
X168905742Y-69376951D01*
X168905740Y-69376957D01*
X168899500Y-69424361D01*
X168899500Y-69512284D01*
X168898625Y-69516724D01*
X168710824Y-69974607D01*
X168704514Y-69980961D01*
X168695559Y-69980992D01*
X168689206Y-69974683D01*
X168555432Y-69648525D01*
X168501374Y-69516722D01*
X168500499Y-69512282D01*
X168500499Y-69424362D01*
X168494259Y-69376957D01*
X168494259Y-69376955D01*
X168486813Y-69360989D01*
X168486424Y-69352043D01*
X168486648Y-69351476D01*
X168596958Y-69094583D01*
X168603371Y-69088334D01*
X168607709Y-69087500D01*
X168792291Y-69087500D01*
X168800564Y-69090927D01*
G37*
%TD.AperFunction*%
%TD*%
%TA.AperFunction,Conductor*%
%TO.N,Net-(U1-VCC)*%
G36*
X165747375Y-65661991D02*
G01*
X165752161Y-65665727D01*
X166173147Y-66224720D01*
X166175387Y-66233390D01*
X166172074Y-66240031D01*
X166040603Y-66371502D01*
X166033976Y-66374813D01*
X165510972Y-66449151D01*
X165502299Y-66446922D01*
X165500844Y-66445626D01*
X165305514Y-66240031D01*
X165041121Y-65961743D01*
X165037908Y-65953386D01*
X165041545Y-65945203D01*
X165045206Y-65942844D01*
X165738423Y-65661923D01*
X165747375Y-65661991D01*
G37*
%TD.AperFunction*%
%TD*%
%TA.AperFunction,Conductor*%
%TO.N,Net-(U1-FB)*%
G36*
X167809745Y-69900443D02*
G01*
X168039958Y-69994883D01*
X168046311Y-70001194D01*
X168046373Y-70010072D01*
X167818804Y-70576117D01*
X167812538Y-70582515D01*
X167803584Y-70582609D01*
X167800743Y-70580971D01*
X167694497Y-70497927D01*
X167693429Y-70496982D01*
X167558668Y-70362221D01*
X167555241Y-70353948D01*
X167556637Y-70348405D01*
X167795006Y-69905720D01*
X167801944Y-69900062D01*
X167809745Y-69900443D01*
G37*
%TD.AperFunction*%
%TD*%
%TA.AperFunction,Conductor*%
%TO.N,Net-(U1-FB)*%
G36*
X165553072Y-70423397D02*
G01*
X166206747Y-70809105D01*
X166212130Y-70816260D01*
X166212500Y-70819181D01*
X166212500Y-71005818D01*
X166209073Y-71014091D01*
X166206746Y-71015895D01*
X165553075Y-71401601D01*
X165544208Y-71402854D01*
X165539289Y-71400209D01*
X165113542Y-71015895D01*
X165008620Y-70921184D01*
X165004776Y-70913098D01*
X165007776Y-70904660D01*
X165008621Y-70903815D01*
X165539290Y-70424789D01*
X165547727Y-70421790D01*
X165553072Y-70423397D01*
G37*
%TD.AperFunction*%
%TD*%
%TA.AperFunction,Conductor*%
%TO.N,Net-(C9-Pad2)*%
G36*
X164804887Y-68111858D02*
G01*
X165372615Y-68567950D01*
X165376918Y-68575803D01*
X165374684Y-68584041D01*
X165007494Y-69079057D01*
X164999813Y-69083661D01*
X164991380Y-69081667D01*
X164382811Y-68654946D01*
X164378004Y-68647390D01*
X164379947Y-68638650D01*
X164654709Y-68247527D01*
X164656000Y-68245992D01*
X164789287Y-68112705D01*
X164797559Y-68109279D01*
X164804887Y-68111858D01*
G37*
%TD.AperFunction*%
%TD*%
%TA.AperFunction,Conductor*%
%TO.N,Net-(C9-Pad2)*%
G36*
X163216163Y-65967666D02*
G01*
X163224344Y-65971304D01*
X163227195Y-65976455D01*
X163418458Y-66722231D01*
X163417194Y-66731097D01*
X163415398Y-66733411D01*
X163284282Y-66864527D01*
X163276009Y-66867954D01*
X163271422Y-66867017D01*
X162303529Y-66454532D01*
X162297262Y-66448136D01*
X162297298Y-66439311D01*
X162496225Y-65956734D01*
X162502545Y-65950393D01*
X162507339Y-65949499D01*
X163216163Y-65967666D01*
G37*
%TD.AperFunction*%
%TD*%
%TA.AperFunction,Conductor*%
%TO.N,Net-(C9-Pad2)*%
G36*
X161935341Y-65474088D02*
G01*
X162490358Y-65941047D01*
X162494483Y-65948996D01*
X162491779Y-65957532D01*
X162490358Y-65958953D01*
X161935914Y-66425429D01*
X161927378Y-66428133D01*
X161922078Y-66426333D01*
X161920664Y-66425429D01*
X161765878Y-66326436D01*
X161280396Y-66015950D01*
X161275273Y-66008605D01*
X161275000Y-66006093D01*
X161275000Y-65819571D01*
X161278427Y-65811298D01*
X161281252Y-65809217D01*
X161922374Y-65472680D01*
X161931289Y-65471871D01*
X161935341Y-65474088D01*
G37*
%TD.AperFunction*%
%TD*%
%TA.AperFunction,Conductor*%
%TO.N,Net-(C9-Pad2)*%
G36*
X160553072Y-65423397D02*
G01*
X161206747Y-65809105D01*
X161212130Y-65816260D01*
X161212500Y-65819181D01*
X161212500Y-66005818D01*
X161209073Y-66014091D01*
X161206746Y-66015895D01*
X160553075Y-66401601D01*
X160544208Y-66402854D01*
X160539289Y-66400209D01*
X160113542Y-66015895D01*
X160008620Y-65921184D01*
X160004776Y-65913098D01*
X160007776Y-65904660D01*
X160008621Y-65903815D01*
X160539290Y-65424789D01*
X160547727Y-65421790D01*
X160553072Y-65423397D01*
G37*
%TD.AperFunction*%
%TD*%
%TA.AperFunction,Conductor*%
%TO.N,Net-(C6-Pad2)*%
G36*
X187501000Y-75000000D02*
G01*
X187385195Y-75277164D01*
X186900000Y-75100000D01*
X186900000Y-74900000D01*
X187385195Y-74722836D01*
X187501000Y-75000000D01*
G37*
%TD.AperFunction*%
%TD*%
%TA.AperFunction,Conductor*%
%TO.N,Net-(C6-Pad2)*%
G36*
X162602615Y-63053427D02*
G01*
X162603513Y-63054435D01*
X162993502Y-63546769D01*
X162995953Y-63555382D01*
X162992571Y-63562340D01*
X162508240Y-64042825D01*
X162499953Y-64046219D01*
X162491760Y-64042825D01*
X162007428Y-63562340D01*
X162003968Y-63554081D01*
X162006496Y-63546770D01*
X162396487Y-63054435D01*
X162404310Y-63050078D01*
X162405658Y-63050000D01*
X162594342Y-63050000D01*
X162602615Y-63053427D01*
G37*
%TD.AperFunction*%
%TD*%
%TA.AperFunction,Conductor*%
%TO.N,Net-(C6-Pad2)*%
G36*
X162766851Y-62610496D02*
G01*
X162773163Y-62616848D01*
X162773330Y-62625305D01*
X162602807Y-63092313D01*
X162596751Y-63098909D01*
X162591817Y-63100000D01*
X162408183Y-63100000D01*
X162399910Y-63096573D01*
X162397193Y-63092313D01*
X162226669Y-62625302D01*
X162227050Y-62616358D01*
X162233147Y-62610496D01*
X162495490Y-62500883D01*
X162504444Y-62500857D01*
X162766851Y-62610496D01*
G37*
%TD.AperFunction*%
%TD*%
%TA.AperFunction,Conductor*%
%TO.N,Net-(C6-Pad2)*%
G36*
X161935914Y-63574570D02*
G01*
X162490358Y-64041047D01*
X162494483Y-64048996D01*
X162491779Y-64057532D01*
X162490358Y-64058953D01*
X161935341Y-64525911D01*
X161926805Y-64528615D01*
X161922372Y-64527318D01*
X161281260Y-64190786D01*
X161275530Y-64183908D01*
X161275000Y-64180428D01*
X161275000Y-63993906D01*
X161278427Y-63985633D01*
X161280396Y-63984049D01*
X161922080Y-63573665D01*
X161930894Y-63572096D01*
X161935914Y-63574570D01*
G37*
%TD.AperFunction*%
%TD*%
%TA.AperFunction,Conductor*%
%TO.N,Net-(C6-Pad2)*%
G36*
X160553072Y-63598397D02*
G01*
X161206747Y-63984105D01*
X161212130Y-63991260D01*
X161212500Y-63994181D01*
X161212500Y-64180818D01*
X161209073Y-64189091D01*
X161206746Y-64190895D01*
X160553075Y-64576601D01*
X160544208Y-64577854D01*
X160539289Y-64575209D01*
X160113542Y-64190895D01*
X160008620Y-64096184D01*
X160004776Y-64088098D01*
X160007776Y-64079660D01*
X160008621Y-64078815D01*
X160539290Y-63599789D01*
X160547727Y-63596790D01*
X160553072Y-63598397D01*
G37*
%TD.AperFunction*%
%TD*%
M02*
