%TF.GenerationSoftware,KiCad,Pcbnew,8.0.7*%
%TF.CreationDate,2025-01-12T01:40:59+08:00*%
%TF.ProjectId,power,706f7765-722e-46b6-9963-61645f706362,rev?*%
%TF.SameCoordinates,Original*%
%TF.FileFunction,Drillmap*%
%TF.FilePolarity,Positive*%
%FSLAX45Y45*%
G04 Gerber Fmt 4.5, Leading zero omitted, Abs format (unit mm)*
G04 Created by KiCad (PCBNEW 8.0.7) date 2025-01-12 01:40:59*
%MOMM*%
%LPD*%
G01*
G04 APERTURE LIST*
%ADD10C,0.050000*%
%ADD11C,0.200000*%
%ADD12C,0.100000*%
%ADD13C,0.102000*%
%ADD14C,0.120000*%
G04 APERTURE END LIST*
D10*
X15000000Y-6150000D02*
X19000000Y-6150000D01*
X19000000Y-8550000D01*
X15000000Y-8550000D01*
X15000000Y-6150000D01*
D11*
D12*
X16235000Y-6235000D02*
X16265000Y-6265000D01*
X16265000Y-6235000D02*
X16235000Y-6265000D01*
X16277426Y-7942574D02*
X16307426Y-7972574D01*
X16307426Y-7942574D02*
X16277426Y-7972574D01*
X16485000Y-7235000D02*
X16515000Y-7265000D01*
X16515000Y-7235000D02*
X16485000Y-7265000D01*
X16738000Y-6285000D02*
X16768000Y-6315000D01*
X16768000Y-6285000D02*
X16738000Y-6315000D01*
X16998750Y-7221250D02*
X17028750Y-7251250D01*
X17028750Y-7221250D02*
X16998750Y-7251250D01*
X18735000Y-7485000D02*
X18765000Y-7515000D01*
X18765000Y-7485000D02*
X18735000Y-7515000D01*
X16040000Y-6992000D02*
G75*
G02*
X15960000Y-6992000I-40000J0D01*
G01*
X15960000Y-6992000D02*
G75*
G02*
X16040000Y-6992000I40000J0D01*
G01*
X16040000Y-7246000D02*
G75*
G02*
X15960000Y-7246000I-40000J0D01*
G01*
X15960000Y-7246000D02*
G75*
G02*
X16040000Y-7246000I40000J0D01*
G01*
X16040000Y-7500000D02*
G75*
G02*
X15960000Y-7500000I-40000J0D01*
G01*
X15960000Y-7500000D02*
G75*
G02*
X16040000Y-7500000I40000J0D01*
G01*
D13*
X15250000Y-6445000D02*
X15250000Y-6547000D01*
X15199000Y-6496000D02*
X15301000Y-6496000D01*
X15250000Y-6699000D02*
X15250000Y-6801000D01*
X15199000Y-6750000D02*
X15301000Y-6750000D01*
X18750000Y-6445000D02*
X18750000Y-6547000D01*
X18699000Y-6496000D02*
X18801000Y-6496000D01*
X18750000Y-6699000D02*
X18750000Y-6801000D01*
X18699000Y-6750000D02*
X18801000Y-6750000D01*
D14*
X15292427Y-8042427D02*
X15292427Y-7957573D01*
X15207573Y-7957573D01*
X15207573Y-8042427D01*
X15292427Y-8042427D01*
X15292427Y-8296427D02*
X15292427Y-8211573D01*
X15207573Y-8211573D01*
X15207573Y-8296427D01*
X15292427Y-8296427D01*
X18792427Y-8042427D02*
X18792427Y-7957573D01*
X18707573Y-7957573D01*
X18707573Y-8042427D01*
X18792427Y-8042427D01*
X18792427Y-8296427D02*
X18792427Y-8211573D01*
X18707573Y-8211573D01*
X18707573Y-8296427D01*
X18792427Y-8296427D01*
D11*
X15258277Y-8863984D02*
X15258277Y-8663984D01*
X15258277Y-8663984D02*
X15305896Y-8663984D01*
X15305896Y-8663984D02*
X15334467Y-8673508D01*
X15334467Y-8673508D02*
X15353515Y-8692555D01*
X15353515Y-8692555D02*
X15363039Y-8711603D01*
X15363039Y-8711603D02*
X15372562Y-8749698D01*
X15372562Y-8749698D02*
X15372562Y-8778270D01*
X15372562Y-8778270D02*
X15363039Y-8816365D01*
X15363039Y-8816365D02*
X15353515Y-8835412D01*
X15353515Y-8835412D02*
X15334467Y-8854460D01*
X15334467Y-8854460D02*
X15305896Y-8863984D01*
X15305896Y-8863984D02*
X15258277Y-8863984D01*
X15458277Y-8863984D02*
X15458277Y-8730650D01*
X15458277Y-8768746D02*
X15467801Y-8749698D01*
X15467801Y-8749698D02*
X15477324Y-8740174D01*
X15477324Y-8740174D02*
X15496372Y-8730650D01*
X15496372Y-8730650D02*
X15515420Y-8730650D01*
X15582086Y-8863984D02*
X15582086Y-8730650D01*
X15582086Y-8663984D02*
X15572562Y-8673508D01*
X15572562Y-8673508D02*
X15582086Y-8683031D01*
X15582086Y-8683031D02*
X15591610Y-8673508D01*
X15591610Y-8673508D02*
X15582086Y-8663984D01*
X15582086Y-8663984D02*
X15582086Y-8683031D01*
X15705896Y-8863984D02*
X15686848Y-8854460D01*
X15686848Y-8854460D02*
X15677324Y-8835412D01*
X15677324Y-8835412D02*
X15677324Y-8663984D01*
X15810658Y-8863984D02*
X15791610Y-8854460D01*
X15791610Y-8854460D02*
X15782086Y-8835412D01*
X15782086Y-8835412D02*
X15782086Y-8663984D01*
X16039229Y-8863984D02*
X16039229Y-8663984D01*
X16039229Y-8663984D02*
X16105896Y-8806841D01*
X16105896Y-8806841D02*
X16172562Y-8663984D01*
X16172562Y-8663984D02*
X16172562Y-8863984D01*
X16353515Y-8863984D02*
X16353515Y-8759222D01*
X16353515Y-8759222D02*
X16343991Y-8740174D01*
X16343991Y-8740174D02*
X16324943Y-8730650D01*
X16324943Y-8730650D02*
X16286848Y-8730650D01*
X16286848Y-8730650D02*
X16267801Y-8740174D01*
X16353515Y-8854460D02*
X16334467Y-8863984D01*
X16334467Y-8863984D02*
X16286848Y-8863984D01*
X16286848Y-8863984D02*
X16267801Y-8854460D01*
X16267801Y-8854460D02*
X16258277Y-8835412D01*
X16258277Y-8835412D02*
X16258277Y-8816365D01*
X16258277Y-8816365D02*
X16267801Y-8797317D01*
X16267801Y-8797317D02*
X16286848Y-8787793D01*
X16286848Y-8787793D02*
X16334467Y-8787793D01*
X16334467Y-8787793D02*
X16353515Y-8778270D01*
X16448753Y-8730650D02*
X16448753Y-8930650D01*
X16448753Y-8740174D02*
X16467801Y-8730650D01*
X16467801Y-8730650D02*
X16505896Y-8730650D01*
X16505896Y-8730650D02*
X16524943Y-8740174D01*
X16524943Y-8740174D02*
X16534467Y-8749698D01*
X16534467Y-8749698D02*
X16543991Y-8768746D01*
X16543991Y-8768746D02*
X16543991Y-8825889D01*
X16543991Y-8825889D02*
X16534467Y-8844936D01*
X16534467Y-8844936D02*
X16524943Y-8854460D01*
X16524943Y-8854460D02*
X16505896Y-8863984D01*
X16505896Y-8863984D02*
X16467801Y-8863984D01*
X16467801Y-8863984D02*
X16448753Y-8854460D01*
X16629705Y-8844936D02*
X16639229Y-8854460D01*
X16639229Y-8854460D02*
X16629705Y-8863984D01*
X16629705Y-8863984D02*
X16620182Y-8854460D01*
X16620182Y-8854460D02*
X16629705Y-8844936D01*
X16629705Y-8844936D02*
X16629705Y-8863984D01*
X16629705Y-8740174D02*
X16639229Y-8749698D01*
X16639229Y-8749698D02*
X16629705Y-8759222D01*
X16629705Y-8759222D02*
X16620182Y-8749698D01*
X16620182Y-8749698D02*
X16629705Y-8740174D01*
X16629705Y-8740174D02*
X16629705Y-8759222D01*
D12*
X14967500Y-9177500D02*
X14997500Y-9207500D01*
X14997500Y-9177500D02*
X14967500Y-9207500D01*
D11*
X15296372Y-9083984D02*
X15315420Y-9083984D01*
X15315420Y-9083984D02*
X15334467Y-9093508D01*
X15334467Y-9093508D02*
X15343991Y-9103031D01*
X15343991Y-9103031D02*
X15353515Y-9122079D01*
X15353515Y-9122079D02*
X15363039Y-9160174D01*
X15363039Y-9160174D02*
X15363039Y-9207793D01*
X15363039Y-9207793D02*
X15353515Y-9245889D01*
X15353515Y-9245889D02*
X15343991Y-9264936D01*
X15343991Y-9264936D02*
X15334467Y-9274460D01*
X15334467Y-9274460D02*
X15315420Y-9283984D01*
X15315420Y-9283984D02*
X15296372Y-9283984D01*
X15296372Y-9283984D02*
X15277324Y-9274460D01*
X15277324Y-9274460D02*
X15267801Y-9264936D01*
X15267801Y-9264936D02*
X15258277Y-9245889D01*
X15258277Y-9245889D02*
X15248753Y-9207793D01*
X15248753Y-9207793D02*
X15248753Y-9160174D01*
X15248753Y-9160174D02*
X15258277Y-9122079D01*
X15258277Y-9122079D02*
X15267801Y-9103031D01*
X15267801Y-9103031D02*
X15277324Y-9093508D01*
X15277324Y-9093508D02*
X15296372Y-9083984D01*
X15448753Y-9264936D02*
X15458277Y-9274460D01*
X15458277Y-9274460D02*
X15448753Y-9283984D01*
X15448753Y-9283984D02*
X15439229Y-9274460D01*
X15439229Y-9274460D02*
X15448753Y-9264936D01*
X15448753Y-9264936D02*
X15448753Y-9283984D01*
X15524943Y-9083984D02*
X15648753Y-9083984D01*
X15648753Y-9083984D02*
X15582086Y-9160174D01*
X15582086Y-9160174D02*
X15610658Y-9160174D01*
X15610658Y-9160174D02*
X15629705Y-9169698D01*
X15629705Y-9169698D02*
X15639229Y-9179222D01*
X15639229Y-9179222D02*
X15648753Y-9198270D01*
X15648753Y-9198270D02*
X15648753Y-9245889D01*
X15648753Y-9245889D02*
X15639229Y-9264936D01*
X15639229Y-9264936D02*
X15629705Y-9274460D01*
X15629705Y-9274460D02*
X15610658Y-9283984D01*
X15610658Y-9283984D02*
X15553515Y-9283984D01*
X15553515Y-9283984D02*
X15534467Y-9274460D01*
X15534467Y-9274460D02*
X15524943Y-9264936D01*
X15772562Y-9083984D02*
X15791610Y-9083984D01*
X15791610Y-9083984D02*
X15810658Y-9093508D01*
X15810658Y-9093508D02*
X15820182Y-9103031D01*
X15820182Y-9103031D02*
X15829705Y-9122079D01*
X15829705Y-9122079D02*
X15839229Y-9160174D01*
X15839229Y-9160174D02*
X15839229Y-9207793D01*
X15839229Y-9207793D02*
X15829705Y-9245889D01*
X15829705Y-9245889D02*
X15820182Y-9264936D01*
X15820182Y-9264936D02*
X15810658Y-9274460D01*
X15810658Y-9274460D02*
X15791610Y-9283984D01*
X15791610Y-9283984D02*
X15772562Y-9283984D01*
X15772562Y-9283984D02*
X15753515Y-9274460D01*
X15753515Y-9274460D02*
X15743991Y-9264936D01*
X15743991Y-9264936D02*
X15734467Y-9245889D01*
X15734467Y-9245889D02*
X15724943Y-9207793D01*
X15724943Y-9207793D02*
X15724943Y-9160174D01*
X15724943Y-9160174D02*
X15734467Y-9122079D01*
X15734467Y-9122079D02*
X15743991Y-9103031D01*
X15743991Y-9103031D02*
X15753515Y-9093508D01*
X15753515Y-9093508D02*
X15772562Y-9083984D01*
X15963039Y-9083984D02*
X15982086Y-9083984D01*
X15982086Y-9083984D02*
X16001134Y-9093508D01*
X16001134Y-9093508D02*
X16010658Y-9103031D01*
X16010658Y-9103031D02*
X16020182Y-9122079D01*
X16020182Y-9122079D02*
X16029705Y-9160174D01*
X16029705Y-9160174D02*
X16029705Y-9207793D01*
X16029705Y-9207793D02*
X16020182Y-9245889D01*
X16020182Y-9245889D02*
X16010658Y-9264936D01*
X16010658Y-9264936D02*
X16001134Y-9274460D01*
X16001134Y-9274460D02*
X15982086Y-9283984D01*
X15982086Y-9283984D02*
X15963039Y-9283984D01*
X15963039Y-9283984D02*
X15943991Y-9274460D01*
X15943991Y-9274460D02*
X15934467Y-9264936D01*
X15934467Y-9264936D02*
X15924943Y-9245889D01*
X15924943Y-9245889D02*
X15915420Y-9207793D01*
X15915420Y-9207793D02*
X15915420Y-9160174D01*
X15915420Y-9160174D02*
X15924943Y-9122079D01*
X15924943Y-9122079D02*
X15934467Y-9103031D01*
X15934467Y-9103031D02*
X15943991Y-9093508D01*
X15943991Y-9093508D02*
X15963039Y-9083984D01*
X16115420Y-9283984D02*
X16115420Y-9150650D01*
X16115420Y-9169698D02*
X16124943Y-9160174D01*
X16124943Y-9160174D02*
X16143991Y-9150650D01*
X16143991Y-9150650D02*
X16172563Y-9150650D01*
X16172563Y-9150650D02*
X16191610Y-9160174D01*
X16191610Y-9160174D02*
X16201134Y-9179222D01*
X16201134Y-9179222D02*
X16201134Y-9283984D01*
X16201134Y-9179222D02*
X16210658Y-9160174D01*
X16210658Y-9160174D02*
X16229705Y-9150650D01*
X16229705Y-9150650D02*
X16258277Y-9150650D01*
X16258277Y-9150650D02*
X16277324Y-9160174D01*
X16277324Y-9160174D02*
X16286848Y-9179222D01*
X16286848Y-9179222D02*
X16286848Y-9283984D01*
X16382086Y-9283984D02*
X16382086Y-9150650D01*
X16382086Y-9169698D02*
X16391610Y-9160174D01*
X16391610Y-9160174D02*
X16410658Y-9150650D01*
X16410658Y-9150650D02*
X16439229Y-9150650D01*
X16439229Y-9150650D02*
X16458277Y-9160174D01*
X16458277Y-9160174D02*
X16467801Y-9179222D01*
X16467801Y-9179222D02*
X16467801Y-9283984D01*
X16467801Y-9179222D02*
X16477324Y-9160174D01*
X16477324Y-9160174D02*
X16496372Y-9150650D01*
X16496372Y-9150650D02*
X16524943Y-9150650D01*
X16524943Y-9150650D02*
X16543991Y-9160174D01*
X16543991Y-9160174D02*
X16553515Y-9179222D01*
X16553515Y-9179222D02*
X16553515Y-9283984D01*
X16943991Y-9074460D02*
X16772563Y-9331603D01*
X17201134Y-9083984D02*
X17220182Y-9083984D01*
X17220182Y-9083984D02*
X17239229Y-9093508D01*
X17239229Y-9093508D02*
X17248753Y-9103031D01*
X17248753Y-9103031D02*
X17258277Y-9122079D01*
X17258277Y-9122079D02*
X17267801Y-9160174D01*
X17267801Y-9160174D02*
X17267801Y-9207793D01*
X17267801Y-9207793D02*
X17258277Y-9245889D01*
X17258277Y-9245889D02*
X17248753Y-9264936D01*
X17248753Y-9264936D02*
X17239229Y-9274460D01*
X17239229Y-9274460D02*
X17220182Y-9283984D01*
X17220182Y-9283984D02*
X17201134Y-9283984D01*
X17201134Y-9283984D02*
X17182087Y-9274460D01*
X17182087Y-9274460D02*
X17172563Y-9264936D01*
X17172563Y-9264936D02*
X17163039Y-9245889D01*
X17163039Y-9245889D02*
X17153515Y-9207793D01*
X17153515Y-9207793D02*
X17153515Y-9160174D01*
X17153515Y-9160174D02*
X17163039Y-9122079D01*
X17163039Y-9122079D02*
X17172563Y-9103031D01*
X17172563Y-9103031D02*
X17182087Y-9093508D01*
X17182087Y-9093508D02*
X17201134Y-9083984D01*
X17353515Y-9264936D02*
X17363039Y-9274460D01*
X17363039Y-9274460D02*
X17353515Y-9283984D01*
X17353515Y-9283984D02*
X17343991Y-9274460D01*
X17343991Y-9274460D02*
X17353515Y-9264936D01*
X17353515Y-9264936D02*
X17353515Y-9283984D01*
X17486848Y-9083984D02*
X17505896Y-9083984D01*
X17505896Y-9083984D02*
X17524944Y-9093508D01*
X17524944Y-9093508D02*
X17534468Y-9103031D01*
X17534468Y-9103031D02*
X17543991Y-9122079D01*
X17543991Y-9122079D02*
X17553515Y-9160174D01*
X17553515Y-9160174D02*
X17553515Y-9207793D01*
X17553515Y-9207793D02*
X17543991Y-9245889D01*
X17543991Y-9245889D02*
X17534468Y-9264936D01*
X17534468Y-9264936D02*
X17524944Y-9274460D01*
X17524944Y-9274460D02*
X17505896Y-9283984D01*
X17505896Y-9283984D02*
X17486848Y-9283984D01*
X17486848Y-9283984D02*
X17467801Y-9274460D01*
X17467801Y-9274460D02*
X17458277Y-9264936D01*
X17458277Y-9264936D02*
X17448753Y-9245889D01*
X17448753Y-9245889D02*
X17439229Y-9207793D01*
X17439229Y-9207793D02*
X17439229Y-9160174D01*
X17439229Y-9160174D02*
X17448753Y-9122079D01*
X17448753Y-9122079D02*
X17458277Y-9103031D01*
X17458277Y-9103031D02*
X17467801Y-9093508D01*
X17467801Y-9093508D02*
X17486848Y-9083984D01*
X17743991Y-9283984D02*
X17629706Y-9283984D01*
X17686848Y-9283984D02*
X17686848Y-9083984D01*
X17686848Y-9083984D02*
X17667801Y-9112555D01*
X17667801Y-9112555D02*
X17648753Y-9131603D01*
X17648753Y-9131603D02*
X17629706Y-9141127D01*
X17934468Y-9283984D02*
X17820182Y-9283984D01*
X17877325Y-9283984D02*
X17877325Y-9083984D01*
X17877325Y-9083984D02*
X17858277Y-9112555D01*
X17858277Y-9112555D02*
X17839229Y-9131603D01*
X17839229Y-9131603D02*
X17820182Y-9141127D01*
X18048753Y-9169698D02*
X18029706Y-9160174D01*
X18029706Y-9160174D02*
X18020182Y-9150650D01*
X18020182Y-9150650D02*
X18010658Y-9131603D01*
X18010658Y-9131603D02*
X18010658Y-9122079D01*
X18010658Y-9122079D02*
X18020182Y-9103031D01*
X18020182Y-9103031D02*
X18029706Y-9093508D01*
X18029706Y-9093508D02*
X18048753Y-9083984D01*
X18048753Y-9083984D02*
X18086849Y-9083984D01*
X18086849Y-9083984D02*
X18105896Y-9093508D01*
X18105896Y-9093508D02*
X18115420Y-9103031D01*
X18115420Y-9103031D02*
X18124944Y-9122079D01*
X18124944Y-9122079D02*
X18124944Y-9131603D01*
X18124944Y-9131603D02*
X18115420Y-9150650D01*
X18115420Y-9150650D02*
X18105896Y-9160174D01*
X18105896Y-9160174D02*
X18086849Y-9169698D01*
X18086849Y-9169698D02*
X18048753Y-9169698D01*
X18048753Y-9169698D02*
X18029706Y-9179222D01*
X18029706Y-9179222D02*
X18020182Y-9188746D01*
X18020182Y-9188746D02*
X18010658Y-9207793D01*
X18010658Y-9207793D02*
X18010658Y-9245889D01*
X18010658Y-9245889D02*
X18020182Y-9264936D01*
X18020182Y-9264936D02*
X18029706Y-9274460D01*
X18029706Y-9274460D02*
X18048753Y-9283984D01*
X18048753Y-9283984D02*
X18086849Y-9283984D01*
X18086849Y-9283984D02*
X18105896Y-9274460D01*
X18105896Y-9274460D02*
X18115420Y-9264936D01*
X18115420Y-9264936D02*
X18124944Y-9245889D01*
X18124944Y-9245889D02*
X18124944Y-9207793D01*
X18124944Y-9207793D02*
X18115420Y-9188746D01*
X18115420Y-9188746D02*
X18105896Y-9179222D01*
X18105896Y-9179222D02*
X18086849Y-9169698D01*
X18201134Y-9083984D02*
X18201134Y-9122079D01*
X18277325Y-9083984D02*
X18277325Y-9122079D01*
X18572563Y-9360174D02*
X18563039Y-9350650D01*
X18563039Y-9350650D02*
X18543991Y-9322079D01*
X18543991Y-9322079D02*
X18534468Y-9303031D01*
X18534468Y-9303031D02*
X18524944Y-9274460D01*
X18524944Y-9274460D02*
X18515420Y-9226841D01*
X18515420Y-9226841D02*
X18515420Y-9188746D01*
X18515420Y-9188746D02*
X18524944Y-9141127D01*
X18524944Y-9141127D02*
X18534468Y-9112555D01*
X18534468Y-9112555D02*
X18543991Y-9093508D01*
X18543991Y-9093508D02*
X18563039Y-9064936D01*
X18563039Y-9064936D02*
X18572563Y-9055412D01*
X18734468Y-9083984D02*
X18696372Y-9083984D01*
X18696372Y-9083984D02*
X18677325Y-9093508D01*
X18677325Y-9093508D02*
X18667801Y-9103031D01*
X18667801Y-9103031D02*
X18648753Y-9131603D01*
X18648753Y-9131603D02*
X18639230Y-9169698D01*
X18639230Y-9169698D02*
X18639230Y-9245889D01*
X18639230Y-9245889D02*
X18648753Y-9264936D01*
X18648753Y-9264936D02*
X18658277Y-9274460D01*
X18658277Y-9274460D02*
X18677325Y-9283984D01*
X18677325Y-9283984D02*
X18715420Y-9283984D01*
X18715420Y-9283984D02*
X18734468Y-9274460D01*
X18734468Y-9274460D02*
X18743991Y-9264936D01*
X18743991Y-9264936D02*
X18753515Y-9245889D01*
X18753515Y-9245889D02*
X18753515Y-9198270D01*
X18753515Y-9198270D02*
X18743991Y-9179222D01*
X18743991Y-9179222D02*
X18734468Y-9169698D01*
X18734468Y-9169698D02*
X18715420Y-9160174D01*
X18715420Y-9160174D02*
X18677325Y-9160174D01*
X18677325Y-9160174D02*
X18658277Y-9169698D01*
X18658277Y-9169698D02*
X18648753Y-9179222D01*
X18648753Y-9179222D02*
X18639230Y-9198270D01*
X18991611Y-9283984D02*
X18991611Y-9083984D01*
X19077325Y-9283984D02*
X19077325Y-9179222D01*
X19077325Y-9179222D02*
X19067801Y-9160174D01*
X19067801Y-9160174D02*
X19048753Y-9150650D01*
X19048753Y-9150650D02*
X19020182Y-9150650D01*
X19020182Y-9150650D02*
X19001134Y-9160174D01*
X19001134Y-9160174D02*
X18991611Y-9169698D01*
X19201134Y-9283984D02*
X19182087Y-9274460D01*
X19182087Y-9274460D02*
X19172563Y-9264936D01*
X19172563Y-9264936D02*
X19163039Y-9245889D01*
X19163039Y-9245889D02*
X19163039Y-9188746D01*
X19163039Y-9188746D02*
X19172563Y-9169698D01*
X19172563Y-9169698D02*
X19182087Y-9160174D01*
X19182087Y-9160174D02*
X19201134Y-9150650D01*
X19201134Y-9150650D02*
X19229706Y-9150650D01*
X19229706Y-9150650D02*
X19248753Y-9160174D01*
X19248753Y-9160174D02*
X19258277Y-9169698D01*
X19258277Y-9169698D02*
X19267801Y-9188746D01*
X19267801Y-9188746D02*
X19267801Y-9245889D01*
X19267801Y-9245889D02*
X19258277Y-9264936D01*
X19258277Y-9264936D02*
X19248753Y-9274460D01*
X19248753Y-9274460D02*
X19229706Y-9283984D01*
X19229706Y-9283984D02*
X19201134Y-9283984D01*
X19382087Y-9283984D02*
X19363039Y-9274460D01*
X19363039Y-9274460D02*
X19353515Y-9255412D01*
X19353515Y-9255412D02*
X19353515Y-9083984D01*
X19534468Y-9274460D02*
X19515420Y-9283984D01*
X19515420Y-9283984D02*
X19477325Y-9283984D01*
X19477325Y-9283984D02*
X19458277Y-9274460D01*
X19458277Y-9274460D02*
X19448753Y-9255412D01*
X19448753Y-9255412D02*
X19448753Y-9179222D01*
X19448753Y-9179222D02*
X19458277Y-9160174D01*
X19458277Y-9160174D02*
X19477325Y-9150650D01*
X19477325Y-9150650D02*
X19515420Y-9150650D01*
X19515420Y-9150650D02*
X19534468Y-9160174D01*
X19534468Y-9160174D02*
X19543992Y-9179222D01*
X19543992Y-9179222D02*
X19543992Y-9198270D01*
X19543992Y-9198270D02*
X19448753Y-9217317D01*
X19620182Y-9274460D02*
X19639230Y-9283984D01*
X19639230Y-9283984D02*
X19677325Y-9283984D01*
X19677325Y-9283984D02*
X19696373Y-9274460D01*
X19696373Y-9274460D02*
X19705896Y-9255412D01*
X19705896Y-9255412D02*
X19705896Y-9245889D01*
X19705896Y-9245889D02*
X19696373Y-9226841D01*
X19696373Y-9226841D02*
X19677325Y-9217317D01*
X19677325Y-9217317D02*
X19648753Y-9217317D01*
X19648753Y-9217317D02*
X19629706Y-9207793D01*
X19629706Y-9207793D02*
X19620182Y-9188746D01*
X19620182Y-9188746D02*
X19620182Y-9179222D01*
X19620182Y-9179222D02*
X19629706Y-9160174D01*
X19629706Y-9160174D02*
X19648753Y-9150650D01*
X19648753Y-9150650D02*
X19677325Y-9150650D01*
X19677325Y-9150650D02*
X19696373Y-9160174D01*
X19772563Y-9360174D02*
X19782087Y-9350650D01*
X19782087Y-9350650D02*
X19801134Y-9322079D01*
X19801134Y-9322079D02*
X19810658Y-9303031D01*
X19810658Y-9303031D02*
X19820182Y-9274460D01*
X19820182Y-9274460D02*
X19829706Y-9226841D01*
X19829706Y-9226841D02*
X19829706Y-9188746D01*
X19829706Y-9188746D02*
X19820182Y-9141127D01*
X19820182Y-9141127D02*
X19810658Y-9112555D01*
X19810658Y-9112555D02*
X19801134Y-9093508D01*
X19801134Y-9093508D02*
X19782087Y-9064936D01*
X19782087Y-9064936D02*
X19772563Y-9055412D01*
D12*
X14997500Y-9456500D02*
G75*
G02*
X14917500Y-9456500I-40000J0D01*
G01*
X14917500Y-9456500D02*
G75*
G02*
X14997500Y-9456500I40000J0D01*
G01*
D11*
X15296372Y-9347984D02*
X15315420Y-9347984D01*
X15315420Y-9347984D02*
X15334467Y-9357508D01*
X15334467Y-9357508D02*
X15343991Y-9367031D01*
X15343991Y-9367031D02*
X15353515Y-9386079D01*
X15353515Y-9386079D02*
X15363039Y-9424174D01*
X15363039Y-9424174D02*
X15363039Y-9471793D01*
X15363039Y-9471793D02*
X15353515Y-9509889D01*
X15353515Y-9509889D02*
X15343991Y-9528936D01*
X15343991Y-9528936D02*
X15334467Y-9538460D01*
X15334467Y-9538460D02*
X15315420Y-9547984D01*
X15315420Y-9547984D02*
X15296372Y-9547984D01*
X15296372Y-9547984D02*
X15277324Y-9538460D01*
X15277324Y-9538460D02*
X15267801Y-9528936D01*
X15267801Y-9528936D02*
X15258277Y-9509889D01*
X15258277Y-9509889D02*
X15248753Y-9471793D01*
X15248753Y-9471793D02*
X15248753Y-9424174D01*
X15248753Y-9424174D02*
X15258277Y-9386079D01*
X15258277Y-9386079D02*
X15267801Y-9367031D01*
X15267801Y-9367031D02*
X15277324Y-9357508D01*
X15277324Y-9357508D02*
X15296372Y-9347984D01*
X15448753Y-9528936D02*
X15458277Y-9538460D01*
X15458277Y-9538460D02*
X15448753Y-9547984D01*
X15448753Y-9547984D02*
X15439229Y-9538460D01*
X15439229Y-9538460D02*
X15448753Y-9528936D01*
X15448753Y-9528936D02*
X15448753Y-9547984D01*
X15572562Y-9433698D02*
X15553515Y-9424174D01*
X15553515Y-9424174D02*
X15543991Y-9414650D01*
X15543991Y-9414650D02*
X15534467Y-9395603D01*
X15534467Y-9395603D02*
X15534467Y-9386079D01*
X15534467Y-9386079D02*
X15543991Y-9367031D01*
X15543991Y-9367031D02*
X15553515Y-9357508D01*
X15553515Y-9357508D02*
X15572562Y-9347984D01*
X15572562Y-9347984D02*
X15610658Y-9347984D01*
X15610658Y-9347984D02*
X15629705Y-9357508D01*
X15629705Y-9357508D02*
X15639229Y-9367031D01*
X15639229Y-9367031D02*
X15648753Y-9386079D01*
X15648753Y-9386079D02*
X15648753Y-9395603D01*
X15648753Y-9395603D02*
X15639229Y-9414650D01*
X15639229Y-9414650D02*
X15629705Y-9424174D01*
X15629705Y-9424174D02*
X15610658Y-9433698D01*
X15610658Y-9433698D02*
X15572562Y-9433698D01*
X15572562Y-9433698D02*
X15553515Y-9443222D01*
X15553515Y-9443222D02*
X15543991Y-9452746D01*
X15543991Y-9452746D02*
X15534467Y-9471793D01*
X15534467Y-9471793D02*
X15534467Y-9509889D01*
X15534467Y-9509889D02*
X15543991Y-9528936D01*
X15543991Y-9528936D02*
X15553515Y-9538460D01*
X15553515Y-9538460D02*
X15572562Y-9547984D01*
X15572562Y-9547984D02*
X15610658Y-9547984D01*
X15610658Y-9547984D02*
X15629705Y-9538460D01*
X15629705Y-9538460D02*
X15639229Y-9528936D01*
X15639229Y-9528936D02*
X15648753Y-9509889D01*
X15648753Y-9509889D02*
X15648753Y-9471793D01*
X15648753Y-9471793D02*
X15639229Y-9452746D01*
X15639229Y-9452746D02*
X15629705Y-9443222D01*
X15629705Y-9443222D02*
X15610658Y-9433698D01*
X15772562Y-9347984D02*
X15791610Y-9347984D01*
X15791610Y-9347984D02*
X15810658Y-9357508D01*
X15810658Y-9357508D02*
X15820182Y-9367031D01*
X15820182Y-9367031D02*
X15829705Y-9386079D01*
X15829705Y-9386079D02*
X15839229Y-9424174D01*
X15839229Y-9424174D02*
X15839229Y-9471793D01*
X15839229Y-9471793D02*
X15829705Y-9509889D01*
X15829705Y-9509889D02*
X15820182Y-9528936D01*
X15820182Y-9528936D02*
X15810658Y-9538460D01*
X15810658Y-9538460D02*
X15791610Y-9547984D01*
X15791610Y-9547984D02*
X15772562Y-9547984D01*
X15772562Y-9547984D02*
X15753515Y-9538460D01*
X15753515Y-9538460D02*
X15743991Y-9528936D01*
X15743991Y-9528936D02*
X15734467Y-9509889D01*
X15734467Y-9509889D02*
X15724943Y-9471793D01*
X15724943Y-9471793D02*
X15724943Y-9424174D01*
X15724943Y-9424174D02*
X15734467Y-9386079D01*
X15734467Y-9386079D02*
X15743991Y-9367031D01*
X15743991Y-9367031D02*
X15753515Y-9357508D01*
X15753515Y-9357508D02*
X15772562Y-9347984D01*
X15963039Y-9347984D02*
X15982086Y-9347984D01*
X15982086Y-9347984D02*
X16001134Y-9357508D01*
X16001134Y-9357508D02*
X16010658Y-9367031D01*
X16010658Y-9367031D02*
X16020182Y-9386079D01*
X16020182Y-9386079D02*
X16029705Y-9424174D01*
X16029705Y-9424174D02*
X16029705Y-9471793D01*
X16029705Y-9471793D02*
X16020182Y-9509889D01*
X16020182Y-9509889D02*
X16010658Y-9528936D01*
X16010658Y-9528936D02*
X16001134Y-9538460D01*
X16001134Y-9538460D02*
X15982086Y-9547984D01*
X15982086Y-9547984D02*
X15963039Y-9547984D01*
X15963039Y-9547984D02*
X15943991Y-9538460D01*
X15943991Y-9538460D02*
X15934467Y-9528936D01*
X15934467Y-9528936D02*
X15924943Y-9509889D01*
X15924943Y-9509889D02*
X15915420Y-9471793D01*
X15915420Y-9471793D02*
X15915420Y-9424174D01*
X15915420Y-9424174D02*
X15924943Y-9386079D01*
X15924943Y-9386079D02*
X15934467Y-9367031D01*
X15934467Y-9367031D02*
X15943991Y-9357508D01*
X15943991Y-9357508D02*
X15963039Y-9347984D01*
X16115420Y-9547984D02*
X16115420Y-9414650D01*
X16115420Y-9433698D02*
X16124943Y-9424174D01*
X16124943Y-9424174D02*
X16143991Y-9414650D01*
X16143991Y-9414650D02*
X16172563Y-9414650D01*
X16172563Y-9414650D02*
X16191610Y-9424174D01*
X16191610Y-9424174D02*
X16201134Y-9443222D01*
X16201134Y-9443222D02*
X16201134Y-9547984D01*
X16201134Y-9443222D02*
X16210658Y-9424174D01*
X16210658Y-9424174D02*
X16229705Y-9414650D01*
X16229705Y-9414650D02*
X16258277Y-9414650D01*
X16258277Y-9414650D02*
X16277324Y-9424174D01*
X16277324Y-9424174D02*
X16286848Y-9443222D01*
X16286848Y-9443222D02*
X16286848Y-9547984D01*
X16382086Y-9547984D02*
X16382086Y-9414650D01*
X16382086Y-9433698D02*
X16391610Y-9424174D01*
X16391610Y-9424174D02*
X16410658Y-9414650D01*
X16410658Y-9414650D02*
X16439229Y-9414650D01*
X16439229Y-9414650D02*
X16458277Y-9424174D01*
X16458277Y-9424174D02*
X16467801Y-9443222D01*
X16467801Y-9443222D02*
X16467801Y-9547984D01*
X16467801Y-9443222D02*
X16477324Y-9424174D01*
X16477324Y-9424174D02*
X16496372Y-9414650D01*
X16496372Y-9414650D02*
X16524943Y-9414650D01*
X16524943Y-9414650D02*
X16543991Y-9424174D01*
X16543991Y-9424174D02*
X16553515Y-9443222D01*
X16553515Y-9443222D02*
X16553515Y-9547984D01*
X16943991Y-9338460D02*
X16772563Y-9595603D01*
X17201134Y-9347984D02*
X17220182Y-9347984D01*
X17220182Y-9347984D02*
X17239229Y-9357508D01*
X17239229Y-9357508D02*
X17248753Y-9367031D01*
X17248753Y-9367031D02*
X17258277Y-9386079D01*
X17258277Y-9386079D02*
X17267801Y-9424174D01*
X17267801Y-9424174D02*
X17267801Y-9471793D01*
X17267801Y-9471793D02*
X17258277Y-9509889D01*
X17258277Y-9509889D02*
X17248753Y-9528936D01*
X17248753Y-9528936D02*
X17239229Y-9538460D01*
X17239229Y-9538460D02*
X17220182Y-9547984D01*
X17220182Y-9547984D02*
X17201134Y-9547984D01*
X17201134Y-9547984D02*
X17182087Y-9538460D01*
X17182087Y-9538460D02*
X17172563Y-9528936D01*
X17172563Y-9528936D02*
X17163039Y-9509889D01*
X17163039Y-9509889D02*
X17153515Y-9471793D01*
X17153515Y-9471793D02*
X17153515Y-9424174D01*
X17153515Y-9424174D02*
X17163039Y-9386079D01*
X17163039Y-9386079D02*
X17172563Y-9367031D01*
X17172563Y-9367031D02*
X17182087Y-9357508D01*
X17182087Y-9357508D02*
X17201134Y-9347984D01*
X17353515Y-9528936D02*
X17363039Y-9538460D01*
X17363039Y-9538460D02*
X17353515Y-9547984D01*
X17353515Y-9547984D02*
X17343991Y-9538460D01*
X17343991Y-9538460D02*
X17353515Y-9528936D01*
X17353515Y-9528936D02*
X17353515Y-9547984D01*
X17486848Y-9347984D02*
X17505896Y-9347984D01*
X17505896Y-9347984D02*
X17524944Y-9357508D01*
X17524944Y-9357508D02*
X17534468Y-9367031D01*
X17534468Y-9367031D02*
X17543991Y-9386079D01*
X17543991Y-9386079D02*
X17553515Y-9424174D01*
X17553515Y-9424174D02*
X17553515Y-9471793D01*
X17553515Y-9471793D02*
X17543991Y-9509889D01*
X17543991Y-9509889D02*
X17534468Y-9528936D01*
X17534468Y-9528936D02*
X17524944Y-9538460D01*
X17524944Y-9538460D02*
X17505896Y-9547984D01*
X17505896Y-9547984D02*
X17486848Y-9547984D01*
X17486848Y-9547984D02*
X17467801Y-9538460D01*
X17467801Y-9538460D02*
X17458277Y-9528936D01*
X17458277Y-9528936D02*
X17448753Y-9509889D01*
X17448753Y-9509889D02*
X17439229Y-9471793D01*
X17439229Y-9471793D02*
X17439229Y-9424174D01*
X17439229Y-9424174D02*
X17448753Y-9386079D01*
X17448753Y-9386079D02*
X17458277Y-9367031D01*
X17458277Y-9367031D02*
X17467801Y-9357508D01*
X17467801Y-9357508D02*
X17486848Y-9347984D01*
X17620182Y-9347984D02*
X17743991Y-9347984D01*
X17743991Y-9347984D02*
X17677325Y-9424174D01*
X17677325Y-9424174D02*
X17705896Y-9424174D01*
X17705896Y-9424174D02*
X17724944Y-9433698D01*
X17724944Y-9433698D02*
X17734468Y-9443222D01*
X17734468Y-9443222D02*
X17743991Y-9462270D01*
X17743991Y-9462270D02*
X17743991Y-9509889D01*
X17743991Y-9509889D02*
X17734468Y-9528936D01*
X17734468Y-9528936D02*
X17724944Y-9538460D01*
X17724944Y-9538460D02*
X17705896Y-9547984D01*
X17705896Y-9547984D02*
X17648753Y-9547984D01*
X17648753Y-9547984D02*
X17629706Y-9538460D01*
X17629706Y-9538460D02*
X17620182Y-9528936D01*
X17934468Y-9547984D02*
X17820182Y-9547984D01*
X17877325Y-9547984D02*
X17877325Y-9347984D01*
X17877325Y-9347984D02*
X17858277Y-9376555D01*
X17858277Y-9376555D02*
X17839229Y-9395603D01*
X17839229Y-9395603D02*
X17820182Y-9405127D01*
X18115420Y-9347984D02*
X18020182Y-9347984D01*
X18020182Y-9347984D02*
X18010658Y-9443222D01*
X18010658Y-9443222D02*
X18020182Y-9433698D01*
X18020182Y-9433698D02*
X18039229Y-9424174D01*
X18039229Y-9424174D02*
X18086849Y-9424174D01*
X18086849Y-9424174D02*
X18105896Y-9433698D01*
X18105896Y-9433698D02*
X18115420Y-9443222D01*
X18115420Y-9443222D02*
X18124944Y-9462270D01*
X18124944Y-9462270D02*
X18124944Y-9509889D01*
X18124944Y-9509889D02*
X18115420Y-9528936D01*
X18115420Y-9528936D02*
X18105896Y-9538460D01*
X18105896Y-9538460D02*
X18086849Y-9547984D01*
X18086849Y-9547984D02*
X18039229Y-9547984D01*
X18039229Y-9547984D02*
X18020182Y-9538460D01*
X18020182Y-9538460D02*
X18010658Y-9528936D01*
X18201134Y-9347984D02*
X18201134Y-9386079D01*
X18277325Y-9347984D02*
X18277325Y-9386079D01*
X18572563Y-9624174D02*
X18563039Y-9614650D01*
X18563039Y-9614650D02*
X18543991Y-9586079D01*
X18543991Y-9586079D02*
X18534468Y-9567031D01*
X18534468Y-9567031D02*
X18524944Y-9538460D01*
X18524944Y-9538460D02*
X18515420Y-9490841D01*
X18515420Y-9490841D02*
X18515420Y-9452746D01*
X18515420Y-9452746D02*
X18524944Y-9405127D01*
X18524944Y-9405127D02*
X18534468Y-9376555D01*
X18534468Y-9376555D02*
X18543991Y-9357508D01*
X18543991Y-9357508D02*
X18563039Y-9328936D01*
X18563039Y-9328936D02*
X18572563Y-9319412D01*
X18629706Y-9347984D02*
X18753515Y-9347984D01*
X18753515Y-9347984D02*
X18686849Y-9424174D01*
X18686849Y-9424174D02*
X18715420Y-9424174D01*
X18715420Y-9424174D02*
X18734468Y-9433698D01*
X18734468Y-9433698D02*
X18743991Y-9443222D01*
X18743991Y-9443222D02*
X18753515Y-9462270D01*
X18753515Y-9462270D02*
X18753515Y-9509889D01*
X18753515Y-9509889D02*
X18743991Y-9528936D01*
X18743991Y-9528936D02*
X18734468Y-9538460D01*
X18734468Y-9538460D02*
X18715420Y-9547984D01*
X18715420Y-9547984D02*
X18658277Y-9547984D01*
X18658277Y-9547984D02*
X18639230Y-9538460D01*
X18639230Y-9538460D02*
X18629706Y-9528936D01*
X18991611Y-9547984D02*
X18991611Y-9347984D01*
X19077325Y-9547984D02*
X19077325Y-9443222D01*
X19077325Y-9443222D02*
X19067801Y-9424174D01*
X19067801Y-9424174D02*
X19048753Y-9414650D01*
X19048753Y-9414650D02*
X19020182Y-9414650D01*
X19020182Y-9414650D02*
X19001134Y-9424174D01*
X19001134Y-9424174D02*
X18991611Y-9433698D01*
X19201134Y-9547984D02*
X19182087Y-9538460D01*
X19182087Y-9538460D02*
X19172563Y-9528936D01*
X19172563Y-9528936D02*
X19163039Y-9509889D01*
X19163039Y-9509889D02*
X19163039Y-9452746D01*
X19163039Y-9452746D02*
X19172563Y-9433698D01*
X19172563Y-9433698D02*
X19182087Y-9424174D01*
X19182087Y-9424174D02*
X19201134Y-9414650D01*
X19201134Y-9414650D02*
X19229706Y-9414650D01*
X19229706Y-9414650D02*
X19248753Y-9424174D01*
X19248753Y-9424174D02*
X19258277Y-9433698D01*
X19258277Y-9433698D02*
X19267801Y-9452746D01*
X19267801Y-9452746D02*
X19267801Y-9509889D01*
X19267801Y-9509889D02*
X19258277Y-9528936D01*
X19258277Y-9528936D02*
X19248753Y-9538460D01*
X19248753Y-9538460D02*
X19229706Y-9547984D01*
X19229706Y-9547984D02*
X19201134Y-9547984D01*
X19382087Y-9547984D02*
X19363039Y-9538460D01*
X19363039Y-9538460D02*
X19353515Y-9519412D01*
X19353515Y-9519412D02*
X19353515Y-9347984D01*
X19534468Y-9538460D02*
X19515420Y-9547984D01*
X19515420Y-9547984D02*
X19477325Y-9547984D01*
X19477325Y-9547984D02*
X19458277Y-9538460D01*
X19458277Y-9538460D02*
X19448753Y-9519412D01*
X19448753Y-9519412D02*
X19448753Y-9443222D01*
X19448753Y-9443222D02*
X19458277Y-9424174D01*
X19458277Y-9424174D02*
X19477325Y-9414650D01*
X19477325Y-9414650D02*
X19515420Y-9414650D01*
X19515420Y-9414650D02*
X19534468Y-9424174D01*
X19534468Y-9424174D02*
X19543992Y-9443222D01*
X19543992Y-9443222D02*
X19543992Y-9462270D01*
X19543992Y-9462270D02*
X19448753Y-9481317D01*
X19620182Y-9538460D02*
X19639230Y-9547984D01*
X19639230Y-9547984D02*
X19677325Y-9547984D01*
X19677325Y-9547984D02*
X19696373Y-9538460D01*
X19696373Y-9538460D02*
X19705896Y-9519412D01*
X19705896Y-9519412D02*
X19705896Y-9509889D01*
X19705896Y-9509889D02*
X19696373Y-9490841D01*
X19696373Y-9490841D02*
X19677325Y-9481317D01*
X19677325Y-9481317D02*
X19648753Y-9481317D01*
X19648753Y-9481317D02*
X19629706Y-9471793D01*
X19629706Y-9471793D02*
X19620182Y-9452746D01*
X19620182Y-9452746D02*
X19620182Y-9443222D01*
X19620182Y-9443222D02*
X19629706Y-9424174D01*
X19629706Y-9424174D02*
X19648753Y-9414650D01*
X19648753Y-9414650D02*
X19677325Y-9414650D01*
X19677325Y-9414650D02*
X19696373Y-9424174D01*
X19772563Y-9624174D02*
X19782087Y-9614650D01*
X19782087Y-9614650D02*
X19801134Y-9586079D01*
X19801134Y-9586079D02*
X19810658Y-9567031D01*
X19810658Y-9567031D02*
X19820182Y-9538460D01*
X19820182Y-9538460D02*
X19829706Y-9490841D01*
X19829706Y-9490841D02*
X19829706Y-9452746D01*
X19829706Y-9452746D02*
X19820182Y-9405127D01*
X19820182Y-9405127D02*
X19810658Y-9376555D01*
X19810658Y-9376555D02*
X19801134Y-9357508D01*
X19801134Y-9357508D02*
X19782087Y-9328936D01*
X19782087Y-9328936D02*
X19772563Y-9319412D01*
D13*
X14946500Y-9669500D02*
X14946500Y-9771500D01*
X14895500Y-9720500D02*
X14997500Y-9720500D01*
D11*
X15363039Y-9811984D02*
X15248753Y-9811984D01*
X15305896Y-9811984D02*
X15305896Y-9611984D01*
X15305896Y-9611984D02*
X15286848Y-9640555D01*
X15286848Y-9640555D02*
X15267801Y-9659603D01*
X15267801Y-9659603D02*
X15248753Y-9669127D01*
X15448753Y-9792936D02*
X15458277Y-9802460D01*
X15458277Y-9802460D02*
X15448753Y-9811984D01*
X15448753Y-9811984D02*
X15439229Y-9802460D01*
X15439229Y-9802460D02*
X15448753Y-9792936D01*
X15448753Y-9792936D02*
X15448753Y-9811984D01*
X15582086Y-9611984D02*
X15601134Y-9611984D01*
X15601134Y-9611984D02*
X15620182Y-9621508D01*
X15620182Y-9621508D02*
X15629705Y-9631031D01*
X15629705Y-9631031D02*
X15639229Y-9650079D01*
X15639229Y-9650079D02*
X15648753Y-9688174D01*
X15648753Y-9688174D02*
X15648753Y-9735793D01*
X15648753Y-9735793D02*
X15639229Y-9773889D01*
X15639229Y-9773889D02*
X15629705Y-9792936D01*
X15629705Y-9792936D02*
X15620182Y-9802460D01*
X15620182Y-9802460D02*
X15601134Y-9811984D01*
X15601134Y-9811984D02*
X15582086Y-9811984D01*
X15582086Y-9811984D02*
X15563039Y-9802460D01*
X15563039Y-9802460D02*
X15553515Y-9792936D01*
X15553515Y-9792936D02*
X15543991Y-9773889D01*
X15543991Y-9773889D02*
X15534467Y-9735793D01*
X15534467Y-9735793D02*
X15534467Y-9688174D01*
X15534467Y-9688174D02*
X15543991Y-9650079D01*
X15543991Y-9650079D02*
X15553515Y-9631031D01*
X15553515Y-9631031D02*
X15563039Y-9621508D01*
X15563039Y-9621508D02*
X15582086Y-9611984D01*
X15724943Y-9631031D02*
X15734467Y-9621508D01*
X15734467Y-9621508D02*
X15753515Y-9611984D01*
X15753515Y-9611984D02*
X15801134Y-9611984D01*
X15801134Y-9611984D02*
X15820182Y-9621508D01*
X15820182Y-9621508D02*
X15829705Y-9631031D01*
X15829705Y-9631031D02*
X15839229Y-9650079D01*
X15839229Y-9650079D02*
X15839229Y-9669127D01*
X15839229Y-9669127D02*
X15829705Y-9697698D01*
X15829705Y-9697698D02*
X15715420Y-9811984D01*
X15715420Y-9811984D02*
X15839229Y-9811984D01*
X15963039Y-9611984D02*
X15982086Y-9611984D01*
X15982086Y-9611984D02*
X16001134Y-9621508D01*
X16001134Y-9621508D02*
X16010658Y-9631031D01*
X16010658Y-9631031D02*
X16020182Y-9650079D01*
X16020182Y-9650079D02*
X16029705Y-9688174D01*
X16029705Y-9688174D02*
X16029705Y-9735793D01*
X16029705Y-9735793D02*
X16020182Y-9773889D01*
X16020182Y-9773889D02*
X16010658Y-9792936D01*
X16010658Y-9792936D02*
X16001134Y-9802460D01*
X16001134Y-9802460D02*
X15982086Y-9811984D01*
X15982086Y-9811984D02*
X15963039Y-9811984D01*
X15963039Y-9811984D02*
X15943991Y-9802460D01*
X15943991Y-9802460D02*
X15934467Y-9792936D01*
X15934467Y-9792936D02*
X15924943Y-9773889D01*
X15924943Y-9773889D02*
X15915420Y-9735793D01*
X15915420Y-9735793D02*
X15915420Y-9688174D01*
X15915420Y-9688174D02*
X15924943Y-9650079D01*
X15924943Y-9650079D02*
X15934467Y-9631031D01*
X15934467Y-9631031D02*
X15943991Y-9621508D01*
X15943991Y-9621508D02*
X15963039Y-9611984D01*
X16115420Y-9811984D02*
X16115420Y-9678650D01*
X16115420Y-9697698D02*
X16124943Y-9688174D01*
X16124943Y-9688174D02*
X16143991Y-9678650D01*
X16143991Y-9678650D02*
X16172563Y-9678650D01*
X16172563Y-9678650D02*
X16191610Y-9688174D01*
X16191610Y-9688174D02*
X16201134Y-9707222D01*
X16201134Y-9707222D02*
X16201134Y-9811984D01*
X16201134Y-9707222D02*
X16210658Y-9688174D01*
X16210658Y-9688174D02*
X16229705Y-9678650D01*
X16229705Y-9678650D02*
X16258277Y-9678650D01*
X16258277Y-9678650D02*
X16277324Y-9688174D01*
X16277324Y-9688174D02*
X16286848Y-9707222D01*
X16286848Y-9707222D02*
X16286848Y-9811984D01*
X16382086Y-9811984D02*
X16382086Y-9678650D01*
X16382086Y-9697698D02*
X16391610Y-9688174D01*
X16391610Y-9688174D02*
X16410658Y-9678650D01*
X16410658Y-9678650D02*
X16439229Y-9678650D01*
X16439229Y-9678650D02*
X16458277Y-9688174D01*
X16458277Y-9688174D02*
X16467801Y-9707222D01*
X16467801Y-9707222D02*
X16467801Y-9811984D01*
X16467801Y-9707222D02*
X16477324Y-9688174D01*
X16477324Y-9688174D02*
X16496372Y-9678650D01*
X16496372Y-9678650D02*
X16524943Y-9678650D01*
X16524943Y-9678650D02*
X16543991Y-9688174D01*
X16543991Y-9688174D02*
X16553515Y-9707222D01*
X16553515Y-9707222D02*
X16553515Y-9811984D01*
X16943991Y-9602460D02*
X16772563Y-9859603D01*
X17201134Y-9611984D02*
X17220182Y-9611984D01*
X17220182Y-9611984D02*
X17239229Y-9621508D01*
X17239229Y-9621508D02*
X17248753Y-9631031D01*
X17248753Y-9631031D02*
X17258277Y-9650079D01*
X17258277Y-9650079D02*
X17267801Y-9688174D01*
X17267801Y-9688174D02*
X17267801Y-9735793D01*
X17267801Y-9735793D02*
X17258277Y-9773889D01*
X17258277Y-9773889D02*
X17248753Y-9792936D01*
X17248753Y-9792936D02*
X17239229Y-9802460D01*
X17239229Y-9802460D02*
X17220182Y-9811984D01*
X17220182Y-9811984D02*
X17201134Y-9811984D01*
X17201134Y-9811984D02*
X17182087Y-9802460D01*
X17182087Y-9802460D02*
X17172563Y-9792936D01*
X17172563Y-9792936D02*
X17163039Y-9773889D01*
X17163039Y-9773889D02*
X17153515Y-9735793D01*
X17153515Y-9735793D02*
X17153515Y-9688174D01*
X17153515Y-9688174D02*
X17163039Y-9650079D01*
X17163039Y-9650079D02*
X17172563Y-9631031D01*
X17172563Y-9631031D02*
X17182087Y-9621508D01*
X17182087Y-9621508D02*
X17201134Y-9611984D01*
X17353515Y-9792936D02*
X17363039Y-9802460D01*
X17363039Y-9802460D02*
X17353515Y-9811984D01*
X17353515Y-9811984D02*
X17343991Y-9802460D01*
X17343991Y-9802460D02*
X17353515Y-9792936D01*
X17353515Y-9792936D02*
X17353515Y-9811984D01*
X17486848Y-9611984D02*
X17505896Y-9611984D01*
X17505896Y-9611984D02*
X17524944Y-9621508D01*
X17524944Y-9621508D02*
X17534468Y-9631031D01*
X17534468Y-9631031D02*
X17543991Y-9650079D01*
X17543991Y-9650079D02*
X17553515Y-9688174D01*
X17553515Y-9688174D02*
X17553515Y-9735793D01*
X17553515Y-9735793D02*
X17543991Y-9773889D01*
X17543991Y-9773889D02*
X17534468Y-9792936D01*
X17534468Y-9792936D02*
X17524944Y-9802460D01*
X17524944Y-9802460D02*
X17505896Y-9811984D01*
X17505896Y-9811984D02*
X17486848Y-9811984D01*
X17486848Y-9811984D02*
X17467801Y-9802460D01*
X17467801Y-9802460D02*
X17458277Y-9792936D01*
X17458277Y-9792936D02*
X17448753Y-9773889D01*
X17448753Y-9773889D02*
X17439229Y-9735793D01*
X17439229Y-9735793D02*
X17439229Y-9688174D01*
X17439229Y-9688174D02*
X17448753Y-9650079D01*
X17448753Y-9650079D02*
X17458277Y-9631031D01*
X17458277Y-9631031D02*
X17467801Y-9621508D01*
X17467801Y-9621508D02*
X17486848Y-9611984D01*
X17724944Y-9678650D02*
X17724944Y-9811984D01*
X17677325Y-9602460D02*
X17629706Y-9745317D01*
X17629706Y-9745317D02*
X17753515Y-9745317D01*
X17867801Y-9611984D02*
X17886849Y-9611984D01*
X17886849Y-9611984D02*
X17905896Y-9621508D01*
X17905896Y-9621508D02*
X17915420Y-9631031D01*
X17915420Y-9631031D02*
X17924944Y-9650079D01*
X17924944Y-9650079D02*
X17934468Y-9688174D01*
X17934468Y-9688174D02*
X17934468Y-9735793D01*
X17934468Y-9735793D02*
X17924944Y-9773889D01*
X17924944Y-9773889D02*
X17915420Y-9792936D01*
X17915420Y-9792936D02*
X17905896Y-9802460D01*
X17905896Y-9802460D02*
X17886849Y-9811984D01*
X17886849Y-9811984D02*
X17867801Y-9811984D01*
X17867801Y-9811984D02*
X17848753Y-9802460D01*
X17848753Y-9802460D02*
X17839229Y-9792936D01*
X17839229Y-9792936D02*
X17829706Y-9773889D01*
X17829706Y-9773889D02*
X17820182Y-9735793D01*
X17820182Y-9735793D02*
X17820182Y-9688174D01*
X17820182Y-9688174D02*
X17829706Y-9650079D01*
X17829706Y-9650079D02*
X17839229Y-9631031D01*
X17839229Y-9631031D02*
X17848753Y-9621508D01*
X17848753Y-9621508D02*
X17867801Y-9611984D01*
X18010658Y-9631031D02*
X18020182Y-9621508D01*
X18020182Y-9621508D02*
X18039229Y-9611984D01*
X18039229Y-9611984D02*
X18086849Y-9611984D01*
X18086849Y-9611984D02*
X18105896Y-9621508D01*
X18105896Y-9621508D02*
X18115420Y-9631031D01*
X18115420Y-9631031D02*
X18124944Y-9650079D01*
X18124944Y-9650079D02*
X18124944Y-9669127D01*
X18124944Y-9669127D02*
X18115420Y-9697698D01*
X18115420Y-9697698D02*
X18001134Y-9811984D01*
X18001134Y-9811984D02*
X18124944Y-9811984D01*
X18201134Y-9611984D02*
X18201134Y-9650079D01*
X18277325Y-9611984D02*
X18277325Y-9650079D01*
X18572563Y-9888174D02*
X18563039Y-9878650D01*
X18563039Y-9878650D02*
X18543991Y-9850079D01*
X18543991Y-9850079D02*
X18534468Y-9831031D01*
X18534468Y-9831031D02*
X18524944Y-9802460D01*
X18524944Y-9802460D02*
X18515420Y-9754841D01*
X18515420Y-9754841D02*
X18515420Y-9716746D01*
X18515420Y-9716746D02*
X18524944Y-9669127D01*
X18524944Y-9669127D02*
X18534468Y-9640555D01*
X18534468Y-9640555D02*
X18543991Y-9621508D01*
X18543991Y-9621508D02*
X18563039Y-9592936D01*
X18563039Y-9592936D02*
X18572563Y-9583412D01*
X18734468Y-9678650D02*
X18734468Y-9811984D01*
X18686849Y-9602460D02*
X18639230Y-9745317D01*
X18639230Y-9745317D02*
X18763039Y-9745317D01*
X18991611Y-9811984D02*
X18991611Y-9611984D01*
X19077325Y-9811984D02*
X19077325Y-9707222D01*
X19077325Y-9707222D02*
X19067801Y-9688174D01*
X19067801Y-9688174D02*
X19048753Y-9678650D01*
X19048753Y-9678650D02*
X19020182Y-9678650D01*
X19020182Y-9678650D02*
X19001134Y-9688174D01*
X19001134Y-9688174D02*
X18991611Y-9697698D01*
X19201134Y-9811984D02*
X19182087Y-9802460D01*
X19182087Y-9802460D02*
X19172563Y-9792936D01*
X19172563Y-9792936D02*
X19163039Y-9773889D01*
X19163039Y-9773889D02*
X19163039Y-9716746D01*
X19163039Y-9716746D02*
X19172563Y-9697698D01*
X19172563Y-9697698D02*
X19182087Y-9688174D01*
X19182087Y-9688174D02*
X19201134Y-9678650D01*
X19201134Y-9678650D02*
X19229706Y-9678650D01*
X19229706Y-9678650D02*
X19248753Y-9688174D01*
X19248753Y-9688174D02*
X19258277Y-9697698D01*
X19258277Y-9697698D02*
X19267801Y-9716746D01*
X19267801Y-9716746D02*
X19267801Y-9773889D01*
X19267801Y-9773889D02*
X19258277Y-9792936D01*
X19258277Y-9792936D02*
X19248753Y-9802460D01*
X19248753Y-9802460D02*
X19229706Y-9811984D01*
X19229706Y-9811984D02*
X19201134Y-9811984D01*
X19382087Y-9811984D02*
X19363039Y-9802460D01*
X19363039Y-9802460D02*
X19353515Y-9783412D01*
X19353515Y-9783412D02*
X19353515Y-9611984D01*
X19534468Y-9802460D02*
X19515420Y-9811984D01*
X19515420Y-9811984D02*
X19477325Y-9811984D01*
X19477325Y-9811984D02*
X19458277Y-9802460D01*
X19458277Y-9802460D02*
X19448753Y-9783412D01*
X19448753Y-9783412D02*
X19448753Y-9707222D01*
X19448753Y-9707222D02*
X19458277Y-9688174D01*
X19458277Y-9688174D02*
X19477325Y-9678650D01*
X19477325Y-9678650D02*
X19515420Y-9678650D01*
X19515420Y-9678650D02*
X19534468Y-9688174D01*
X19534468Y-9688174D02*
X19543992Y-9707222D01*
X19543992Y-9707222D02*
X19543992Y-9726270D01*
X19543992Y-9726270D02*
X19448753Y-9745317D01*
X19620182Y-9802460D02*
X19639230Y-9811984D01*
X19639230Y-9811984D02*
X19677325Y-9811984D01*
X19677325Y-9811984D02*
X19696373Y-9802460D01*
X19696373Y-9802460D02*
X19705896Y-9783412D01*
X19705896Y-9783412D02*
X19705896Y-9773889D01*
X19705896Y-9773889D02*
X19696373Y-9754841D01*
X19696373Y-9754841D02*
X19677325Y-9745317D01*
X19677325Y-9745317D02*
X19648753Y-9745317D01*
X19648753Y-9745317D02*
X19629706Y-9735793D01*
X19629706Y-9735793D02*
X19620182Y-9716746D01*
X19620182Y-9716746D02*
X19620182Y-9707222D01*
X19620182Y-9707222D02*
X19629706Y-9688174D01*
X19629706Y-9688174D02*
X19648753Y-9678650D01*
X19648753Y-9678650D02*
X19677325Y-9678650D01*
X19677325Y-9678650D02*
X19696373Y-9688174D01*
X19772563Y-9888174D02*
X19782087Y-9878650D01*
X19782087Y-9878650D02*
X19801134Y-9850079D01*
X19801134Y-9850079D02*
X19810658Y-9831031D01*
X19810658Y-9831031D02*
X19820182Y-9802460D01*
X19820182Y-9802460D02*
X19829706Y-9754841D01*
X19829706Y-9754841D02*
X19829706Y-9716746D01*
X19829706Y-9716746D02*
X19820182Y-9669127D01*
X19820182Y-9669127D02*
X19810658Y-9640555D01*
X19810658Y-9640555D02*
X19801134Y-9621508D01*
X19801134Y-9621508D02*
X19782087Y-9592936D01*
X19782087Y-9592936D02*
X19772563Y-9583412D01*
D14*
X14979927Y-10026927D02*
X14979927Y-9942073D01*
X14895073Y-9942073D01*
X14895073Y-10026927D01*
X14979927Y-10026927D01*
D11*
X15363039Y-10075984D02*
X15248753Y-10075984D01*
X15305896Y-10075984D02*
X15305896Y-9875984D01*
X15305896Y-9875984D02*
X15286848Y-9904555D01*
X15286848Y-9904555D02*
X15267801Y-9923603D01*
X15267801Y-9923603D02*
X15248753Y-9933127D01*
X15448753Y-10056936D02*
X15458277Y-10066460D01*
X15458277Y-10066460D02*
X15448753Y-10075984D01*
X15448753Y-10075984D02*
X15439229Y-10066460D01*
X15439229Y-10066460D02*
X15448753Y-10056936D01*
X15448753Y-10056936D02*
X15448753Y-10075984D01*
X15534467Y-9895031D02*
X15543991Y-9885508D01*
X15543991Y-9885508D02*
X15563039Y-9875984D01*
X15563039Y-9875984D02*
X15610658Y-9875984D01*
X15610658Y-9875984D02*
X15629705Y-9885508D01*
X15629705Y-9885508D02*
X15639229Y-9895031D01*
X15639229Y-9895031D02*
X15648753Y-9914079D01*
X15648753Y-9914079D02*
X15648753Y-9933127D01*
X15648753Y-9933127D02*
X15639229Y-9961698D01*
X15639229Y-9961698D02*
X15524943Y-10075984D01*
X15524943Y-10075984D02*
X15648753Y-10075984D01*
X15772562Y-9875984D02*
X15791610Y-9875984D01*
X15791610Y-9875984D02*
X15810658Y-9885508D01*
X15810658Y-9885508D02*
X15820182Y-9895031D01*
X15820182Y-9895031D02*
X15829705Y-9914079D01*
X15829705Y-9914079D02*
X15839229Y-9952174D01*
X15839229Y-9952174D02*
X15839229Y-9999793D01*
X15839229Y-9999793D02*
X15829705Y-10037889D01*
X15829705Y-10037889D02*
X15820182Y-10056936D01*
X15820182Y-10056936D02*
X15810658Y-10066460D01*
X15810658Y-10066460D02*
X15791610Y-10075984D01*
X15791610Y-10075984D02*
X15772562Y-10075984D01*
X15772562Y-10075984D02*
X15753515Y-10066460D01*
X15753515Y-10066460D02*
X15743991Y-10056936D01*
X15743991Y-10056936D02*
X15734467Y-10037889D01*
X15734467Y-10037889D02*
X15724943Y-9999793D01*
X15724943Y-9999793D02*
X15724943Y-9952174D01*
X15724943Y-9952174D02*
X15734467Y-9914079D01*
X15734467Y-9914079D02*
X15743991Y-9895031D01*
X15743991Y-9895031D02*
X15753515Y-9885508D01*
X15753515Y-9885508D02*
X15772562Y-9875984D01*
X15963039Y-9875984D02*
X15982086Y-9875984D01*
X15982086Y-9875984D02*
X16001134Y-9885508D01*
X16001134Y-9885508D02*
X16010658Y-9895031D01*
X16010658Y-9895031D02*
X16020182Y-9914079D01*
X16020182Y-9914079D02*
X16029705Y-9952174D01*
X16029705Y-9952174D02*
X16029705Y-9999793D01*
X16029705Y-9999793D02*
X16020182Y-10037889D01*
X16020182Y-10037889D02*
X16010658Y-10056936D01*
X16010658Y-10056936D02*
X16001134Y-10066460D01*
X16001134Y-10066460D02*
X15982086Y-10075984D01*
X15982086Y-10075984D02*
X15963039Y-10075984D01*
X15963039Y-10075984D02*
X15943991Y-10066460D01*
X15943991Y-10066460D02*
X15934467Y-10056936D01*
X15934467Y-10056936D02*
X15924943Y-10037889D01*
X15924943Y-10037889D02*
X15915420Y-9999793D01*
X15915420Y-9999793D02*
X15915420Y-9952174D01*
X15915420Y-9952174D02*
X15924943Y-9914079D01*
X15924943Y-9914079D02*
X15934467Y-9895031D01*
X15934467Y-9895031D02*
X15943991Y-9885508D01*
X15943991Y-9885508D02*
X15963039Y-9875984D01*
X16115420Y-10075984D02*
X16115420Y-9942650D01*
X16115420Y-9961698D02*
X16124943Y-9952174D01*
X16124943Y-9952174D02*
X16143991Y-9942650D01*
X16143991Y-9942650D02*
X16172563Y-9942650D01*
X16172563Y-9942650D02*
X16191610Y-9952174D01*
X16191610Y-9952174D02*
X16201134Y-9971222D01*
X16201134Y-9971222D02*
X16201134Y-10075984D01*
X16201134Y-9971222D02*
X16210658Y-9952174D01*
X16210658Y-9952174D02*
X16229705Y-9942650D01*
X16229705Y-9942650D02*
X16258277Y-9942650D01*
X16258277Y-9942650D02*
X16277324Y-9952174D01*
X16277324Y-9952174D02*
X16286848Y-9971222D01*
X16286848Y-9971222D02*
X16286848Y-10075984D01*
X16382086Y-10075984D02*
X16382086Y-9942650D01*
X16382086Y-9961698D02*
X16391610Y-9952174D01*
X16391610Y-9952174D02*
X16410658Y-9942650D01*
X16410658Y-9942650D02*
X16439229Y-9942650D01*
X16439229Y-9942650D02*
X16458277Y-9952174D01*
X16458277Y-9952174D02*
X16467801Y-9971222D01*
X16467801Y-9971222D02*
X16467801Y-10075984D01*
X16467801Y-9971222D02*
X16477324Y-9952174D01*
X16477324Y-9952174D02*
X16496372Y-9942650D01*
X16496372Y-9942650D02*
X16524943Y-9942650D01*
X16524943Y-9942650D02*
X16543991Y-9952174D01*
X16543991Y-9952174D02*
X16553515Y-9971222D01*
X16553515Y-9971222D02*
X16553515Y-10075984D01*
X16943991Y-9866460D02*
X16772563Y-10123603D01*
X17201134Y-9875984D02*
X17220182Y-9875984D01*
X17220182Y-9875984D02*
X17239229Y-9885508D01*
X17239229Y-9885508D02*
X17248753Y-9895031D01*
X17248753Y-9895031D02*
X17258277Y-9914079D01*
X17258277Y-9914079D02*
X17267801Y-9952174D01*
X17267801Y-9952174D02*
X17267801Y-9999793D01*
X17267801Y-9999793D02*
X17258277Y-10037889D01*
X17258277Y-10037889D02*
X17248753Y-10056936D01*
X17248753Y-10056936D02*
X17239229Y-10066460D01*
X17239229Y-10066460D02*
X17220182Y-10075984D01*
X17220182Y-10075984D02*
X17201134Y-10075984D01*
X17201134Y-10075984D02*
X17182087Y-10066460D01*
X17182087Y-10066460D02*
X17172563Y-10056936D01*
X17172563Y-10056936D02*
X17163039Y-10037889D01*
X17163039Y-10037889D02*
X17153515Y-9999793D01*
X17153515Y-9999793D02*
X17153515Y-9952174D01*
X17153515Y-9952174D02*
X17163039Y-9914079D01*
X17163039Y-9914079D02*
X17172563Y-9895031D01*
X17172563Y-9895031D02*
X17182087Y-9885508D01*
X17182087Y-9885508D02*
X17201134Y-9875984D01*
X17353515Y-10056936D02*
X17363039Y-10066460D01*
X17363039Y-10066460D02*
X17353515Y-10075984D01*
X17353515Y-10075984D02*
X17343991Y-10066460D01*
X17343991Y-10066460D02*
X17353515Y-10056936D01*
X17353515Y-10056936D02*
X17353515Y-10075984D01*
X17486848Y-9875984D02*
X17505896Y-9875984D01*
X17505896Y-9875984D02*
X17524944Y-9885508D01*
X17524944Y-9885508D02*
X17534468Y-9895031D01*
X17534468Y-9895031D02*
X17543991Y-9914079D01*
X17543991Y-9914079D02*
X17553515Y-9952174D01*
X17553515Y-9952174D02*
X17553515Y-9999793D01*
X17553515Y-9999793D02*
X17543991Y-10037889D01*
X17543991Y-10037889D02*
X17534468Y-10056936D01*
X17534468Y-10056936D02*
X17524944Y-10066460D01*
X17524944Y-10066460D02*
X17505896Y-10075984D01*
X17505896Y-10075984D02*
X17486848Y-10075984D01*
X17486848Y-10075984D02*
X17467801Y-10066460D01*
X17467801Y-10066460D02*
X17458277Y-10056936D01*
X17458277Y-10056936D02*
X17448753Y-10037889D01*
X17448753Y-10037889D02*
X17439229Y-9999793D01*
X17439229Y-9999793D02*
X17439229Y-9952174D01*
X17439229Y-9952174D02*
X17448753Y-9914079D01*
X17448753Y-9914079D02*
X17458277Y-9895031D01*
X17458277Y-9895031D02*
X17467801Y-9885508D01*
X17467801Y-9885508D02*
X17486848Y-9875984D01*
X17724944Y-9942650D02*
X17724944Y-10075984D01*
X17677325Y-9866460D02*
X17629706Y-10009317D01*
X17629706Y-10009317D02*
X17753515Y-10009317D01*
X17810658Y-9875984D02*
X17943991Y-9875984D01*
X17943991Y-9875984D02*
X17858277Y-10075984D01*
X18010658Y-9895031D02*
X18020182Y-9885508D01*
X18020182Y-9885508D02*
X18039229Y-9875984D01*
X18039229Y-9875984D02*
X18086849Y-9875984D01*
X18086849Y-9875984D02*
X18105896Y-9885508D01*
X18105896Y-9885508D02*
X18115420Y-9895031D01*
X18115420Y-9895031D02*
X18124944Y-9914079D01*
X18124944Y-9914079D02*
X18124944Y-9933127D01*
X18124944Y-9933127D02*
X18115420Y-9961698D01*
X18115420Y-9961698D02*
X18001134Y-10075984D01*
X18001134Y-10075984D02*
X18124944Y-10075984D01*
X18201134Y-9875984D02*
X18201134Y-9914079D01*
X18277325Y-9875984D02*
X18277325Y-9914079D01*
X18572563Y-10152174D02*
X18563039Y-10142650D01*
X18563039Y-10142650D02*
X18543991Y-10114079D01*
X18543991Y-10114079D02*
X18534468Y-10095031D01*
X18534468Y-10095031D02*
X18524944Y-10066460D01*
X18524944Y-10066460D02*
X18515420Y-10018841D01*
X18515420Y-10018841D02*
X18515420Y-9980746D01*
X18515420Y-9980746D02*
X18524944Y-9933127D01*
X18524944Y-9933127D02*
X18534468Y-9904555D01*
X18534468Y-9904555D02*
X18543991Y-9885508D01*
X18543991Y-9885508D02*
X18563039Y-9856936D01*
X18563039Y-9856936D02*
X18572563Y-9847412D01*
X18734468Y-9942650D02*
X18734468Y-10075984D01*
X18686849Y-9866460D02*
X18639230Y-10009317D01*
X18639230Y-10009317D02*
X18763039Y-10009317D01*
X18991611Y-10075984D02*
X18991611Y-9875984D01*
X19077325Y-10075984D02*
X19077325Y-9971222D01*
X19077325Y-9971222D02*
X19067801Y-9952174D01*
X19067801Y-9952174D02*
X19048753Y-9942650D01*
X19048753Y-9942650D02*
X19020182Y-9942650D01*
X19020182Y-9942650D02*
X19001134Y-9952174D01*
X19001134Y-9952174D02*
X18991611Y-9961698D01*
X19201134Y-10075984D02*
X19182087Y-10066460D01*
X19182087Y-10066460D02*
X19172563Y-10056936D01*
X19172563Y-10056936D02*
X19163039Y-10037889D01*
X19163039Y-10037889D02*
X19163039Y-9980746D01*
X19163039Y-9980746D02*
X19172563Y-9961698D01*
X19172563Y-9961698D02*
X19182087Y-9952174D01*
X19182087Y-9952174D02*
X19201134Y-9942650D01*
X19201134Y-9942650D02*
X19229706Y-9942650D01*
X19229706Y-9942650D02*
X19248753Y-9952174D01*
X19248753Y-9952174D02*
X19258277Y-9961698D01*
X19258277Y-9961698D02*
X19267801Y-9980746D01*
X19267801Y-9980746D02*
X19267801Y-10037889D01*
X19267801Y-10037889D02*
X19258277Y-10056936D01*
X19258277Y-10056936D02*
X19248753Y-10066460D01*
X19248753Y-10066460D02*
X19229706Y-10075984D01*
X19229706Y-10075984D02*
X19201134Y-10075984D01*
X19382087Y-10075984D02*
X19363039Y-10066460D01*
X19363039Y-10066460D02*
X19353515Y-10047412D01*
X19353515Y-10047412D02*
X19353515Y-9875984D01*
X19534468Y-10066460D02*
X19515420Y-10075984D01*
X19515420Y-10075984D02*
X19477325Y-10075984D01*
X19477325Y-10075984D02*
X19458277Y-10066460D01*
X19458277Y-10066460D02*
X19448753Y-10047412D01*
X19448753Y-10047412D02*
X19448753Y-9971222D01*
X19448753Y-9971222D02*
X19458277Y-9952174D01*
X19458277Y-9952174D02*
X19477325Y-9942650D01*
X19477325Y-9942650D02*
X19515420Y-9942650D01*
X19515420Y-9942650D02*
X19534468Y-9952174D01*
X19534468Y-9952174D02*
X19543992Y-9971222D01*
X19543992Y-9971222D02*
X19543992Y-9990270D01*
X19543992Y-9990270D02*
X19448753Y-10009317D01*
X19620182Y-10066460D02*
X19639230Y-10075984D01*
X19639230Y-10075984D02*
X19677325Y-10075984D01*
X19677325Y-10075984D02*
X19696373Y-10066460D01*
X19696373Y-10066460D02*
X19705896Y-10047412D01*
X19705896Y-10047412D02*
X19705896Y-10037889D01*
X19705896Y-10037889D02*
X19696373Y-10018841D01*
X19696373Y-10018841D02*
X19677325Y-10009317D01*
X19677325Y-10009317D02*
X19648753Y-10009317D01*
X19648753Y-10009317D02*
X19629706Y-9999793D01*
X19629706Y-9999793D02*
X19620182Y-9980746D01*
X19620182Y-9980746D02*
X19620182Y-9971222D01*
X19620182Y-9971222D02*
X19629706Y-9952174D01*
X19629706Y-9952174D02*
X19648753Y-9942650D01*
X19648753Y-9942650D02*
X19677325Y-9942650D01*
X19677325Y-9942650D02*
X19696373Y-9952174D01*
X19772563Y-10152174D02*
X19782087Y-10142650D01*
X19782087Y-10142650D02*
X19801134Y-10114079D01*
X19801134Y-10114079D02*
X19810658Y-10095031D01*
X19810658Y-10095031D02*
X19820182Y-10066460D01*
X19820182Y-10066460D02*
X19829706Y-10018841D01*
X19829706Y-10018841D02*
X19829706Y-9980746D01*
X19829706Y-9980746D02*
X19820182Y-9933127D01*
X19820182Y-9933127D02*
X19810658Y-9904555D01*
X19810658Y-9904555D02*
X19801134Y-9885508D01*
X19801134Y-9885508D02*
X19782087Y-9856936D01*
X19782087Y-9856936D02*
X19772563Y-9847412D01*
M02*
